Mister Pixel Regular.ufo
<glyph name="exclam" format="1">
  <advance width="251"/>
  <unicode hex="0021"/>
  <outline>
    <contour>
      <point x="60" y="188" type="line"/>
      <point x="191" y="188" type="line"/>
      <point x="191" y="693" type="line"/>
      <point x="60" y="693" type="line"/>
    </contour>
    <contour>
      <point x="60" y="0" type="line"/>
      <point x="191" y="0" type="line"/>
      <point x="191" y="131" type="line"/>
      <point x="60" y="131" type="line"/>
    </contour>
  </outline>
</glyph>
<glyph name="numbersign" format="1">
  <advance width="751"/>
  <unicode hex="0023"/>
  <outline>
    <contour>
      <point x="566" y="375" type="line"/>
      <point x="691" y="375" type="line"/>
      <point x="691" y="443" type="line"/>
      <point x="628" y="443" type="line"/>
      <point x="628" y="568" type="line"/>
      <point x="498" y="568" type="line"/>
      <point x="498" y="443" type="line"/>
      <point x="378" y="443" type="line"/>
      <point x="378" y="568" type="line"/>
      <point x="248" y="568" type="line"/>
      <point x="248" y="443" type="line"/>
      <point x="123" y="443" type="line"/>
      <point x="123" y="375" type="line"/>
      <point x="185" y="375" type="line"/>
      <point x="185" y="193" type="line"/>
      <point x="60" y="193" type="line"/>
      <point x="60" y="125" type="line"/>
      <point x="123" y="125" type="line"/>
      <point x="123" y="0" type="line"/>
      <point x="253" y="0" type="line"/>
      <point x="253" y="125" type="line"/>
      <point x="373" y="125" type="line"/>
      <point x="373" y="0" type="line"/>
      <point x="503" y="0" type="line"/>
      <point x="503" y="125" type="line"/>
      <point x="628" y="125" type="line"/>
      <point x="628" y="193" type="line"/>
      <point x="566" y="193" type="line"/>
    </contour>
    <contour>
      <point x="435" y="375" type="line"/>
      <point x="435" y="193" type="line"/>
      <point x="316" y="193" type="line"/>
      <point x="316" y="375" type="line"/>
    </contour>
  </outline>
</glyph>
<glyph name="dollar" format="1">
  <advance width="438"/>
  <unicode hex="0024"/>
  <outline>
    <contour>
      <point x="316" y="63" type="line"/>
      <point x="378" y="63" type="line"/>
      <point x="378" y="256" type="line"/>
      <point x="316" y="256" type="line"/>
      <point x="316" y="318" type="line"/>
      <point x="191" y="318" type="line"/>
      <point x="191" y="500" type="line"/>
      <point x="378" y="500" type="line"/>
      <point x="378" y="568" type="line"/>
      <point x="253" y="568" type="line"/>
      <point x="253" y="693" type="line"/>
      <point x="185" y="693" type="line"/>
      <point x="185" y="568" type="line"/>
      <point x="123" y="568" type="line"/>
      <point x="123" y="506" type="line"/>
      <point x="60" y="506" type="line"/>
      <point x="60" y="313" type="line"/>
      <point x="123" y="313" type="line"/>
      <point x="123" y="250" type="line"/>
      <point x="248" y="250" type="line"/>
      <point x="248" y="68" type="line"/>
      <point x="60" y="68" type="line"/>
      <point x="60" y="0" type="line"/>
      <point x="185" y="0" type="line"/>
      <point x="185" y="-125" type="line"/>
      <point x="253" y="-125" type="line"/>
      <point x="253" y="0" type="line"/>
      <point x="316" y="0" type="line"/>
    </contour>
  </outline>
</glyph>
<glyph name="ampersand" format="1">
  <advance width="688"/>
  <unicode hex="0026"/>
  <outline>
    <contour>
      <point x="498" y="0" type="line"/>
      <point x="628" y="0" type="line"/>
      <point x="628" y="68" type="line"/>
      <point x="566" y="68" type="line"/>
      <point x="566" y="131" type="line"/>
      <point x="503" y="131" type="line"/>
      <point x="503" y="188" type="line"/>
      <point x="566" y="188" type="line"/>
      <point x="566" y="318" type="line"/>
      <point x="498" y="318" type="line"/>
      <point x="498" y="193" type="line"/>
      <point x="441" y="193" type="line"/>
      <point x="441" y="256" type="line"/>
      <point x="378" y="256" type="line"/>
      <point x="378" y="318" type="line"/>
      <point x="316" y="318" type="line"/>
      <point x="316" y="375" type="line"/>
      <point x="378" y="375" type="line"/>
      <point x="378" y="438" type="line"/>
      <point x="441" y="438" type="line"/>
      <point x="441" y="568" type="line"/>
      <point x="378" y="568" type="line"/>
      <point x="378" y="631" type="line"/>
      <point x="185" y="631" type="line"/>
      <point x="185" y="568" type="line"/>
      <point x="123" y="568" type="line"/>
      <point x="123" y="375" type="line"/>
      <point x="185" y="375" type="line"/>
      <point x="185" y="318" type="line"/>
      <point x="123" y="318" type="line"/>
      <point x="123" y="256" type="line"/>
      <point x="60" y="256" type="line"/>
      <point x="60" y="63" type="line"/>
      <point x="123" y="63" type="line"/>
      <point x="123" y="0" type="line"/>
      <point x="378" y="0" type="line"/>
      <point x="378" y="63" type="line"/>
      <point x="498" y="63" type="line"/>
    </contour>
    <contour>
      <point x="373" y="563" type="line"/>
      <point x="373" y="443" type="line"/>
      <point x="310" y="443" type="line"/>
      <point x="310" y="381" type="line"/>
      <point x="253" y="381" type="line"/>
      <point x="253" y="563" type="line"/>
    </contour>
    <contour>
      <point x="373" y="188" type="line"/>
      <point x="373" y="68" type="line"/>
      <point x="191" y="68" type="line"/>
      <point x="191" y="250" type="line"/>
      <point x="310" y="250" type="line"/>
      <point x="310" y="188" type="line"/>
    </contour>
  </outline>
</glyph>
<glyph name="parenleft" format="1">
  <advance width="501"/>
  <unicode hex="0028"/>
  <outline>
    <contour>
      <point x="310" y="-62" type="line"/>
      <point x="441" y="-62" type="line"/>
      <point x="441" y="6" type="line"/>
      <point x="378" y="6" type="line"/>
      <point x="378" y="68" type="line"/>
      <point x="316" y="68" type="line"/>
      <point x="316" y="131" type="line"/>
      <point x="253" y="131" type="line"/>
      <point x="253" y="256" type="line"/>
      <point x="191" y="256" type="line"/>
      <point x="191" y="500" type="line"/>
      <point x="253" y="500" type="line"/>
      <point x="253" y="625" type="line"/>
      <point x="316" y="625" type="line"/>
      <point x="316" y="688" type="line"/>
      <point x="378" y="688" type="line"/>
      <point x="378" y="750" type="line"/>
      <point x="441" y="750" type="line"/>
      <point x="441" y="818" type="line"/>
      <point x="310" y="818" type="line"/>
      <point x="310" y="756" type="line"/>
      <point x="248" y="756" type="line"/>
      <point x="248" y="693" type="line"/>
      <point x="185" y="693" type="line"/>
      <point x="185" y="631" type="line"/>
      <point x="123" y="631" type="line"/>
      <point x="123" y="506" type="line"/>
      <point x="60" y="506" type="line"/>
      <point x="60" y="250" type="line"/>
      <point x="123" y="250" type="line"/>
      <point x="123" y="125" type="line"/>
      <point x="185" y="125" type="line"/>
      <point x="185" y="63" type="line"/>
      <point x="248" y="63" type="line"/>
      <point x="248" y="0" type="line"/>
      <point x="310" y="0" type="line"/>
    </contour>
  </outline>
</glyph>
<glyph name="parenright" format="1">
  <advance width="501"/>
  <unicode hex="0029"/>
  <outline>
    <contour>
      <point x="378" y="250" type="line"/>
      <point x="441" y="250" type="line"/>
      <point x="441" y="506" type="line"/>
      <point x="378" y="506" type="line"/>
      <point x="378" y="631" type="line"/>
      <point x="316" y="631" type="line"/>
      <point x="316" y="693" type="line"/>
      <point x="253" y="693" type="line"/>
      <point x="253" y="756" type="line"/>
      <point x="191" y="756" type="line"/>
      <point x="191" y="818" type="line"/>
      <point x="60" y="818" type="line"/>
      <point x="60" y="750" type="line"/>
      <point x="123" y="750" type="line"/>
      <point x="123" y="688" type="line"/>
      <point x="185" y="688" type="line"/>
      <point x="185" y="625" type="line"/>
      <point x="248" y="625" type="line"/>
      <point x="248" y="500" type="line"/>
      <point x="310" y="500" type="line"/>
      <point x="310" y="256" type="line"/>
      <point x="248" y="256" type="line"/>
      <point x="248" y="131" type="line"/>
      <point x="185" y="131" type="line"/>
      <point x="185" y="68" type="line"/>
      <point x="123" y="68" type="line"/>
      <point x="123" y="6" type="line"/>
      <point x="60" y="6" type="line"/>
      <point x="60" y="-62" type="line"/>
      <point x="191" y="-62" type="line"/>
      <point x="191" y="0" type="line"/>
      <point x="253" y="0" type="line"/>
      <point x="253" y="63" type="line"/>
      <point x="316" y="63" type="line"/>
      <point x="316" y="125" type="line"/>
      <point x="378" y="125" type="line"/>
    </contour>
  </outline>
</glyph>
<glyph name="asterisk" format="1">
  <advance width="438"/>
  <unicode hex="002A"/>
  <outline>
    <contour>
      <point x="310" y="375" type="line"/>
      <point x="378" y="375" type="line"/>
      <point x="378" y="443" type="line"/>
      <point x="316" y="443" type="line"/>
      <point x="316" y="563" type="line"/>
      <point x="378" y="563" type="line"/>
      <point x="378" y="631" type="line"/>
      <point x="310" y="631" type="line"/>
      <point x="310" y="568" type="line"/>
      <point x="253" y="568" type="line"/>
      <point x="253" y="693" type="line"/>
      <point x="185" y="693" type="line"/>
      <point x="185" y="568" type="line"/>
      <point x="128" y="568" type="line"/>
      <point x="128" y="631" type="line"/>
      <point x="60" y="631" type="line"/>
      <point x="60" y="563" type="line"/>
      <point x="123" y="563" type="line"/>
      <point x="123" y="443" type="line"/>
      <point x="60" y="443" type="line"/>
      <point x="60" y="375" type="line"/>
      <point x="128" y="375" type="line"/>
      <point x="128" y="438" type="line"/>
      <point x="185" y="438" type="line"/>
      <point x="185" y="313" type="line"/>
      <point x="253" y="313" type="line"/>
      <point x="253" y="438" type="line"/>
      <point x="310" y="438" type="line"/>
    </contour>
  </outline>
</glyph>
<glyph name="plus" format="1">
  <advance width="563"/>
  <unicode hex="002B"/>
  <outline>
    <contour>
      <point x="316" y="250" type="line"/>
      <point x="503" y="250" type="line"/>
      <point x="503" y="318" type="line"/>
      <point x="316" y="318" type="line"/>
      <point x="316" y="506" type="line"/>
      <point x="248" y="506" type="line"/>
      <point x="248" y="318" type="line"/>
      <point x="60" y="318" type="line"/>
      <point x="60" y="250" type="line"/>
      <point x="248" y="250" type="line"/>
      <point x="248" y="63" type="line"/>
      <point x="316" y="63" type="line"/>
    </contour>
  </outline>
</glyph>
<glyph name="hyphen" format="1">
  <advance width="438"/>
  <unicode hex="002D"/>
  <outline>
    <contour>
      <point x="60" y="250" type="line"/>
      <point x="378" y="250" type="line"/>
      <point x="378" y="318" type="line"/>
      <point x="60" y="318" type="line"/>
    </contour>
  </outline>
</glyph>
<glyph name="slash" format="1">
  <advance width="563"/>
  <unicode hex="002F"/>
  <outline>
    <contour>
      <point x="441" y="563" type="line"/>
      <point x="503" y="563" type="line"/>
      <point x="503" y="693" type="line"/>
      <point x="373" y="693" type="line"/>
      <point x="373" y="568" type="line"/>
      <point x="310" y="568" type="line"/>
      <point x="310" y="443" type="line"/>
      <point x="248" y="443" type="line"/>
      <point x="248" y="318" type="line"/>
      <point x="185" y="318" type="line"/>
      <point x="185" y="193" type="line"/>
      <point x="123" y="193" type="line"/>
      <point x="123" y="68" type="line"/>
      <point x="60" y="68" type="line"/>
      <point x="60" y="-62" type="line"/>
      <point x="191" y="-62" type="line"/>
      <point x="191" y="63" type="line"/>
      <point x="253" y="63" type="line"/>
      <point x="253" y="188" type="line"/>
      <point x="316" y="188" type="line"/>
      <point x="316" y="313" type="line"/>
      <point x="378" y="313" type="line"/>
      <point x="378" y="438" type="line"/>
      <point x="441" y="438" type="line"/>
    </contour>
  </outline>
</glyph>
<glyph name="one" format="1">
  <advance width="376"/>
  <unicode hex="0031"/>
  <outline>
    <contour>
      <point x="185" y="0" type="line"/>
      <point x="316" y="0" type="line"/>
      <point x="316" y="631" type="line"/>
      <point x="185" y="631" type="line"/>
      <point x="185" y="568" type="line"/>
      <point x="123" y="568" type="line"/>
      <point x="123" y="506" type="line"/>
      <point x="60" y="506" type="line"/>
      <point x="60" y="438" type="line"/>
      <point x="128" y="438" type="line"/>
      <point x="128" y="500" type="line"/>
      <point x="185" y="500" type="line"/>
    </contour>
  </outline>
</glyph>
<glyph name="two" format="1">
  <advance width="501"/>
  <unicode hex="0032"/>
  <outline>
    <contour>
      <point x="60" y="0" type="line"/>
      <point x="441" y="0" type="line"/>
      <point x="441" y="68" type="line"/>
      <point x="191" y="68" type="line"/>
      <point x="191" y="188" type="line"/>
      <point x="253" y="188" type="line"/>
      <point x="253" y="250" type="line"/>
      <point x="316" y="250" type="line"/>
      <point x="316" y="313" type="line"/>
      <point x="378" y="313" type="line"/>
      <point x="378" y="375" type="line"/>
      <point x="441" y="375" type="line"/>
      <point x="441" y="568" type="line"/>
      <point x="378" y="568" type="line"/>
      <point x="378" y="631" type="line"/>
      <point x="123" y="631" type="line"/>
      <point x="123" y="568" type="line"/>
      <point x="60" y="568" type="line"/>
      <point x="60" y="438" type="line"/>
      <point x="191" y="438" type="line"/>
      <point x="191" y="563" type="line"/>
      <point x="310" y="563" type="line"/>
      <point x="310" y="381" type="line"/>
      <point x="248" y="381" type="line"/>
      <point x="248" y="318" type="line"/>
      <point x="185" y="318" type="line"/>
      <point x="185" y="256" type="line"/>
      <point x="123" y="256" type="line"/>
      <point x="123" y="193" type="line"/>
      <point x="60" y="193" type="line"/>
    </contour>
  </outline>
</glyph>
<glyph name="four" format="1">
  <advance width="563"/>
  <unicode hex="0034"/>
  <outline>
    <contour>
      <point x="441" y="125" type="line"/>
      <point x="503" y="125" type="line"/>
      <point x="503" y="193" type="line"/>
      <point x="441" y="193" type="line"/>
      <point x="441" y="631" type="line"/>
      <point x="248" y="631" type="line"/>
      <point x="248" y="506" type="line"/>
      <point x="185" y="506" type="line"/>
      <point x="185" y="381" type="line"/>
      <point x="123" y="381" type="line"/>
      <point x="123" y="256" type="line"/>
      <point x="60" y="256" type="line"/>
      <point x="60" y="125" type="line"/>
      <point x="310" y="125" type="line"/>
      <point x="310" y="0" type="line"/>
      <point x="441" y="0" type="line"/>
    </contour>
    <contour>
      <point x="310" y="500" type="line"/>
      <point x="310" y="193" type="line"/>
      <point x="128" y="193" type="line"/>
      <point x="128" y="250" type="line"/>
      <point x="191" y="250" type="line"/>
      <point x="191" y="375" type="line"/>
      <point x="253" y="375" type="line"/>
      <point x="253" y="500" type="line"/>
    </contour>
  </outline>
</glyph>
<glyph name="five" format="1">
  <advance width="501"/>
  <unicode hex="0035"/>
  <outline>
    <contour>
      <point x="378" y="63" type="line"/>
      <point x="441" y="63" type="line"/>
      <point x="441" y="381" type="line"/>
      <point x="378" y="381" type="line"/>
      <point x="378" y="443" type="line"/>
      <point x="191" y="443" type="line"/>
      <point x="191" y="563" type="line"/>
      <point x="441" y="563" type="line"/>
      <point x="441" y="631" type="line"/>
      <point x="123" y="631" type="line"/>
      <point x="123" y="568" type="line"/>
      <point x="60" y="568" type="line"/>
      <point x="60" y="375" type="line"/>
      <point x="310" y="375" type="line"/>
      <point x="310" y="68" type="line"/>
      <point x="191" y="68" type="line"/>
      <point x="191" y="193" type="line"/>
      <point x="60" y="193" type="line"/>
      <point x="60" y="63" type="line"/>
      <point x="123" y="63" type="line"/>
      <point x="123" y="0" type="line"/>
      <point x="378" y="0" type="line"/>
    </contour>
  </outline>
</glyph>
<glyph name="seven" format="1">
  <advance width="501"/>
  <unicode hex="0037"/>
  <outline>
    <contour>
      <point x="378" y="438" type="line"/>
      <point x="441" y="438" type="line"/>
      <point x="441" y="631" type="line"/>
      <point x="60" y="631" type="line"/>
      <point x="60" y="563" type="line"/>
      <point x="310" y="563" type="line"/>
      <point x="310" y="443" type="line"/>
      <point x="248" y="443" type="line"/>
      <point x="248" y="318" type="line"/>
      <point x="185" y="318" type="line"/>
      <point x="185" y="193" type="line"/>
      <point x="123" y="193" type="line"/>
      <point x="123" y="0" type="line"/>
      <point x="253" y="0" type="line"/>
      <point x="253" y="188" type="line"/>
      <point x="316" y="188" type="line"/>
      <point x="316" y="313" type="line"/>
      <point x="378" y="313" type="line"/>
    </contour>
  </outline>
</glyph>
<glyph name="colon" format="1">
  <advance width="251"/>
  <unicode hex="003A"/>
  <outline>
    <contour>
      <point x="60" y="438" type="line"/>
      <point x="191" y="438" type="line"/>
      <point x="191" y="568" type="line"/>
      <point x="60" y="568" type="line"/>
    </contour>
    <contour>
      <point x="60" y="0" type="line"/>
      <point x="191" y="0" type="line"/>
      <point x="191" y="131" type="line"/>
      <point x="60" y="131" type="line"/>
    </contour>
  </outline>
</glyph>
<glyph name="semicolon" format="1">
  <advance width="251"/>
  <unicode hex="003B"/>
  <outline>
    <contour>
      <point x="60" y="438" type="line"/>
      <point x="191" y="438" type="line"/>
      <point x="191" y="568" type="line"/>
      <point x="60" y="568" type="line"/>
    </contour>
    <contour>
      <point x="128" y="-125" type="line"/>
      <point x="191" y="-125" type="line"/>
      <point x="191" y="131" type="line"/>
      <point x="60" y="131" type="line"/>
      <point x="60" y="0" type="line"/>
      <point x="123" y="0" type="line"/>
      <point x="123" y="-119" type="line"/>
      <point x="60" y="-119" type="line"/>
      <point x="60" y="-187" type="line"/>
      <point x="128" y="-187" type="line"/>
    </contour>
  </outline>
</glyph>
<glyph name="equal" format="1">
  <advance width="563"/>
  <unicode hex="003D"/>
  <outline>
    <contour>
      <point x="60" y="375" type="line"/>
      <point x="503" y="375" type="line"/>
      <point x="503" y="443" type="line"/>
      <point x="60" y="443" type="line"/>
    </contour>
    <contour>
      <point x="60" y="125" type="line"/>
      <point x="503" y="125" type="line"/>
      <point x="503" y="193" type="line"/>
      <point x="60" y="193" type="line"/>
    </contour>
  </outline>
</glyph>
<glyph name="greater" format="1">
  <advance width="563"/>
  <unicode hex="003E"/>
  <outline>
    <contour>
      <point x="441" y="250" type="line"/>
      <point x="503" y="250" type="line"/>
      <point x="503" y="318" type="line"/>
      <point x="441" y="318" type="line"/>
      <point x="441" y="381" type="line"/>
      <point x="378" y="381" type="line"/>
      <point x="378" y="443" type="line"/>
      <point x="316" y="443" type="line"/>
      <point x="316" y="506" type="line"/>
      <point x="253" y="506" type="line"/>
      <point x="253" y="568" type="line"/>
      <point x="191" y="568" type="line"/>
      <point x="191" y="631" type="line"/>
      <point x="60" y="631" type="line"/>
      <point x="60" y="563" type="line"/>
      <point x="123" y="563" type="line"/>
      <point x="123" y="500" type="line"/>
      <point x="185" y="500" type="line"/>
      <point x="185" y="438" type="line"/>
      <point x="248" y="438" type="line"/>
      <point x="248" y="375" type="line"/>
      <point x="310" y="375" type="line"/>
      <point x="310" y="313" type="line"/>
      <point x="373" y="313" type="line"/>
      <point x="373" y="256" type="line"/>
      <point x="310" y="256" type="line"/>
      <point x="310" y="193" type="line"/>
      <point x="248" y="193" type="line"/>
      <point x="248" y="131" type="line"/>
      <point x="185" y="131" type="line"/>
      <point x="185" y="68" type="line"/>
      <point x="123" y="68" type="line"/>
      <point x="123" y="6" type="line"/>
      <point x="60" y="6" type="line"/>
      <point x="60" y="-62" type="line"/>
      <point x="191" y="-62" type="line"/>
      <point x="191" y="0" type="line"/>
      <point x="253" y="0" type="line"/>
      <point x="253" y="63" type="line"/>
      <point x="316" y="63" type="line"/>
      <point x="316" y="125" type="line"/>
      <point x="378" y="125" type="line"/>
      <point x="378" y="188" type="line"/>
      <point x="441" y="188" type="line"/>
    </contour>
  </outline>
</glyph>
<glyph name="question" format="1">
  <advance width="501"/>
  <unicode hex="003F"/>
  <outline>
    <contour>
      <point x="378" y="375" type="line"/>
      <point x="441" y="375" type="line"/>
      <point x="441" y="631" type="line"/>
      <point x="378" y="631" type="line"/>
      <point x="378" y="693" type="line"/>
      <point x="123" y="693" type="line"/>
      <point x="123" y="631" type="line"/>
      <point x="60" y="631" type="line"/>
      <point x="60" y="563" type="line"/>
      <point x="128" y="563" type="line"/>
      <point x="128" y="625" type="line"/>
      <point x="310" y="625" type="line"/>
      <point x="310" y="381" type="line"/>
      <point x="248" y="381" type="line"/>
      <point x="248" y="318" type="line"/>
      <point x="123" y="318" type="line"/>
      <point x="123" y="188" type="line"/>
      <point x="253" y="188" type="line"/>
      <point x="253" y="313" type="line"/>
      <point x="378" y="313" type="line"/>
    </contour>
    <contour>
      <point x="123" y="0" type="line"/>
      <point x="253" y="0" type="line"/>
      <point x="253" y="131" type="line"/>
      <point x="123" y="131" type="line"/>
    </contour>
  </outline>
</glyph>
<glyph name="at" format="1">
  <advance width="751"/>
  <unicode hex="0040"/>
  <outline>
    <contour>
      <point x="628" y="125" type="line"/>
      <point x="691" y="125" type="line"/>
      <point x="691" y="443" type="line"/>
      <point x="628" y="443" type="line"/>
      <point x="628" y="506" type="line"/>
      <point x="566" y="506" type="line"/>
      <point x="566" y="568" type="line"/>
      <point x="503" y="568" type="line"/>
      <point x="503" y="631" type="line"/>
      <point x="248" y="631" type="line"/>
      <point x="248" y="568" type="line"/>
      <point x="185" y="568" type="line"/>
      <point x="185" y="506" type="line"/>
      <point x="123" y="506" type="line"/>
      <point x="123" y="443" type="line"/>
      <point x="60" y="443" type="line"/>
      <point x="60" y="125" type="line"/>
      <point x="123" y="125" type="line"/>
      <point x="123" y="63" type="line"/>
      <point x="185" y="63" type="line"/>
      <point x="185" y="0" type="line"/>
      <point x="248" y="0" type="line"/>
      <point x="248" y="-62" type="line"/>
      <point x="566" y="-62" type="line"/>
      <point x="566" y="6" type="line"/>
      <point x="253" y="6" type="line"/>
      <point x="253" y="68" type="line"/>
      <point x="191" y="68" type="line"/>
      <point x="191" y="131" type="line"/>
      <point x="128" y="131" type="line"/>
      <point x="128" y="438" type="line"/>
      <point x="191" y="438" type="line"/>
      <point x="191" y="500" type="line"/>
      <point x="253" y="500" type="line"/>
      <point x="253" y="563" type="line"/>
      <point x="498" y="563" type="line"/>
      <point x="498" y="500" type="line"/>
      <point x="560" y="500" type="line"/>
      <point x="560" y="438" type="line"/>
      <point x="623" y="438" type="line"/>
      <point x="623" y="131" type="line"/>
      <point x="503" y="131" type="line"/>
      <point x="503" y="381" type="line"/>
      <point x="441" y="381" type="line"/>
      <point x="441" y="443" type="line"/>
      <point x="248" y="443" type="line"/>
      <point x="248" y="375" type="line"/>
      <point x="435" y="375" type="line"/>
      <point x="435" y="318" type="line"/>
      <point x="310" y="318" type="line"/>
      <point x="310" y="256" type="line"/>
      <point x="248" y="256" type="line"/>
      <point x="248" y="125" type="line"/>
      <point x="310" y="125" type="line"/>
      <point x="310" y="63" type="line"/>
      <point x="441" y="63" type="line"/>
      <point x="441" y="125" type="line"/>
      <point x="498" y="125" type="line"/>
      <point x="498" y="63" type="line"/>
      <point x="628" y="63" type="line"/>
    </contour>
    <contour>
      <point x="435" y="250" type="line"/>
      <point x="435" y="131" type="line"/>
      <point x="316" y="131" type="line"/>
      <point x="316" y="250" type="line"/>
    </contour>
  </outline>
</glyph>
<glyph name="A" format="1">
  <advance width="563"/>
  <unicode hex="0041"/>
  <outline>
    <contour>
      <point x="373" y="0" type="line"/>
      <point x="503" y="0" type="line"/>
      <point x="503" y="631" type="line"/>
      <point x="441" y="631" type="line"/>
      <point x="441" y="693" type="line"/>
      <point x="123" y="693" type="line"/>
      <point x="123" y="631" type="line"/>
      <point x="60" y="631" type="line"/>
      <point x="60" y="0" type="line"/>
      <point x="191" y="0" type="line"/>
      <point x="191" y="313" type="line"/>
      <point x="373" y="313" type="line"/>
    </contour>
    <contour>
      <point x="373" y="625" type="line"/>
      <point x="373" y="381" type="line"/>
      <point x="191" y="381" type="line"/>
      <point x="191" y="625" type="line"/>
    </contour>
  </outline>
</glyph>
<glyph name="C" format="1">
  <advance width="563"/>
  <unicode hex="0043"/>
  <outline>
    <contour>
      <point x="441" y="63" type="line"/>
      <point x="503" y="63" type="line"/>
      <point x="503" y="193" type="line"/>
      <point x="373" y="193" type="line"/>
      <point x="373" y="68" type="line"/>
      <point x="191" y="68" type="line"/>
      <point x="191" y="625" type="line"/>
      <point x="373" y="625" type="line"/>
      <point x="373" y="500" type="line"/>
      <point x="503" y="500" type="line"/>
      <point x="503" y="631" type="line"/>
      <point x="441" y="631" type="line"/>
      <point x="441" y="693" type="line"/>
      <point x="123" y="693" type="line"/>
      <point x="123" y="631" type="line"/>
      <point x="60" y="631" type="line"/>
      <point x="60" y="63" type="line"/>
      <point x="123" y="63" type="line"/>
      <point x="123" y="0" type="line"/>
      <point x="441" y="0" type="line"/>
    </contour>
  </outline>
</glyph>
<glyph name="D" format="1">
  <advance width="626"/>
  <unicode hex="0044"/>
  <outline>
    <contour>
      <point x="503" y="125" type="line"/>
      <point x="566" y="125" type="line"/>
      <point x="566" y="568" type="line"/>
      <point x="503" y="568" type="line"/>
      <point x="503" y="631" type="line"/>
      <point x="441" y="631" type="line"/>
      <point x="441" y="693" type="line"/>
      <point x="60" y="693" type="line"/>
      <point x="60" y="0" type="line"/>
      <point x="441" y="0" type="line"/>
      <point x="441" y="63" type="line"/>
      <point x="503" y="63" type="line"/>
    </contour>
    <contour>
      <point x="435" y="625" type="line"/>
      <point x="435" y="68" type="line"/>
      <point x="191" y="68" type="line"/>
      <point x="191" y="625" type="line"/>
    </contour>
  </outline>
</glyph>
<glyph name="G" format="1">
  <advance width="626"/>
  <unicode hex="0047"/>
  <outline>
    <contour>
      <point x="498" y="0" type="line"/>
      <point x="566" y="0" type="line"/>
      <point x="566" y="381" type="line"/>
      <point x="373" y="381" type="line"/>
      <point x="373" y="313" type="line"/>
      <point x="435" y="313" type="line"/>
      <point x="435" y="68" type="line"/>
      <point x="191" y="68" type="line"/>
      <point x="191" y="625" type="line"/>
      <point x="435" y="625" type="line"/>
      <point x="435" y="500" type="line"/>
      <point x="566" y="500" type="line"/>
      <point x="566" y="631" type="line"/>
      <point x="503" y="631" type="line"/>
      <point x="503" y="693" type="line"/>
      <point x="123" y="693" type="line"/>
      <point x="123" y="631" type="line"/>
      <point x="60" y="631" type="line"/>
      <point x="60" y="63" type="line"/>
      <point x="123" y="63" type="line"/>
      <point x="123" y="0" type="line"/>
      <point x="441" y="0" type="line"/>
      <point x="441" y="63" type="line"/>
      <point x="498" y="63" type="line"/>
    </contour>
  </outline>
</glyph>
<glyph name="H" format="1">
  <advance width="626"/>
  <unicode hex="0048"/>
  <outline>
    <contour>
      <point x="435" y="0" type="line"/>
      <point x="566" y="0" type="line"/>
      <point x="566" y="693" type="line"/>
      <point x="435" y="693" type="line"/>
      <point x="435" y="381" type="line"/>
      <point x="191" y="381" type="line"/>
      <point x="191" y="693" type="line"/>
      <point x="60" y="693" type="line"/>
      <point x="60" y="0" type="line"/>
      <point x="191" y="0" type="line"/>
      <point x="191" y="313" type="line"/>
      <point x="435" y="313" type="line"/>
    </contour>
  </outline>
</glyph>
<glyph name="J" format="1">
  <advance width="501"/>
  <unicode hex="004A"/>
  <outline>
    <contour>
      <point x="378" y="63" type="line"/>
      <point x="441" y="63" type="line"/>
      <point x="441" y="693" type="line"/>
      <point x="310" y="693" type="line"/>
      <point x="310" y="68" type="line"/>
      <point x="191" y="68" type="line"/>
      <point x="191" y="256" type="line"/>
      <point x="60" y="256" type="line"/>
      <point x="60" y="63" type="line"/>
      <point x="123" y="63" type="line"/>
      <point x="123" y="0" type="line"/>
      <point x="378" y="0" type="line"/>
    </contour>
  </outline>
</glyph>
<glyph name="K" format="1">
  <advance width="626"/>
  <unicode hex="004B"/>
  <outline>
    <contour>
      <point x="373" y="0" type="line"/>
      <point x="566" y="0" type="line"/>
      <point x="566" y="68" type="line"/>
      <point x="503" y="68" type="line"/>
      <point x="503" y="318" type="line"/>
      <point x="378" y="318" type="line"/>
      <point x="378" y="375" type="line"/>
      <point x="441" y="375" type="line"/>
      <point x="441" y="438" type="line"/>
      <point x="503" y="438" type="line"/>
      <point x="503" y="693" type="line"/>
      <point x="373" y="693" type="line"/>
      <point x="373" y="381" type="line"/>
      <point x="191" y="381" type="line"/>
      <point x="191" y="693" type="line"/>
      <point x="60" y="693" type="line"/>
      <point x="60" y="0" type="line"/>
      <point x="191" y="0" type="line"/>
      <point x="191" y="313" type="line"/>
      <point x="373" y="313" type="line"/>
    </contour>
  </outline>
</glyph>
<glyph name="L" format="1">
  <advance width="501"/>
  <unicode hex="004C"/>
  <outline>
    <contour>
      <point x="60" y="0" type="line"/>
      <point x="441" y="0" type="line"/>
      <point x="441" y="68" type="line"/>
      <point x="191" y="68" type="line"/>
      <point x="191" y="693" type="line"/>
      <point x="60" y="693" type="line"/>
    </contour>
  </outline>
</glyph>
<glyph name="M" format="1">
  <advance width="813"/>
  <unicode hex="004D"/>
  <outline>
    <contour>
      <point x="623" y="0" type="line"/>
      <point x="753" y="0" type="line"/>
      <point x="753" y="693" type="line"/>
      <point x="623" y="693" type="line"/>
      <point x="623" y="631" type="line"/>
      <point x="560" y="631" type="line"/>
      <point x="560" y="568" type="line"/>
      <point x="498" y="568" type="line"/>
      <point x="498" y="506" type="line"/>
      <point x="435" y="506" type="line"/>
      <point x="435" y="443" type="line"/>
      <point x="378" y="443" type="line"/>
      <point x="378" y="506" type="line"/>
      <point x="316" y="506" type="line"/>
      <point x="316" y="568" type="line"/>
      <point x="253" y="568" type="line"/>
      <point x="253" y="631" type="line"/>
      <point x="191" y="631" type="line"/>
      <point x="191" y="693" type="line"/>
      <point x="60" y="693" type="line"/>
      <point x="60" y="0" type="line"/>
      <point x="191" y="0" type="line"/>
      <point x="191" y="500" type="line"/>
      <point x="248" y="500" type="line"/>
      <point x="248" y="438" type="line"/>
      <point x="310" y="438" type="line"/>
      <point x="310" y="375" type="line"/>
      <point x="373" y="375" type="line"/>
      <point x="373" y="313" type="line"/>
      <point x="441" y="313" type="line"/>
      <point x="441" y="375" type="line"/>
      <point x="503" y="375" type="line"/>
      <point x="503" y="438" type="line"/>
      <point x="566" y="438" type="line"/>
      <point x="566" y="500" type="line"/>
      <point x="623" y="500" type="line"/>
    </contour>
  </outline>
</glyph>
<glyph name="N" format="1">
  <advance width="688"/>
  <unicode hex="004E"/>
  <outline>
    <contour>
      <point x="435" y="0" type="line"/>
      <point x="628" y="0" type="line"/>
      <point x="628" y="693" type="line"/>
      <point x="498" y="693" type="line"/>
      <point x="498" y="193" type="line"/>
      <point x="441" y="193" type="line"/>
      <point x="441" y="318" type="line"/>
      <point x="378" y="318" type="line"/>
      <point x="378" y="443" type="line"/>
      <point x="316" y="443" type="line"/>
      <point x="316" y="568" type="line"/>
      <point x="253" y="568" type="line"/>
      <point x="253" y="693" type="line"/>
      <point x="60" y="693" type="line"/>
      <point x="60" y="0" type="line"/>
      <point x="191" y="0" type="line"/>
      <point x="191" y="500" type="line"/>
      <point x="248" y="500" type="line"/>
      <point x="248" y="375" type="line"/>
      <point x="310" y="375" type="line"/>
      <point x="310" y="250" type="line"/>
      <point x="373" y="250" type="line"/>
      <point x="373" y="125" type="line"/>
      <point x="435" y="125" type="line"/>
    </contour>
  </outline>
</glyph>
<glyph name="O" format="1">
  <advance width="626"/>
  <unicode hex="004F"/>
  <outline>
    <contour>
      <point x="503" y="63" type="line"/>
      <point x="566" y="63" type="line"/>
      <point x="566" y="631" type="line"/>
      <point x="503" y="631" type="line"/>
      <point x="503" y="693" type="line"/>
      <point x="123" y="693" type="line"/>
      <point x="123" y="631" type="line"/>
      <point x="60" y="631" type="line"/>
      <point x="60" y="63" type="line"/>
      <point x="123" y="63" type="line"/>
      <point x="123" y="0" type="line"/>
      <point x="503" y="0" type="line"/>
    </contour>
    <contour>
      <point x="435" y="625" type="line"/>
      <point x="435" y="68" type="line"/>
      <point x="191" y="68" type="line"/>
      <point x="191" y="625" type="line"/>
    </contour>
  </outline>
</glyph>
<glyph name="P" format="1">
  <advance width="563"/>
  <unicode hex="0050"/>
  <outline>
    <contour>
      <point x="441" y="313" type="line"/>
      <point x="503" y="313" type="line"/>
      <point x="503" y="631" type="line"/>
      <point x="441" y="631" type="line"/>
      <point x="441" y="693" type="line"/>
      <point x="60" y="693" type="line"/>
      <point x="60" y="0" type="line"/>
      <point x="191" y="0" type="line"/>
      <point x="191" y="250" type="line"/>
      <point x="441" y="250" type="line"/>
    </contour>
    <contour>
      <point x="373" y="625" type="line"/>
      <point x="373" y="318" type="line"/>
      <point x="191" y="318" type="line"/>
      <point x="191" y="625" type="line"/>
    </contour>
  </outline>
</glyph>
<glyph name="Q" format="1">
  <advance width="626"/>
  <unicode hex="0051"/>
  <outline>
    <contour>
      <point x="503" y="63" type="line"/>
      <point x="566" y="63" type="line"/>
      <point x="566" y="631" type="line"/>
      <point x="503" y="631" type="line"/>
      <point x="503" y="693" type="line"/>
      <point x="123" y="693" type="line"/>
      <point x="123" y="631" type="line"/>
      <point x="60" y="631" type="line"/>
      <point x="60" y="63" type="line"/>
      <point x="123" y="63" type="line"/>
      <point x="123" y="0" type="line"/>
      <point x="310" y="0" type="line"/>
      <point x="310" y="-62" type="line"/>
      <point x="373" y="-62" type="line"/>
      <point x="373" y="-125" type="line"/>
      <point x="435" y="-125" type="line"/>
      <point x="435" y="-187" type="line"/>
      <point x="503" y="-187" type="line"/>
      <point x="503" y="-119" type="line"/>
      <point x="441" y="-119" type="line"/>
      <point x="441" y="-57" type="line"/>
      <point x="378" y="-57" type="line"/>
      <point x="378" y="0" type="line"/>
      <point x="503" y="0" type="line"/>
    </contour>
    <contour>
      <point x="435" y="625" type="line"/>
      <point x="435" y="68" type="line"/>
      <point x="191" y="68" type="line"/>
      <point x="191" y="625" type="line"/>
    </contour>
  </outline>
</glyph>
<glyph name="R" format="1">
  <advance width="626"/>
  <unicode hex="0052"/>
  <outline>
    <contour>
      <point x="373" y="0" type="line"/>
      <point x="566" y="0" type="line"/>
      <point x="566" y="68" type="line"/>
      <point x="503" y="68" type="line"/>
      <point x="503" y="318" type="line"/>
      <point x="441" y="318" type="line"/>
      <point x="441" y="375" type="line"/>
      <point x="503" y="375" type="line"/>
      <point x="503" y="631" type="line"/>
      <point x="441" y="631" type="line"/>
      <point x="441" y="693" type="line"/>
      <point x="60" y="693" type="line"/>
      <point x="60" y="0" type="line"/>
      <point x="191" y="0" type="line"/>
      <point x="191" y="313" type="line"/>
      <point x="373" y="313" type="line"/>
      <point x="373" y="65" type="line"/>
    </contour>
    <contour>
      <point x="373" y="625" type="line"/>
      <point x="373" y="381" type="line"/>
      <point x="191" y="381" type="line"/>
      <point x="191" y="625" type="line"/>
    </contour>
  </outline>
</glyph>
<glyph name="T" format="1">
  <advance width="625"/>
  <unicode hex="0054"/>
  <outline>
    <contour>
      <point x="378" y="625" type="line"/>
      <point x="565" y="625" type="line"/>
      <point x="565" y="693" type="line"/>
      <point x="60" y="693" type="line"/>
      <point x="60" y="625" type="line"/>
      <point x="247" y="625" type="line"/>
      <point x="247" y="0" type="line"/>
      <point x="378" y="0" type="line"/>
    </contour>
  </outline>
</glyph>
<glyph name="U" format="1">
  <advance width="563"/>
  <unicode hex="0055"/>
  <outline>
    <contour>
      <point x="435" y="0" type="line"/>
      <point x="503" y="0" type="line"/>
      <point x="503" y="693" type="line"/>
      <point x="373" y="693" type="line"/>
      <point x="373" y="131" type="line"/>
      <point x="310" y="131" type="line"/>
      <point x="310" y="68" type="line"/>
      <point x="191" y="68" type="line"/>
      <point x="191" y="693" type="line"/>
      <point x="60" y="693" type="line"/>
      <point x="60" y="63" type="line"/>
      <point x="123" y="63" type="line"/>
      <point x="123" y="0" type="line"/>
      <point x="316" y="0" type="line"/>
      <point x="316" y="63" type="line"/>
      <point x="435" y="63" type="line"/>
    </contour>
  </outline>
</glyph>
<glyph name="V" format="1">
  <advance width="688"/>
  <unicode hex="0056"/>
  <outline>
    <contour>
      <point x="628" y="500" type="line"/>
      <point x="628" y="693" type="line"/>
      <point x="498" y="693" type="line"/>
      <point x="498" y="506" type="line"/>
      <point x="435" y="506" type="line"/>
      <point x="435" y="318" type="line"/>
      <point x="373" y="318" type="line"/>
      <point x="373" y="131" type="line"/>
      <point x="316" y="131" type="line"/>
      <point x="316" y="318" type="line"/>
      <point x="253" y="318" type="line"/>
      <point x="253" y="506" type="line"/>
      <point x="191" y="506" type="line"/>
      <point x="191" y="693" type="line"/>
      <point x="60" y="693" type="line"/>
      <point x="60" y="500" type="line"/>
      <point x="123" y="500" type="line"/>
      <point x="123" y="313" type="line"/>
      <point x="185" y="313" type="line"/>
      <point x="185" y="125" type="line"/>
      <point x="248" y="125" type="line"/>
      <point x="248" y="0" type="line"/>
      <point x="441" y="0" type="line"/>
      <point x="441" y="125" type="line"/>
      <point x="503" y="125" type="line"/>
      <point x="503" y="313" type="line"/>
      <point x="566" y="313" type="line"/>
      <point x="566" y="500" type="line"/>
    </contour>
  </outline>
</glyph>
<glyph name="W" format="1">
  <advance width="876"/>
  <unicode hex="0057"/>
  <outline>
    <contour>
      <point x="816" y="125" type="line"/>
      <point x="816" y="693" type="line"/>
      <point x="685" y="693" type="line"/>
      <point x="685" y="193" type="line"/>
      <point x="623" y="193" type="line"/>
      <point x="623" y="131" type="line"/>
      <point x="566" y="131" type="line"/>
      <point x="566" y="193" type="line"/>
      <point x="503" y="193" type="line"/>
      <point x="503" y="506" type="line"/>
      <point x="373" y="506" type="line"/>
      <point x="373" y="193" type="line"/>
      <point x="310" y="193" type="line"/>
      <point x="310" y="131" type="line"/>
      <point x="253" y="131" type="line"/>
      <point x="253" y="193" type="line"/>
      <point x="191" y="193" type="line"/>
      <point x="191" y="693" type="line"/>
      <point x="60" y="693" type="line"/>
      <point x="60" y="125" type="line"/>
      <point x="123" y="125" type="line"/>
      <point x="123" y="63" type="line"/>
      <point x="185" y="63" type="line"/>
      <point x="185" y="0" type="line"/>
      <point x="316" y="0" type="line"/>
      <point x="316" y="63" type="line"/>
      <point x="378" y="63" type="line"/>
      <point x="378" y="125" type="line"/>
      <point x="498" y="125" type="line"/>
      <point x="498" y="63" type="line"/>
      <point x="560" y="63" type="line"/>
      <point x="560" y="0" type="line"/>
      <point x="691" y="0" type="line"/>
      <point x="691" y="63" type="line"/>
      <point x="753" y="63" type="line"/>
      <point x="753" y="125" type="line"/>
    </contour>
  </outline>
</glyph>
<glyph name="X" format="1">
  <advance width="626"/>
  <unicode hex="0058"/>
  <outline>
    <contour>
      <point x="566" y="0" type="line"/>
      <point x="566" y="131" type="line"/>
      <point x="503" y="131" type="line"/>
      <point x="503" y="256" type="line"/>
      <point x="441" y="256" type="line"/>
      <point x="441" y="318" type="line"/>
      <point x="378" y="318" type="line"/>
      <point x="378" y="375" type="line"/>
      <point x="441" y="375" type="line"/>
      <point x="441" y="438" type="line"/>
      <point x="503" y="438" type="line"/>
      <point x="503" y="563" type="line"/>
      <point x="566" y="563" type="line"/>
      <point x="566" y="693" type="line"/>
      <point x="435" y="693" type="line"/>
      <point x="435" y="568" type="line"/>
      <point x="373" y="568" type="line"/>
      <point x="373" y="443" type="line"/>
      <point x="253" y="443" type="line"/>
      <point x="253" y="568" type="line"/>
      <point x="191" y="568" type="line"/>
      <point x="191" y="693" type="line"/>
      <point x="60" y="693" type="line"/>
      <point x="60" y="563" type="line"/>
      <point x="123" y="563" type="line"/>
      <point x="123" y="438" type="line"/>
      <point x="185" y="438" type="line"/>
      <point x="185" y="375" type="line"/>
      <point x="248" y="375" type="line"/>
      <point x="248" y="318" type="line"/>
      <point x="185" y="318" type="line"/>
      <point x="185" y="256" type="line"/>
      <point x="123" y="256" type="line"/>
      <point x="123" y="131" type="line"/>
      <point x="60" y="131" type="line"/>
      <point x="60" y="0" type="line"/>
      <point x="191" y="0" type="line"/>
      <point x="191" y="125" type="line"/>
      <point x="253" y="125" type="line"/>
      <point x="253" y="250" type="line"/>
      <point x="373" y="250" type="line"/>
      <point x="373" y="125" type="line"/>
      <point x="435" y="125" type="line"/>
      <point x="435" y="0" type="line"/>
    </contour>
  </outline>
</glyph>
<glyph name="Y" format="1">
  <advance width="626"/>
  <unicode hex="0059"/>
  <outline>
    <contour>
      <point x="503" y="500" type="line"/>
      <point x="566" y="500" type="line"/>
      <point x="566" y="693" type="line"/>
      <point x="435" y="693" type="line"/>
      <point x="435" y="506" type="line"/>
      <point x="373" y="506" type="line"/>
      <point x="373" y="381" type="line"/>
      <point x="253" y="381" type="line"/>
      <point x="253" y="506" type="line"/>
      <point x="191" y="506" type="line"/>
      <point x="191" y="693" type="line"/>
      <point x="60" y="693" type="line"/>
      <point x="60" y="500" type="line"/>
      <point x="123" y="500" type="line"/>
      <point x="123" y="375" type="line"/>
      <point x="185" y="375" type="line"/>
      <point x="185" y="313" type="line"/>
      <point x="248" y="313" type="line"/>
      <point x="248" y="0" type="line"/>
      <point x="378" y="0" type="line"/>
      <point x="378" y="313" type="line"/>
      <point x="441" y="313" type="line"/>
      <point x="441" y="375" type="line"/>
      <point x="503" y="375" type="line"/>
    </contour>
  </outline>
</glyph>
<glyph name="Z" format="1">
  <advance width="501"/>
  <unicode hex="005A"/>
  <outline>
    <contour>
      <point x="60" y="0" type="line"/>
      <point x="441" y="0" type="line"/>
      <point x="441" y="68" type="line"/>
      <point x="191" y="68" type="line"/>
      <point x="191" y="188" type="line"/>
      <point x="253" y="188" type="line"/>
      <point x="253" y="313" type="line"/>
      <point x="316" y="313" type="line"/>
      <point x="316" y="375" type="line"/>
      <point x="378" y="375" type="line"/>
      <point x="378" y="500" type="line"/>
      <point x="441" y="500" type="line"/>
      <point x="441" y="693" type="line"/>
      <point x="60" y="693" type="line"/>
      <point x="60" y="625" type="line"/>
      <point x="310" y="625" type="line"/>
      <point x="310" y="506" type="line"/>
      <point x="248" y="506" type="line"/>
      <point x="248" y="381" type="line"/>
      <point x="185" y="381" type="line"/>
      <point x="185" y="318" type="line"/>
      <point x="123" y="318" type="line"/>
      <point x="123" y="193" type="line"/>
      <point x="60" y="193" type="line"/>
    </contour>
  </outline>
</glyph>
<glyph name="bracketleft" format="1">
  <advance width="376"/>
  <unicode hex="005B"/>
  <outline>
    <contour>
      <point x="123" y="-62" type="line"/>
      <point x="316" y="-62" type="line"/>
      <point x="316" y="6" type="line"/>
      <point x="191" y="6" type="line"/>
      <point x="191" y="688" type="line"/>
      <point x="316" y="688" type="line"/>
      <point x="316" y="756" type="line"/>
      <point x="123" y="756" type="line"/>
      <point x="123" y="693" type="line"/>
      <point x="60" y="693" type="line"/>
      <point x="60" y="0" type="line"/>
      <point x="123" y="0" type="line"/>
    </contour>
  </outline>
</glyph>
<glyph name="backslash" format="1">
  <advance width="563"/>
  <unicode hex="005C"/>
  <outline>
    <contour>
      <point x="373" y="-62" type="line"/>
      <point x="503" y="-62" type="line"/>
      <point x="503" y="68" type="line"/>
      <point x="441" y="68" type="line"/>
      <point x="441" y="193" type="line"/>
      <point x="378" y="193" type="line"/>
      <point x="378" y="318" type="line"/>
      <point x="316" y="318" type="line"/>
      <point x="316" y="443" type="line"/>
      <point x="253" y="443" type="line"/>
      <point x="253" y="568" type="line"/>
      <point x="191" y="568" type="line"/>
      <point x="191" y="693" type="line"/>
      <point x="60" y="693" type="line"/>
      <point x="60" y="563" type="line"/>
      <point x="123" y="563" type="line"/>
      <point x="123" y="438" type="line"/>
      <point x="185" y="438" type="line"/>
      <point x="185" y="313" type="line"/>
      <point x="248" y="313" type="line"/>
      <point x="248" y="188" type="line"/>
      <point x="310" y="188" type="line"/>
      <point x="310" y="63" type="line"/>
      <point x="373" y="63" type="line"/>
    </contour>
  </outline>
</glyph>
<glyph name="bracketright" format="1">
  <advance width="376"/>
  <unicode hex="005D"/>
  <outline>
    <contour>
      <point x="253" y="0" type="line"/>
      <point x="316" y="0" type="line"/>
      <point x="316" y="693" type="line"/>
      <point x="253" y="693" type="line"/>
      <point x="253" y="756" type="line"/>
      <point x="60" y="756" type="line"/>
      <point x="60" y="688" type="line"/>
      <point x="185" y="688" type="line"/>
      <point x="185" y="6" type="line"/>
      <point x="60" y="6" type="line"/>
      <point x="60" y="-62" type="line"/>
      <point x="253" y="-62" type="line"/>
    </contour>
  </outline>
</glyph>
<glyph name="asciicircum" format="1">
  <advance width="688"/>
  <unicode hex="005E"/>
  <outline>
    <contour>
      <point x="560" y="0" type="line"/>
      <point x="628" y="0" type="line"/>
      <point x="628" y="131" type="line"/>
      <point x="566" y="131" type="line"/>
      <point x="566" y="256" type="line"/>
      <point x="503" y="256" type="line"/>
      <point x="503" y="381" type="line"/>
      <point x="441" y="381" type="line"/>
      <point x="441" y="506" type="line"/>
      <point x="378" y="506" type="line"/>
      <point x="378" y="631" type="line"/>
      <point x="310" y="631" type="line"/>
      <point x="310" y="506" type="line"/>
      <point x="248" y="506" type="line"/>
      <point x="248" y="381" type="line"/>
      <point x="185" y="381" type="line"/>
      <point x="185" y="256" type="line"/>
      <point x="123" y="256" type="line"/>
      <point x="123" y="131" type="line"/>
      <point x="60" y="131" type="line"/>
      <point x="60" y="0" type="line"/>
      <point x="128" y="0" type="line"/>
      <point x="128" y="125" type="line"/>
      <point x="191" y="125" type="line"/>
      <point x="191" y="250" type="line"/>
      <point x="253" y="250" type="line"/>
      <point x="253" y="375" type="line"/>
      <point x="316" y="375" type="line"/>
      <point x="316" y="500" type="line"/>
      <point x="373" y="500" type="line"/>
      <point x="373" y="375" type="line"/>
      <point x="435" y="375" type="line"/>
      <point x="435" y="250" type="line"/>
      <point x="498" y="250" type="line"/>
      <point x="498" y="125" type="line"/>
      <point x="560" y="125" type="line"/>
    </contour>
  </outline>
</glyph>
<glyph name="grave" format="1">
  <advance width="251"/>
  <unicode hex="0060"/>
  <outline>
    <contour>
      <point x="123" y="625" type="line"/>
      <point x="191" y="625" type="line"/>
      <point x="191" y="693" type="line"/>
      <point x="128" y="693" type="line"/>
      <point x="128" y="756" type="line"/>
      <point x="60" y="756" type="line"/>
      <point x="60" y="688" type="line"/>
      <point x="123" y="688" type="line"/>
    </contour>
  </outline>
</glyph>
<glyph name="b" format="1">
  <advance width="501"/>
  <unicode hex="0062"/>
  <outline>
    <contour>
      <point x="378" y="63" type="line"/>
      <point x="441" y="63" type="line"/>
      <point x="441" y="506" type="line"/>
      <point x="378" y="506" type="line"/>
      <point x="378" y="568" type="line"/>
      <point x="191" y="568" type="line"/>
      <point x="191" y="756" type="line"/>
      <point x="60" y="756" type="line"/>
      <point x="60" y="0" type="line"/>
      <point x="128" y="0" type="line"/>
      <point x="128" y="63" type="line"/>
      <point x="185" y="63" type="line"/>
      <point x="185" y="0" type="line"/>
      <point x="378" y="0" type="line"/>
    </contour>
    <contour>
      <point x="310" y="500" type="line"/>
      <point x="310" y="68" type="line"/>
      <point x="191" y="68" type="line"/>
      <point x="191" y="500" type="line"/>
    </contour>
  </outline>
</glyph>
<glyph name="e" format="1">
  <advance width="501"/>
  <unicode hex="0065"/>
  <outline>
    <contour>
      <point x="378" y="63" type="line"/>
      <point x="441" y="63" type="line"/>
      <point x="441" y="193" type="line"/>
      <point x="310" y="193" type="line"/>
      <point x="310" y="68" type="line"/>
      <point x="191" y="68" type="line"/>
      <point x="191" y="250" type="line"/>
      <point x="378" y="250" type="line"/>
      <point x="378" y="313" type="line"/>
      <point x="441" y="313" type="line"/>
      <point x="441" y="506" type="line"/>
      <point x="378" y="506" type="line"/>
      <point x="378" y="568" type="line"/>
      <point x="123" y="568" type="line"/>
      <point x="123" y="506" type="line"/>
      <point x="60" y="506" type="line"/>
      <point x="60" y="63" type="line"/>
      <point x="123" y="63" type="line"/>
      <point x="123" y="0" type="line"/>
      <point x="378" y="0" type="line"/>
    </contour>
    <contour>
      <point x="310" y="500" type="line"/>
      <point x="310" y="318" type="line"/>
      <point x="191" y="318" type="line"/>
      <point x="191" y="500" type="line"/>
    </contour>
  </outline>
</glyph>
<glyph name="f" format="1">
  <advance width="316"/>
  <unicode hex="0066"/>
  <outline>
    <contour>
      <point x="191" y="500" type="line"/>
      <point x="316" y="500" type="line"/>
      <point x="316" y="568" type="line"/>
      <point x="191" y="568" type="line"/>
      <point x="191" y="688" type="line"/>
      <point x="316" y="688" type="line"/>
      <point x="316" y="756" type="line"/>
      <point x="123" y="756" type="line"/>
      <point x="123" y="693" type="line"/>
      <point x="60" y="693" type="line"/>
      <point x="60" y="568" type="line"/>
      <point x="-2" y="568" type="line"/>
      <point x="-2" y="500" type="line"/>
      <point x="60" y="500" type="line"/>
      <point x="60" y="0" type="line"/>
      <point x="191" y="0" type="line"/>
    </contour>
  </outline>
</glyph>
<glyph name="g" format="1">
  <advance width="501"/>
  <unicode hex="0067"/>
  <outline>
    <contour>
      <point x="316" y="-125" type="line"/>
      <point x="441" y="-125" type="line"/>
      <point x="441" y="506" type="line"/>
      <point x="378" y="506" type="line"/>
      <point x="378" y="568" type="line"/>
      <point x="123" y="568" type="line"/>
      <point x="123" y="506" type="line"/>
      <point x="60" y="506" type="line"/>
      <point x="60" y="63" type="line"/>
      <point x="123" y="63" type="line"/>
      <point x="123" y="0" type="line"/>
      <point x="310" y="0" type="line"/>
      <point x="310" y="-119" type="line"/>
      <point x="191" y="-119" type="line"/>
      <point x="191" y="-57" type="line"/>
      <point x="60" y="-57" type="line"/>
      <point x="60" y="-125" type="line"/>
      <point x="123" y="-125" type="line"/>
      <point x="123" y="-187" type="line"/>
      <point x="316" y="-187" type="line"/>
    </contour>
    <contour>
      <point x="310" y="500" type="line"/>
      <point x="310" y="68" type="line"/>
      <point x="191" y="68" type="line"/>
      <point x="191" y="500" type="line"/>
    </contour>
  </outline>
</glyph>
<glyph name="h" format="1">
  <advance width="501"/>
  <unicode hex="0068"/>
  <outline>
    <contour>
      <point x="310" y="0" type="line"/>
      <point x="441" y="0" type="line"/>
      <point x="441" y="506" type="line"/>
      <point x="378" y="506" type="line"/>
      <point x="378" y="568" type="line"/>
      <point x="248" y="568" type="line"/>
      <point x="248" y="506" type="line"/>
      <point x="191" y="506" type="line"/>
      <point x="191" y="756" type="line"/>
      <point x="60" y="756" type="line"/>
      <point x="60" y="0" type="line"/>
      <point x="191" y="0" type="line"/>
      <point x="191" y="438" type="line"/>
      <point x="253" y="438" type="line"/>
      <point x="253" y="500" type="line"/>
      <point x="310" y="500" type="line"/>
    </contour>
  </outline>
</glyph>
<glyph name="j" format="1">
  <advance width="251"/>
  <unicode hex="006A"/>
  <outline>
    <contour>
      <point x="60" y="625" type="line"/>
      <point x="191" y="625" type="line"/>
      <point x="191" y="756" type="line"/>
      <point x="60" y="756" type="line"/>
    </contour>
    <contour>
      <point x="128" y="-125" type="line"/>
      <point x="191" y="-125" type="line"/>
      <point x="191" y="568" type="line"/>
      <point x="60" y="568" type="line"/>
      <point x="60" y="-119" type="line"/>
      <point x="3" y="-119" type="line"/>
      <point x="3" y="-57" type="line"/>
      <point x="-65" y="-57" type="line"/>
      <point x="-65" y="-125" type="line"/>
      <point x="-2" y="-125" type="line"/>
      <point x="-2" y="-187" type="line"/>
      <point x="128" y="-187" type="line"/>
    </contour>
  </outline>
</glyph>
<glyph name="k" format="1">
  <advance width="503"/>
  <unicode hex="006B"/>
  <outline>
    <contour>
      <point x="310" y="0" type="line"/>
      <point x="503" y="0" type="line"/>
      <point x="503" y="68" type="line"/>
      <point x="441" y="68" type="line"/>
      <point x="441" y="256" type="line"/>
      <point x="378" y="256" type="line"/>
      <point x="378" y="318" type="line"/>
      <point x="316" y="318" type="line"/>
      <point x="316" y="375" type="line"/>
      <point x="378" y="375" type="line"/>
      <point x="378" y="438" type="line"/>
      <point x="441" y="438" type="line"/>
      <point x="441" y="568" type="line"/>
      <point x="310" y="568" type="line"/>
      <point x="310" y="443" type="line"/>
      <point x="248" y="443" type="line"/>
      <point x="248" y="381" type="line"/>
      <point x="191" y="381" type="line"/>
      <point x="191" y="756" type="line"/>
      <point x="60" y="756" type="line"/>
      <point x="60" y="0" type="line"/>
      <point x="191" y="0" type="line"/>
      <point x="191" y="313" type="line"/>
      <point x="248" y="313" type="line"/>
      <point x="248" y="250" type="line"/>
      <point x="310" y="250" type="line"/>
    </contour>
  </outline>
</glyph>
<glyph name="l" format="1">
  <advance width="283"/>
  <unicode hex="006C"/>
  <outline>
    <contour>
      <point x="123" y="0" type="line"/>
      <point x="253" y="0" type="line"/>
      <point x="253" y="68" type="line"/>
      <point x="191" y="68" type="line"/>
      <point x="191" y="756" type="line"/>
      <point x="60" y="756" type="line"/>
      <point x="60" y="63" type="line"/>
      <point x="123" y="63" type="line"/>
    </contour>
  </outline>
</glyph>
<glyph name="m" format="1">
  <advance width="751"/>
  <unicode hex="006D"/>
  <outline>
    <contour>
      <point x="560" y="0" type="line"/>
      <point x="691" y="0" type="line"/>
      <point x="691" y="506" type="line"/>
      <point x="628" y="506" type="line"/>
      <point x="628" y="568" type="line"/>
      <point x="498" y="568" type="line"/>
      <point x="498" y="506" type="line"/>
      <point x="378" y="506" type="line"/>
      <point x="378" y="568" type="line"/>
      <point x="248" y="568" type="line"/>
      <point x="248" y="506" type="line"/>
      <point x="128" y="506" type="line"/>
      <point x="128" y="568" type="line"/>
      <point x="60" y="568" type="line"/>
      <point x="60" y="0" type="line"/>
      <point x="191" y="0" type="line"/>
      <point x="191" y="438" type="line"/>
      <point x="253" y="438" type="line"/>
      <point x="253" y="500" type="line"/>
      <point x="310" y="500" type="line"/>
      <point x="310" y="0" type="line"/>
      <point x="441" y="0" type="line"/>
      <point x="441" y="438" type="line"/>
      <point x="503" y="438" type="line"/>
      <point x="503" y="500" type="line"/>
      <point x="560" y="500" type="line"/>
    </contour>
  </outline>
</glyph>
<glyph name="n" format="1">
  <advance width="501"/>
  <unicode hex="006E"/>
  <outline>
    <contour>
      <point x="310" y="0" type="line"/>
      <point x="441" y="0" type="line"/>
      <point x="441" y="506" type="line"/>
      <point x="378" y="506" type="line"/>
      <point x="378" y="568" type="line"/>
      <point x="248" y="568" type="line"/>
      <point x="248" y="506" type="line"/>
      <point x="128" y="506" type="line"/>
      <point x="128" y="568" type="line"/>
      <point x="60" y="568" type="line"/>
      <point x="60" y="0" type="line"/>
      <point x="191" y="0" type="line"/>
      <point x="191" y="438" type="line"/>
      <point x="253" y="438" type="line"/>
      <point x="253" y="500" type="line"/>
      <point x="310" y="500" type="line"/>
    </contour>
  </outline>
</glyph>
<glyph name="r" format="1">
  <advance width="501"/>
  <unicode hex="0072"/>
  <outline>
    <contour>
      <point x="310" y="375" type="line"/>
      <point x="441" y="375" type="line"/>
      <point x="441" y="506" type="line"/>
      <point x="378" y="506" type="line"/>
      <point x="378" y="568" type="line"/>
      <point x="248" y="568" type="line"/>
      <point x="248" y="506" type="line"/>
      <point x="128" y="506" type="line"/>
      <point x="128" y="568" type="line"/>
      <point x="60" y="568" type="line"/>
      <point x="60" y="0" type="line"/>
      <point x="191" y="0" type="line"/>
      <point x="191" y="438" type="line"/>
      <point x="253" y="438" type="line"/>
      <point x="253" y="500" type="line"/>
      <point x="310" y="500" type="line"/>
    </contour>
  </outline>
</glyph>
<glyph name="t" format="1">
  <advance width="440"/>
  <unicode hex="0074"/>
  <outline>
    <contour>
      <point x="318" y="63" type="line"/>
      <point x="380" y="63" type="line"/>
      <point x="380" y="193" type="line"/>
      <point x="250" y="193" type="line"/>
      <point x="250" y="68" type="line"/>
      <point x="193" y="68" type="line"/>
      <point x="193" y="500" type="line"/>
      <point x="318" y="500" type="line"/>
      <point x="318" y="568" type="line"/>
      <point x="193" y="568" type="line"/>
      <point x="193" y="693" type="line"/>
      <point x="62" y="693" type="line"/>
      <point x="62" y="568" type="line"/>
      <point x="0" y="568" type="line"/>
      <point x="0" y="500" type="line"/>
      <point x="62" y="500" type="line"/>
      <point x="62" y="63" type="line"/>
      <point x="125" y="63" type="line"/>
      <point x="125" y="0" type="line"/>
      <point x="318" y="0" type="line"/>
    </contour>
  </outline>
</glyph>
<glyph name="z" format="1">
  <advance width="438"/>
  <unicode hex="007A"/>
  <outline>
    <contour>
      <point x="126" y="0" type="line"/>
      <point x="378" y="0" type="line"/>
      <point x="378" y="68" type="line"/>
      <point x="191" y="68" type="line"/>
      <point x="191" y="128" type="line"/>
      <point x="191" y="188" type="line"/>
      <point x="253" y="188" type="line"/>
      <point x="253" y="253" type="line"/>
      <point x="253" y="313" type="line"/>
      <point x="316" y="313" type="line"/>
      <point x="316" y="378" type="line"/>
      <point x="316" y="438" type="line"/>
      <point x="378" y="438" type="line"/>
      <point x="378" y="503" type="line"/>
      <point x="378" y="568" type="line"/>
      <point x="313" y="568" type="line"/>
      <point x="60" y="568" type="line"/>
      <point x="60" y="500" type="line"/>
      <point x="248" y="500" type="line"/>
      <point x="248" y="443" type="line"/>
      <point x="185" y="443" type="line"/>
      <point x="185" y="378" type="line"/>
      <point x="185" y="318" type="line"/>
      <point x="123" y="318" type="line"/>
      <point x="123" y="253" type="line"/>
      <point x="123" y="193" type="line"/>
      <point x="60" y="193" type="line"/>
      <point x="60" y="128" type="line"/>
      <point x="60" y="65" type="line"/>
      <point x="60" y="0" type="line"/>
    </contour>
  </outline>
</glyph>
<glyph name="braceleft" format="1">
  <advance width="501"/>
  <unicode hex="007B"/>
  <outline>
    <contour>
      <point x="310" y="-62" type="line"/>
      <point x="441" y="-62" type="line"/>
      <point x="441" y="6" type="line"/>
      <point x="316" y="6" type="line"/>
      <point x="316" y="256" type="line"/>
      <point x="253" y="256" type="line"/>
      <point x="253" y="318" type="line"/>
      <point x="191" y="318" type="line"/>
      <point x="191" y="375" type="line"/>
      <point x="253" y="375" type="line"/>
      <point x="253" y="438" type="line"/>
      <point x="316" y="438" type="line"/>
      <point x="316" y="688" type="line"/>
      <point x="441" y="688" type="line"/>
      <point x="441" y="756" type="line"/>
      <point x="310" y="756" type="line"/>
      <point x="310" y="693" type="line"/>
      <point x="248" y="693" type="line"/>
      <point x="248" y="631" type="line"/>
      <point x="185" y="631" type="line"/>
      <point x="185" y="443" type="line"/>
      <point x="123" y="443" type="line"/>
      <point x="123" y="381" type="line"/>
      <point x="60" y="381" type="line"/>
      <point x="60" y="313" type="line"/>
      <point x="123" y="313" type="line"/>
      <point x="123" y="250" type="line"/>
      <point x="185" y="250" type="line"/>
      <point x="185" y="63" type="line"/>
      <point x="248" y="63" type="line"/>
      <point x="248" y="0" type="line"/>
      <point x="310" y="0" type="line"/>
    </contour>
  </outline>
</glyph>
<glyph name="bar" format="1">
  <advance width="188"/>
  <unicode hex="007C"/>
  <outline>
    <contour>
      <point x="60" y="-187" type="line"/>
      <point x="128" y="-187" type="line"/>
      <point x="128" y="756" type="line"/>
      <point x="60" y="756" type="line"/>
    </contour>
  </outline>
</glyph>
<glyph name="braceright" format="1">
  <advance width="501"/>
  <unicode hex="007D"/>
  <outline>
    <contour>
      <point x="378" y="313" type="line"/>
      <point x="441" y="313" type="line"/>
      <point x="441" y="381" type="line"/>
      <point x="378" y="381" type="line"/>
      <point x="378" y="443" type="line"/>
      <point x="316" y="443" type="line"/>
      <point x="316" y="631" type="line"/>
      <point x="253" y="631" type="line"/>
      <point x="253" y="693" type="line"/>
      <point x="191" y="693" type="line"/>
      <point x="191" y="756" type="line"/>
      <point x="60" y="756" type="line"/>
      <point x="60" y="688" type="line"/>
      <point x="185" y="688" type="line"/>
      <point x="185" y="438" type="line"/>
      <point x="248" y="438" type="line"/>
      <point x="248" y="375" type="line"/>
      <point x="310" y="375" type="line"/>
      <point x="310" y="318" type="line"/>
      <point x="248" y="318" type="line"/>
      <point x="248" y="256" type="line"/>
      <point x="185" y="256" type="line"/>
      <point x="185" y="6" type="line"/>
      <point x="60" y="6" type="line"/>
      <point x="60" y="-62" type="line"/>
      <point x="191" y="-62" type="line"/>
      <point x="191" y="0" type="line"/>
      <point x="253" y="0" type="line"/>
      <point x="253" y="63" type="line"/>
      <point x="316" y="63" type="line"/>
      <point x="316" y="250" type="line"/>
      <point x="378" y="250" type="line"/>
    </contour>
  </outline>
</glyph>
<glyph name="asciitilde" format="1">
  <advance width="751"/>
  <unicode hex="007E"/>
  <outline>
    <contour>
      <point x="628" y="313" type="line"/>
      <point x="691" y="313" type="line"/>
      <point x="691" y="381" type="line"/>
      <point x="623" y="381" type="line"/>
      <point x="623" y="318" type="line"/>
      <point x="560" y="318" type="line"/>
      <point x="560" y="256" type="line"/>
      <point x="441" y="256" type="line"/>
      <point x="441" y="318" type="line"/>
      <point x="378" y="318" type="line"/>
      <point x="378" y="381" type="line"/>
      <point x="316" y="381" type="line"/>
      <point x="316" y="443" type="line"/>
      <point x="185" y="443" type="line"/>
      <point x="185" y="381" type="line"/>
      <point x="123" y="381" type="line"/>
      <point x="123" y="318" type="line"/>
      <point x="60" y="318" type="line"/>
      <point x="60" y="250" type="line"/>
      <point x="128" y="250" type="line"/>
      <point x="128" y="313" type="line"/>
      <point x="191" y="313" type="line"/>
      <point x="191" y="375" type="line"/>
      <point x="310" y="375" type="line"/>
      <point x="310" y="313" type="line"/>
      <point x="373" y="313" type="line"/>
      <point x="373" y="250" type="line"/>
      <point x="435" y="250" type="line"/>
      <point x="435" y="188" type="line"/>
      <point x="566" y="188" type="line"/>
      <point x="566" y="250" type="line"/>
      <point x="628" y="250" type="line"/>
    </contour>
  </outline>
</glyph>
<glyph name="exclamdown" format="1">
  <advance width="251"/>
  <unicode hex="00A1"/>
  <outline>
    <contour>
      <point x="60" y="438" type="line"/>
      <point x="191" y="438" type="line"/>
      <point x="191" y="568" type="line"/>
      <point x="60" y="568" type="line"/>
    </contour>
    <contour>
      <point x="60" y="-125" type="line"/>
      <point x="191" y="-125" type="line"/>
      <point x="191" y="381" type="line"/>
      <point x="60" y="381" type="line"/>
    </contour>
  </outline>
</glyph>
<glyph name="cent" format="1">
  <advance width="501"/>
  <unicode hex="00A2"/>
  <outline>
    <contour>
      <point x="378" y="125" type="line"/>
      <point x="441" y="125" type="line"/>
      <point x="441" y="193" type="line"/>
      <point x="373" y="193" type="line"/>
      <point x="373" y="131" type="line"/>
      <point x="316" y="131" type="line"/>
      <point x="316" y="500" type="line"/>
      <point x="373" y="500" type="line"/>
      <point x="373" y="438" type="line"/>
      <point x="441" y="438" type="line"/>
      <point x="441" y="506" type="line"/>
      <point x="378" y="506" type="line"/>
      <point x="378" y="568" type="line"/>
      <point x="316" y="568" type="line"/>
      <point x="316" y="693" type="line"/>
      <point x="248" y="693" type="line"/>
      <point x="248" y="568" type="line"/>
      <point x="123" y="568" type="line"/>
      <point x="123" y="506" type="line"/>
      <point x="60" y="506" type="line"/>
      <point x="60" y="125" type="line"/>
      <point x="123" y="125" type="line"/>
      <point x="123" y="63" type="line"/>
      <point x="248" y="63" type="line"/>
      <point x="248" y="-62" type="line"/>
      <point x="316" y="-62" type="line"/>
      <point x="316" y="63" type="line"/>
      <point x="378" y="63" type="line"/>
    </contour>
    <contour>
      <point x="248" y="500" type="line"/>
      <point x="248" y="131" type="line"/>
      <point x="191" y="131" type="line"/>
      <point x="191" y="500" type="line"/>
    </contour>
  </outline>
</glyph>
<glyph name="sterling" format="1">
  <advance width="563"/>
  <unicode hex="00A3"/>
  <outline>
    <contour>
      <point x="441" y="63" type="line"/>
      <point x="503" y="63" type="line"/>
      <point x="503" y="131" type="line"/>
      <point x="435" y="131" type="line"/>
      <point x="435" y="68" type="line"/>
      <point x="253" y="68" type="line"/>
      <point x="253" y="125" type="line"/>
      <point x="316" y="125" type="line"/>
      <point x="316" y="313" type="line"/>
      <point x="441" y="313" type="line"/>
      <point x="441" y="381" type="line"/>
      <point x="316" y="381" type="line"/>
      <point x="316" y="500" type="line"/>
      <point x="435" y="500" type="line"/>
      <point x="435" y="438" type="line"/>
      <point x="503" y="438" type="line"/>
      <point x="503" y="506" type="line"/>
      <point x="441" y="506" type="line"/>
      <point x="441" y="568" type="line"/>
      <point x="248" y="568" type="line"/>
      <point x="248" y="506" type="line"/>
      <point x="185" y="506" type="line"/>
      <point x="185" y="381" type="line"/>
      <point x="60" y="381" type="line"/>
      <point x="60" y="313" type="line"/>
      <point x="185" y="313" type="line"/>
      <point x="185" y="131" type="line"/>
      <point x="123" y="131" type="line"/>
      <point x="123" y="68" type="line"/>
      <point x="60" y="68" type="line"/>
      <point x="60" y="0" type="line"/>
      <point x="441" y="0" type="line"/>
    </contour>
  </outline>
</glyph>
<glyph name="currency" format="1">
  <advance width="563"/>
  <unicode hex="00A4"/>
  <outline>
    <contour>
      <point x="441" y="63" type="line"/>
      <point x="503" y="63" type="line"/>
      <point x="503" y="131" type="line"/>
      <point x="435" y="131" type="line"/>
      <point x="435" y="68" type="line"/>
      <point x="253" y="68" type="line"/>
      <point x="253" y="188" type="line"/>
      <point x="378" y="188" type="line"/>
      <point x="378" y="256" type="line"/>
      <point x="253" y="256" type="line"/>
      <point x="253" y="313" type="line"/>
      <point x="378" y="313" type="line"/>
      <point x="378" y="381" type="line"/>
      <point x="253" y="381" type="line"/>
      <point x="253" y="500" type="line"/>
      <point x="435" y="500" type="line"/>
      <point x="435" y="438" type="line"/>
      <point x="503" y="438" type="line"/>
      <point x="503" y="506" type="line"/>
      <point x="441" y="506" type="line"/>
      <point x="441" y="568" type="line"/>
      <point x="248" y="568" type="line"/>
      <point x="248" y="506" type="line"/>
      <point x="185" y="506" type="line"/>
      <point x="185" y="443" type="line"/>
      <point x="123" y="443" type="line"/>
      <point x="123" y="381" type="line"/>
      <point x="60" y="381" type="line"/>
      <point x="60" y="313" type="line"/>
      <point x="123" y="313" type="line"/>
      <point x="123" y="256" type="line"/>
      <point x="60" y="256" type="line"/>
      <point x="60" y="188" type="line"/>
      <point x="123" y="188" type="line"/>
      <point x="123" y="125" type="line"/>
      <point x="185" y="125" type="line"/>
      <point x="185" y="63" type="line"/>
      <point x="248" y="63" type="line"/>
      <point x="248" y="0" type="line"/>
      <point x="441" y="0" type="line"/>
    </contour>
  </outline>
</glyph>
<glyph name="yen" format="1">
  <advance width="501"/>
  <unicode hex="00A5"/>
  <outline>
    <contour>
      <point x="316" y="125" type="line"/>
      <point x="441" y="125" type="line"/>
      <point x="441" y="193" type="line"/>
      <point x="316" y="193" type="line"/>
      <point x="316" y="250" type="line"/>
      <point x="441" y="250" type="line"/>
      <point x="441" y="318" type="line"/>
      <point x="378" y="318" type="line"/>
      <point x="378" y="375" type="line"/>
      <point x="441" y="375" type="line"/>
      <point x="441" y="568" type="line"/>
      <point x="310" y="568" type="line"/>
      <point x="310" y="318" type="line"/>
      <point x="191" y="318" type="line"/>
      <point x="191" y="568" type="line"/>
      <point x="60" y="568" type="line"/>
      <point x="60" y="375" type="line"/>
      <point x="123" y="375" type="line"/>
      <point x="123" y="318" type="line"/>
      <point x="60" y="318" type="line"/>
      <point x="60" y="250" type="line"/>
      <point x="185" y="250" type="line"/>
      <point x="185" y="193" type="line"/>
      <point x="60" y="193" type="line"/>
      <point x="60" y="125" type="line"/>
      <point x="185" y="125" type="line"/>
      <point x="185" y="0" type="line"/>
      <point x="316" y="0" type="line"/>
    </contour>
  </outline>
</glyph>
<glyph name="brokenbar" format="1">
  <advance width="188"/>
  <unicode hex="00A6"/>
  <outline>
    <contour>
      <point x="60" y="375" type="line"/>
      <point x="128" y="375" type="line"/>
      <point x="128" y="756" type="line"/>
      <point x="60" y="756" type="line"/>
    </contour>
    <contour>
      <point x="60" y="-187" type="line"/>
      <point x="128" y="-187" type="line"/>
      <point x="128" y="193" type="line"/>
      <point x="60" y="193" type="line"/>
    </contour>
  </outline>
</glyph>
<glyph name="section" format="1">
  <advance width="376"/>
  <unicode hex="00A7"/>
  <outline>
    <contour>
      <point x="253" y="63" type="line"/>
      <point x="316" y="63" type="line"/>
      <point x="316" y="131" type="line"/>
      <point x="253" y="131" type="line"/>
      <point x="253" y="188" type="line"/>
      <point x="316" y="188" type="line"/>
      <point x="316" y="318" type="line"/>
      <point x="253" y="318" type="line"/>
      <point x="253" y="381" type="line"/>
      <point x="191" y="381" type="line"/>
      <point x="191" y="443" type="line"/>
      <point x="128" y="443" type="line"/>
      <point x="128" y="500" type="line"/>
      <point x="248" y="500" type="line"/>
      <point x="248" y="438" type="line"/>
      <point x="316" y="438" type="line"/>
      <point x="316" y="506" type="line"/>
      <point x="253" y="506" type="line"/>
      <point x="253" y="568" type="line"/>
      <point x="123" y="568" type="line"/>
      <point x="123" y="506" type="line"/>
      <point x="60" y="506" type="line"/>
      <point x="60" y="438" type="line"/>
      <point x="123" y="438" type="line"/>
      <point x="123" y="381" type="line"/>
      <point x="60" y="381" type="line"/>
      <point x="60" y="250" type="line"/>
      <point x="123" y="250" type="line"/>
      <point x="123" y="188" type="line"/>
      <point x="185" y="188" type="line"/>
      <point x="185" y="125" type="line"/>
      <point x="248" y="125" type="line"/>
      <point x="248" y="68" type="line"/>
      <point x="128" y="68" type="line"/>
      <point x="128" y="131" type="line"/>
      <point x="60" y="131" type="line"/>
      <point x="60" y="63" type="line"/>
      <point x="123" y="63" type="line"/>
      <point x="123" y="0" type="line"/>
      <point x="253" y="0" type="line"/>
    </contour>
    <contour>
      <point x="248" y="313" type="line"/>
      <point x="248" y="193" type="line"/>
      <point x="191" y="193" type="line"/>
      <point x="191" y="256" type="line"/>
      <point x="128" y="256" type="line"/>
      <point x="128" y="375" type="line"/>
      <point x="185" y="375" type="line"/>
      <point x="185" y="313" type="line"/>
    </contour>
  </outline>
</glyph>
<glyph name="dieresis" format="1">
  <advance width="313"/>
  <unicode hex="00A8"/>
  <outline>
    <contour>
      <point x="185" y="625" type="line"/>
      <point x="253" y="625" type="line"/>
      <point x="253" y="693" type="line"/>
      <point x="185" y="693" type="line"/>
    </contour>
    <contour>
      <point x="60" y="625" type="line"/>
      <point x="128" y="625" type="line"/>
      <point x="128" y="693" type="line"/>
      <point x="60" y="693" type="line"/>
    </contour>
  </outline>
</glyph>
<glyph name="copyright" format="1">
  <advance width="751"/>
  <unicode hex="00A9"/>
  <outline>
    <contour>
      <point x="628" y="125" type="line"/>
      <point x="691" y="125" type="line"/>
      <point x="691" y="568" type="line"/>
      <point x="628" y="568" type="line"/>
      <point x="628" y="631" type="line"/>
      <point x="566" y="631" type="line"/>
      <point x="566" y="693" type="line"/>
      <point x="185" y="693" type="line"/>
      <point x="185" y="631" type="line"/>
      <point x="123" y="631" type="line"/>
      <point x="123" y="568" type="line"/>
      <point x="60" y="568" type="line"/>
      <point x="60" y="125" type="line"/>
      <point x="123" y="125" type="line"/>
      <point x="123" y="63" type="line"/>
      <point x="185" y="63" type="line"/>
      <point x="185" y="0" type="line"/>
      <point x="566" y="0" type="line"/>
      <point x="566" y="63" type="line"/>
      <point x="628" y="63" type="line"/>
    </contour>
    <contour>
      <point x="623" y="563" type="line"/>
      <point x="623" y="131" type="line"/>
      <point x="560" y="131" type="line"/>
      <point x="560" y="68" type="line"/>
      <point x="191" y="68" type="line"/>
      <point x="191" y="131" type="line"/>
      <point x="128" y="131" type="line"/>
      <point x="128" y="563" type="line"/>
      <point x="191" y="563" type="line"/>
      <point x="191" y="625" type="line"/>
      <point x="560" y="625" type="line"/>
      <point x="560" y="563" type="line"/>
    </contour>
    <contour>
      <point x="441" y="250" type="line"/>
      <point x="503" y="250" type="line"/>
      <point x="503" y="318" type="line"/>
      <point x="435" y="318" type="line"/>
      <point x="435" y="256" type="line"/>
      <point x="316" y="256" type="line"/>
      <point x="316" y="438" type="line"/>
      <point x="435" y="438" type="line"/>
      <point x="435" y="375" type="line"/>
      <point x="503" y="375" type="line"/>
      <point x="503" y="443" type="line"/>
      <point x="441" y="443" type="line"/>
      <point x="441" y="506" type="line"/>
      <point x="310" y="506" type="line"/>
      <point x="310" y="443" type="line"/>
      <point x="248" y="443" type="line"/>
      <point x="248" y="250" type="line"/>
      <point x="310" y="250" type="line"/>
      <point x="310" y="188" type="line"/>
      <point x="441" y="188" type="line"/>
    </contour>
  </outline>
</glyph>
<glyph name="ordfeminine" format="1">
  <advance width="438"/>
  <unicode hex="00AA"/>
  <outline>
    <contour>
      <point x="310" y="313" type="line"/>
      <point x="378" y="313" type="line"/>
      <point x="378" y="381" type="line"/>
      <point x="316" y="381" type="line"/>
      <point x="316" y="568" type="line"/>
      <point x="123" y="568" type="line"/>
      <point x="123" y="506" type="line"/>
      <point x="60" y="506" type="line"/>
      <point x="60" y="375" type="line"/>
      <point x="123" y="375" type="line"/>
      <point x="123" y="313" type="line"/>
      <point x="253" y="313" type="line"/>
      <point x="253" y="375" type="line"/>
      <point x="310" y="375" type="line"/>
    </contour>
    <contour>
      <point x="60" y="188" type="line"/>
      <point x="378" y="188" type="line"/>
      <point x="378" y="256" type="line"/>
      <point x="60" y="256" type="line"/>
    </contour>
    <contour>
      <point x="248" y="500" type="line"/>
      <point x="248" y="381" type="line"/>
      <point x="128" y="381" type="line"/>
      <point x="128" y="500" type="line"/>
    </contour>
  </outline>
</glyph>
<glyph name="guillemotleft" format="1">
  <advance width="626"/>
  <unicode hex="00AB"/>
  <outline>
    <contour>
      <point x="498" y="0" type="line"/>
      <point x="566" y="0" type="line"/>
      <point x="566" y="68" type="line"/>
      <point x="503" y="68" type="line"/>
      <point x="503" y="131" type="line"/>
      <point x="441" y="131" type="line"/>
      <point x="441" y="193" type="line"/>
      <point x="378" y="193" type="line"/>
      <point x="378" y="256" type="line"/>
      <point x="316" y="256" type="line"/>
      <point x="316" y="313" type="line"/>
      <point x="378" y="313" type="line"/>
      <point x="378" y="375" type="line"/>
      <point x="441" y="375" type="line"/>
      <point x="441" y="438" type="line"/>
      <point x="503" y="438" type="line"/>
      <point x="503" y="500" type="line"/>
      <point x="566" y="500" type="line"/>
      <point x="566" y="568" type="line"/>
      <point x="498" y="568" type="line"/>
      <point x="498" y="506" type="line"/>
      <point x="435" y="506" type="line"/>
      <point x="435" y="443" type="line"/>
      <point x="373" y="443" type="line"/>
      <point x="373" y="381" type="line"/>
      <point x="310" y="381" type="line"/>
      <point x="310" y="318" type="line"/>
      <point x="248" y="318" type="line"/>
      <point x="248" y="250" type="line"/>
      <point x="310" y="250" type="line"/>
      <point x="310" y="188" type="line"/>
      <point x="373" y="188" type="line"/>
      <point x="373" y="125" type="line"/>
      <point x="435" y="125" type="line"/>
      <point x="435" y="63" type="line"/>
      <point x="498" y="63" type="line"/>
    </contour>
    <contour>
      <point x="310" y="0" type="line"/>
      <point x="378" y="0" type="line"/>
      <point x="378" y="68" type="line"/>
      <point x="316" y="68" type="line"/>
      <point x="316" y="131" type="line"/>
      <point x="253" y="131" type="line"/>
      <point x="253" y="193" type="line"/>
      <point x="191" y="193" type="line"/>
      <point x="191" y="256" type="line"/>
      <point x="128" y="256" type="line"/>
      <point x="128" y="313" type="line"/>
      <point x="191" y="313" type="line"/>
      <point x="191" y="375" type="line"/>
      <point x="253" y="375" type="line"/>
      <point x="253" y="438" type="line"/>
      <point x="316" y="438" type="line"/>
      <point x="316" y="500" type="line"/>
      <point x="378" y="500" type="line"/>
      <point x="378" y="568" type="line"/>
      <point x="310" y="568" type="line"/>
      <point x="310" y="506" type="line"/>
      <point x="248" y="506" type="line"/>
      <point x="248" y="443" type="line"/>
      <point x="185" y="443" type="line"/>
      <point x="185" y="381" type="line"/>
      <point x="123" y="381" type="line"/>
      <point x="123" y="318" type="line"/>
      <point x="60" y="318" type="line"/>
      <point x="60" y="250" type="line"/>
      <point x="123" y="250" type="line"/>
      <point x="123" y="188" type="line"/>
      <point x="185" y="188" type="line"/>
      <point x="185" y="125" type="line"/>
      <point x="248" y="125" type="line"/>
      <point x="248" y="63" type="line"/>
      <point x="310" y="63" type="line"/>
    </contour>
  </outline>
</glyph>
<glyph name="logicalnot" format="1">
  <advance width="563"/>
  <unicode hex="00AC"/>
  <outline>
    <contour>
      <point x="435" y="63" type="line"/>
      <point x="503" y="63" type="line"/>
      <point x="503" y="381" type="line"/>
      <point x="60" y="381" type="line"/>
      <point x="60" y="250" type="line"/>
      <point x="435" y="250" type="line"/>
    </contour>
  </outline>
</glyph>
<glyph name="registered" format="1">
  <advance width="751"/>
  <unicode hex="00AE"/>
  <outline>
    <contour>
      <point x="628" y="125" type="line"/>
      <point x="691" y="125" type="line"/>
      <point x="691" y="568" type="line"/>
      <point x="628" y="568" type="line"/>
      <point x="628" y="631" type="line"/>
      <point x="566" y="631" type="line"/>
      <point x="566" y="693" type="line"/>
      <point x="185" y="693" type="line"/>
      <point x="185" y="631" type="line"/>
      <point x="123" y="631" type="line"/>
      <point x="123" y="568" type="line"/>
      <point x="60" y="568" type="line"/>
      <point x="60" y="125" type="line"/>
      <point x="123" y="125" type="line"/>
      <point x="123" y="63" type="line"/>
      <point x="185" y="63" type="line"/>
      <point x="185" y="0" type="line"/>
      <point x="566" y="0" type="line"/>
      <point x="566" y="63" type="line"/>
      <point x="628" y="63" type="line"/>
    </contour>
    <contour>
      <point x="623" y="563" type="line"/>
      <point x="623" y="131" type="line"/>
      <point x="560" y="131" type="line"/>
      <point x="560" y="68" type="line"/>
      <point x="191" y="68" type="line"/>
      <point x="191" y="131" type="line"/>
      <point x="128" y="131" type="line"/>
      <point x="128" y="563" type="line"/>
      <point x="191" y="563" type="line"/>
      <point x="191" y="625" type="line"/>
      <point x="560" y="625" type="line"/>
      <point x="560" y="563" type="line"/>
    </contour>
    <contour>
      <point x="435" y="188" type="line"/>
      <point x="503" y="188" type="line"/>
      <point x="503" y="318" type="line"/>
      <point x="441" y="318" type="line"/>
      <point x="441" y="375" type="line"/>
      <point x="503" y="375" type="line"/>
      <point x="503" y="443" type="line"/>
      <point x="441" y="443" type="line"/>
      <point x="441" y="506" type="line"/>
      <point x="248" y="506" type="line"/>
      <point x="248" y="188" type="line"/>
      <point x="316" y="188" type="line"/>
      <point x="316" y="313" type="line"/>
      <point x="435" y="313" type="line"/>
    </contour>
    <contour>
      <point x="435" y="438" type="line"/>
      <point x="435" y="381" type="line"/>
      <point x="316" y="381" type="line"/>
      <point x="316" y="438" type="line"/>
    </contour>
  </outline>
</glyph>
<glyph name="macron" format="1">
  <advance width="376"/>
  <unicode hex="00AF"/>
  <outline>
    <contour>
      <point x="60" y="688" type="line"/>
      <point x="316" y="688" type="line"/>
      <point x="316" y="756" type="line"/>
      <point x="60" y="756" type="line"/>
    </contour>
  </outline>
</glyph>
<glyph name="plusminus" format="1">
  <advance width="563"/>
  <unicode hex="00B1"/>
  <outline>
    <contour>
      <point x="316" y="313" type="line"/>
      <point x="503" y="313" type="line"/>
      <point x="503" y="381" type="line"/>
      <point x="316" y="381" type="line"/>
      <point x="316" y="568" type="line"/>
      <point x="248" y="568" type="line"/>
      <point x="248" y="381" type="line"/>
      <point x="60" y="381" type="line"/>
      <point x="60" y="313" type="line"/>
      <point x="248" y="313" type="line"/>
      <point x="248" y="125" type="line"/>
      <point x="316" y="125" type="line"/>
    </contour>
    <contour>
      <point x="60" y="0" type="line"/>
      <point x="503" y="0" type="line"/>
      <point x="503" y="68" type="line"/>
      <point x="60" y="68" type="line"/>
    </contour>
  </outline>
</glyph>
<glyph name="twosuperior" format="1">
  <advance width="376"/>
  <unicode hex="00B2"/>
  <outline>
    <contour>
      <point x="60" y="375" type="line"/>
      <point x="316" y="375" type="line"/>
      <point x="316" y="443" type="line"/>
      <point x="191" y="443" type="line"/>
      <point x="191" y="500" type="line"/>
      <point x="253" y="500" type="line"/>
      <point x="253" y="563" type="line"/>
      <point x="316" y="563" type="line"/>
      <point x="316" y="693" type="line"/>
      <point x="253" y="693" type="line"/>
      <point x="253" y="756" type="line"/>
      <point x="123" y="756" type="line"/>
      <point x="123" y="693" type="line"/>
      <point x="60" y="693" type="line"/>
      <point x="60" y="625" type="line"/>
      <point x="128" y="625" type="line"/>
      <point x="128" y="688" type="line"/>
      <point x="248" y="688" type="line"/>
      <point x="248" y="568" type="line"/>
      <point x="185" y="568" type="line"/>
      <point x="185" y="506" type="line"/>
      <point x="123" y="506" type="line"/>
      <point x="123" y="443" type="line"/>
      <point x="60" y="443" type="line"/>
    </contour>
  </outline>
</glyph>
<glyph name="threesuperior" format="1">
  <advance width="376"/>
  <unicode hex="00B3"/>
  <outline>
    <contour>
      <point x="253" y="438" type="line"/>
      <point x="316" y="438" type="line"/>
      <point x="316" y="568" type="line"/>
      <point x="253" y="568" type="line"/>
      <point x="253" y="625" type="line"/>
      <point x="316" y="625" type="line"/>
      <point x="316" y="693" type="line"/>
      <point x="253" y="693" type="line"/>
      <point x="253" y="756" type="line"/>
      <point x="60" y="756" type="line"/>
      <point x="60" y="688" type="line"/>
      <point x="248" y="688" type="line"/>
      <point x="248" y="631" type="line"/>
      <point x="123" y="631" type="line"/>
      <point x="123" y="563" type="line"/>
      <point x="248" y="563" type="line"/>
      <point x="248" y="443" type="line"/>
      <point x="60" y="443" type="line"/>
      <point x="60" y="375" type="line"/>
      <point x="253" y="375" type="line"/>
    </contour>
  </outline>
</glyph>
<glyph name="acute" format="1">
  <advance width="251"/>
  <unicode hex="00B4"/>
  <outline>
    <contour>
      <point x="128" y="688" type="line"/>
      <point x="191" y="688" type="line"/>
      <point x="191" y="756" type="line"/>
      <point x="123" y="756" type="line"/>
      <point x="123" y="693" type="line"/>
      <point x="60" y="693" type="line"/>
      <point x="60" y="625" type="line"/>
      <point x="128" y="625" type="line"/>
    </contour>
  </outline>
</glyph>
<glyph name="mu" format="1">
  <advance width="563"/>
  <unicode hex="00B5"/>
  <unicode hex="03BC"/>
  <outline>
    <contour>
      <point x="435" y="0" type="line"/>
      <point x="503" y="0" type="line"/>
      <point x="503" y="68" type="line"/>
      <point x="441" y="68" type="line"/>
      <point x="441" y="568" type="line"/>
      <point x="310" y="568" type="line"/>
      <point x="310" y="131" type="line"/>
      <point x="248" y="131" type="line"/>
      <point x="248" y="68" type="line"/>
      <point x="191" y="68" type="line"/>
      <point x="191" y="568" type="line"/>
      <point x="60" y="568" type="line"/>
      <point x="60" y="-125" type="line"/>
      <point x="191" y="-125" type="line"/>
      <point x="191" y="0" type="line"/>
      <point x="253" y="0" type="line"/>
      <point x="253" y="63" type="line"/>
      <point x="435" y="63" type="line"/>
    </contour>
  </outline>
</glyph>
<glyph name="paragraph" format="1">
  <advance width="626"/>
  <unicode hex="00B6"/>
  <outline>
    <contour>
      <point x="503" y="500" type="line"/>
      <point x="566" y="500" type="line"/>
      <point x="566" y="568" type="line"/>
      <point x="123" y="568" type="line"/>
      <point x="123" y="506" type="line"/>
      <point x="60" y="506" type="line"/>
      <point x="60" y="250" type="line"/>
      <point x="123" y="250" type="line"/>
      <point x="123" y="188" type="line"/>
      <point x="373" y="188" type="line"/>
      <point x="373" y="-119" type="line"/>
      <point x="248" y="-119" type="line"/>
      <point x="248" y="-187" type="line"/>
      <point x="378" y="-187" type="line"/>
      <point x="378" y="-125" type="line"/>
      <point x="441" y="-125" type="line"/>
      <point x="441" y="-62" type="line"/>
      <point x="503" y="-62" type="line"/>
    </contour>
    <contour>
      <point x="373" y="500" type="line"/>
      <point x="373" y="256" type="line"/>
      <point x="253" y="256" type="line"/>
      <point x="253" y="500" type="line"/>
    </contour>
  </outline>
</glyph>
<glyph name="periodcentered" format="1">
  <advance width="313"/>
  <unicode hex="00B7"/>
  <outline>
    <contour>
      <point x="60" y="188" type="line"/>
      <point x="253" y="188" type="line"/>
      <point x="253" y="381" type="line"/>
      <point x="60" y="381" type="line"/>
    </contour>
  </outline>
</glyph>
<glyph name="cedilla" format="1">
  <advance width="313"/>
  <unicode hex="00B8"/>
  <outline>
    <contour>
      <point x="191" y="-125" type="line"/>
      <point x="253" y="-125" type="line"/>
      <point x="253" y="-57" type="line"/>
      <point x="191" y="-57" type="line"/>
      <point x="191" y="6" type="line"/>
      <point x="123" y="6" type="line"/>
      <point x="123" y="-62" type="line"/>
      <point x="185" y="-62" type="line"/>
      <point x="185" y="-119" type="line"/>
      <point x="60" y="-119" type="line"/>
      <point x="60" y="-187" type="line"/>
      <point x="191" y="-187" type="line"/>
    </contour>
  </outline>
</glyph>
<glyph name="onesuperior" format="1">
  <advance width="313"/>
  <unicode hex="00B9"/>
  <outline>
    <contour>
      <point x="185" y="375" type="line"/>
      <point x="253" y="375" type="line"/>
      <point x="253" y="756" type="line"/>
      <point x="185" y="756" type="line"/>
      <point x="185" y="693" type="line"/>
      <point x="123" y="693" type="line"/>
      <point x="123" y="631" type="line"/>
      <point x="60" y="631" type="line"/>
      <point x="60" y="563" type="line"/>
      <point x="128" y="563" type="line"/>
      <point x="128" y="625" type="line"/>
      <point x="185" y="625" type="line"/>
    </contour>
  </outline>
</glyph>
<glyph name="ordmasculine" format="1">
  <advance width="376"/>
  <unicode hex="00BA"/>
  <outline>
    <contour>
      <point x="253" y="375" type="line"/>
      <point x="316" y="375" type="line"/>
      <point x="316" y="506" type="line"/>
      <point x="253" y="506" type="line"/>
      <point x="253" y="568" type="line"/>
      <point x="123" y="568" type="line"/>
      <point x="123" y="506" type="line"/>
      <point x="60" y="506" type="line"/>
      <point x="60" y="375" type="line"/>
      <point x="123" y="375" type="line"/>
      <point x="123" y="313" type="line"/>
      <point x="253" y="313" type="line"/>
    </contour>
    <contour>
      <point x="60" y="188" type="line"/>
      <point x="316" y="188" type="line"/>
      <point x="316" y="256" type="line"/>
      <point x="60" y="256" type="line"/>
    </contour>
    <contour>
      <point x="248" y="500" type="line"/>
      <point x="248" y="381" type="line"/>
      <point x="128" y="381" type="line"/>
      <point x="128" y="500" type="line"/>
    </contour>
  </outline>
</glyph>
<glyph name="guillemotright" format="1">
  <advance width="626"/>
  <unicode hex="00BB"/>
  <outline>
    <contour>
      <point x="503" y="250" type="line"/>
      <point x="566" y="250" type="line"/>
      <point x="566" y="318" type="line"/>
      <point x="503" y="318" type="line"/>
      <point x="503" y="381" type="line"/>
      <point x="441" y="381" type="line"/>
      <point x="441" y="443" type="line"/>
      <point x="378" y="443" type="line"/>
      <point x="378" y="506" type="line"/>
      <point x="316" y="506" type="line"/>
      <point x="316" y="568" type="line"/>
      <point x="248" y="568" type="line"/>
      <point x="248" y="500" type="line"/>
      <point x="310" y="500" type="line"/>
      <point x="310" y="438" type="line"/>
      <point x="373" y="438" type="line"/>
      <point x="373" y="375" type="line"/>
      <point x="435" y="375" type="line"/>
      <point x="435" y="313" type="line"/>
      <point x="498" y="313" type="line"/>
      <point x="498" y="256" type="line"/>
      <point x="435" y="256" type="line"/>
      <point x="435" y="193" type="line"/>
      <point x="373" y="193" type="line"/>
      <point x="373" y="131" type="line"/>
      <point x="310" y="131" type="line"/>
      <point x="310" y="68" type="line"/>
      <point x="248" y="68" type="line"/>
      <point x="248" y="0" type="line"/>
      <point x="316" y="0" type="line"/>
      <point x="316" y="63" type="line"/>
      <point x="378" y="63" type="line"/>
      <point x="378" y="125" type="line"/>
      <point x="441" y="125" type="line"/>
      <point x="441" y="188" type="line"/>
      <point x="503" y="188" type="line"/>
    </contour>
    <contour>
      <point x="316" y="250" type="line"/>
      <point x="378" y="250" type="line"/>
      <point x="378" y="318" type="line"/>
      <point x="316" y="318" type="line"/>
      <point x="316" y="381" type="line"/>
      <point x="253" y="381" type="line"/>
      <point x="253" y="443" type="line"/>
      <point x="191" y="443" type="line"/>
      <point x="191" y="506" type="line"/>
      <point x="128" y="506" type="line"/>
      <point x="128" y="568" type="line"/>
      <point x="60" y="568" type="line"/>
      <point x="60" y="500" type="line"/>
      <point x="123" y="500" type="line"/>
      <point x="123" y="438" type="line"/>
      <point x="185" y="438" type="line"/>
      <point x="185" y="375" type="line"/>
      <point x="248" y="375" type="line"/>
      <point x="248" y="313" type="line"/>
      <point x="310" y="313" type="line"/>
      <point x="310" y="256" type="line"/>
      <point x="248" y="256" type="line"/>
      <point x="248" y="193" type="line"/>
      <point x="185" y="193" type="line"/>
      <point x="185" y="131" type="line"/>
      <point x="123" y="131" type="line"/>
      <point x="123" y="68" type="line"/>
      <point x="60" y="68" type="line"/>
      <point x="60" y="0" type="line"/>
      <point x="128" y="0" type="line"/>
      <point x="128" y="63" type="line"/>
      <point x="191" y="63" type="line"/>
      <point x="191" y="125" type="line"/>
      <point x="253" y="125" type="line"/>
      <point x="253" y="188" type="line"/>
      <point x="316" y="188" type="line"/>
    </contour>
  </outline>
</glyph>
<glyph name="onequarter" format="1">
  <advance width="501"/>
  <unicode hex="00BC"/>
  <outline>
    <contour>
      <point x="316" y="500" type="line"/>
      <point x="316" y="818" type="line"/>
      <point x="185" y="818" type="line"/>
      <point x="185" y="756" type="line"/>
      <point x="123" y="756" type="line"/>
      <point x="123" y="688" type="line"/>
      <point x="191" y="688" type="line"/>
      <point x="191" y="750" type="line"/>
      <point x="248" y="750" type="line"/>
      <point x="248" y="500" type="line"/>
    </contour>
    <contour>
      <point x="441" y="375" type="line"/>
      <point x="441" y="443" type="line"/>
      <point x="60" y="443" type="line"/>
      <point x="60" y="375" type="line"/>
    </contour>
    <contour>
      <point x="378" y="0" type="line"/>
      <point x="378" y="68" type="line"/>
      <point x="316" y="68" type="line"/>
      <point x="316" y="318" type="line"/>
      <point x="185" y="318" type="line"/>
      <point x="185" y="256" type="line"/>
      <point x="123" y="256" type="line"/>
      <point x="123" y="131" type="line"/>
      <point x="60" y="131" type="line"/>
      <point x="60" y="0" type="line"/>
      <point x="248" y="0" type="line"/>
      <point x="248" y="-62" type="line"/>
      <point x="316" y="-62" type="line"/>
      <point x="316" y="0" type="line"/>
    </contour>
    <contour>
      <point x="248" y="68" type="line"/>
      <point x="128" y="68" type="line"/>
      <point x="128" y="125" type="line"/>
      <point x="191" y="125" type="line"/>
      <point x="191" y="250" type="line"/>
      <point x="248" y="250" type="line"/>
    </contour>
  </outline>
</glyph>
<glyph name="threequarters" format="1">
  <advance width="501"/>
  <unicode hex="00BE"/>
  <outline>
    <contour>
      <point x="378" y="563" type="line"/>
      <point x="378" y="631" type="line"/>
      <point x="316" y="631" type="line"/>
      <point x="316" y="688" type="line"/>
      <point x="378" y="688" type="line"/>
      <point x="378" y="756" type="line"/>
      <point x="316" y="756" type="line"/>
      <point x="316" y="818" type="line"/>
      <point x="123" y="818" type="line"/>
      <point x="123" y="750" type="line"/>
      <point x="310" y="750" type="line"/>
      <point x="310" y="693" type="line"/>
      <point x="185" y="693" type="line"/>
      <point x="185" y="625" type="line"/>
      <point x="310" y="625" type="line"/>
      <point x="310" y="568" type="line"/>
      <point x="123" y="568" type="line"/>
      <point x="123" y="500" type="line"/>
      <point x="316" y="500" type="line"/>
      <point x="316" y="563" type="line"/>
    </contour>
    <contour>
      <point x="441" y="375" type="line"/>
      <point x="441" y="443" type="line"/>
      <point x="60" y="443" type="line"/>
      <point x="60" y="375" type="line"/>
    </contour>
    <contour>
      <point x="378" y="0" type="line"/>
      <point x="378" y="68" type="line"/>
      <point x="316" y="68" type="line"/>
      <point x="316" y="318" type="line"/>
      <point x="248" y="318" type="line"/>
      <point x="248" y="256" type="line"/>
      <point x="185" y="256" type="line"/>
      <point x="185" y="193" type="line"/>
      <point x="123" y="193" type="line"/>
      <point x="123" y="131" type="line"/>
      <point x="60" y="131" type="line"/>
      <point x="60" y="0" type="line"/>
      <point x="126" y="0" type="line"/>
      <point x="248" y="0" type="line"/>
      <point x="248" y="-62" type="line"/>
      <point x="316" y="-62" type="line"/>
      <point x="316" y="0" type="line"/>
    </contour>
    <contour>
      <point x="248" y="68" type="line"/>
      <point x="128" y="68" type="line"/>
      <point x="128" y="125" type="line"/>
      <point x="191" y="125" type="line"/>
      <point x="191" y="188" type="line"/>
      <point x="248" y="188" type="line"/>
    </contour>
  </outline>
</glyph>
<glyph name="questiondown" format="1">
  <advance width="501"/>
  <unicode hex="00BF"/>
  <outline>
    <contour>
      <point x="248" y="438" type="line"/>
      <point x="378" y="438" type="line"/>
      <point x="378" y="568" type="line"/>
      <point x="248" y="568" type="line"/>
    </contour>
    <contour>
      <point x="378" y="-62" type="line"/>
      <point x="441" y="-62" type="line"/>
      <point x="441" y="6" type="line"/>
      <point x="373" y="6" type="line"/>
      <point x="373" y="-57" type="line"/>
      <point x="191" y="-57" type="line"/>
      <point x="191" y="188" type="line"/>
      <point x="253" y="188" type="line"/>
      <point x="253" y="250" type="line"/>
      <point x="378" y="250" type="line"/>
      <point x="378" y="381" type="line"/>
      <point x="248" y="381" type="line"/>
      <point x="248" y="256" type="line"/>
      <point x="123" y="256" type="line"/>
      <point x="123" y="193" type="line"/>
      <point x="60" y="193" type="line"/>
      <point x="60" y="-62" type="line"/>
      <point x="123" y="-62" type="line"/>
      <point x="123" y="-125" type="line"/>
      <point x="378" y="-125" type="line"/>
    </contour>
  </outline>
</glyph>
<glyph name="Agrave" format="1">
  <advance width="564"/>
  <unicode hex="00C0"/>
  <outline>
    <contour>
      <point x="248" y="750" type="line"/>
      <point x="316" y="750" type="line"/>
      <point x="316" y="818" type="line"/>
      <point x="253" y="818" type="line"/>
      <point x="253" y="881" type="line"/>
      <point x="185" y="881" type="line"/>
      <point x="185" y="813" type="line"/>
      <point x="248" y="813" type="line"/>
    </contour>
    <contour>
      <point x="373" y="0" type="line"/>
      <point x="504" y="0" type="line"/>
      <point x="504" y="631" type="line"/>
      <point x="441" y="631" type="line"/>
      <point x="441" y="693" type="line"/>
      <point x="123" y="693" type="line"/>
      <point x="123" y="631" type="line"/>
      <point x="60" y="631" type="line"/>
      <point x="60" y="0" type="line"/>
      <point x="191" y="0" type="line"/>
      <point x="191" y="313" type="line"/>
      <point x="373" y="313" type="line"/>
    </contour>
    <contour>
      <point x="373" y="625" type="line"/>
      <point x="373" y="381" type="line"/>
      <point x="191" y="381" type="line"/>
      <point x="191" y="625" type="line"/>
    </contour>
  </outline>
</glyph>
<glyph name="AE" format="1">
  <advance width="814"/>
  <unicode hex="00C6"/>
  <outline>
    <contour>
      <point x="373" y="0" type="line"/>
      <point x="754" y="0" type="line"/>
      <point x="754" y="68" type="line"/>
      <point x="503" y="68" type="line"/>
      <point x="503" y="313" type="line"/>
      <point x="691" y="313" type="line"/>
      <point x="691" y="381" type="line"/>
      <point x="503" y="381" type="line"/>
      <point x="503" y="625" type="line"/>
      <point x="754" y="625" type="line"/>
      <point x="754" y="693" type="line"/>
      <point x="123" y="693" type="line"/>
      <point x="123" y="631" type="line"/>
      <point x="60" y="631" type="line"/>
      <point x="60" y="0" type="line"/>
      <point x="191" y="0" type="line"/>
      <point x="191" y="313" type="line"/>
      <point x="373" y="313" type="line"/>
    </contour>
    <contour>
      <point x="373" y="625" type="line"/>
      <point x="373" y="381" type="line"/>
      <point x="191" y="381" type="line"/>
      <point x="191" y="625" type="line"/>
    </contour>
  </outline>
</glyph>
<glyph name="Ccedilla" format="1">
  <advance width="564"/>
  <unicode hex="00C7"/>
  <outline>
    <contour>
      <point x="441" y="63" type="line"/>
      <point x="504" y="63" type="line"/>
      <point x="504" y="193" type="line"/>
      <point x="373" y="193" type="line"/>
      <point x="373" y="68" type="line"/>
      <point x="191" y="68" type="line"/>
      <point x="191" y="625" type="line"/>
      <point x="373" y="625" type="line"/>
      <point x="373" y="500" type="line"/>
      <point x="504" y="500" type="line"/>
      <point x="504" y="631" type="line"/>
      <point x="441" y="631" type="line"/>
      <point x="441" y="693" type="line"/>
      <point x="123" y="693" type="line"/>
      <point x="123" y="631" type="line"/>
      <point x="60" y="631" type="line"/>
      <point x="60" y="63" type="line"/>
      <point x="123" y="63" type="line"/>
      <point x="123" y="0" type="line"/>
      <point x="248" y="0" type="line"/>
      <point x="248" y="-62" type="line"/>
      <point x="310" y="-62" type="line"/>
      <point x="310" y="-119" type="line"/>
      <point x="185" y="-119" type="line"/>
      <point x="185" y="-187" type="line"/>
      <point x="316" y="-187" type="line"/>
      <point x="316" y="-125" type="line"/>
      <point x="379" y="-125" type="line"/>
      <point x="379" y="-57" type="line"/>
      <point x="316" y="-57" type="line"/>
      <point x="316" y="0" type="line"/>
      <point x="441" y="0" type="line"/>
    </contour>
  </outline>
</glyph>
<glyph name="Egrave" format="1">
  <advance width="501"/>
  <unicode hex="00C8"/>
  <outline>
    <contour>
      <point x="185" y="750" type="line"/>
      <point x="254" y="750" type="line"/>
      <point x="254" y="818" type="line"/>
      <point x="191" y="818" type="line"/>
      <point x="191" y="881" type="line"/>
      <point x="123" y="881" type="line"/>
      <point x="123" y="813" type="line"/>
      <point x="185" y="813" type="line"/>
    </contour>
    <contour>
      <point x="60" y="0" type="line"/>
      <point x="441" y="0" type="line"/>
      <point x="441" y="68" type="line"/>
      <point x="191" y="68" type="line"/>
      <point x="191" y="313" type="line"/>
      <point x="379" y="313" type="line"/>
      <point x="379" y="381" type="line"/>
      <point x="191" y="381" type="line"/>
      <point x="191" y="625" type="line"/>
      <point x="441" y="625" type="line"/>
      <point x="441" y="693" type="line"/>
      <point x="60" y="693" type="line"/>
    </contour>
  </outline>
</glyph>
<glyph name="Eacute" format="1">
  <advance width="501"/>
  <unicode hex="00C9"/>
  <outline>
    <contour>
      <point x="276" y="813" type="line"/>
      <point x="339" y="813" type="line"/>
      <point x="339" y="881" type="line"/>
      <point x="270" y="881" type="line"/>
      <point x="270" y="818" type="line"/>
      <point x="208" y="818" type="line"/>
      <point x="208" y="750" type="line"/>
      <point x="276" y="750" type="line"/>
    </contour>
    <contour>
      <point x="60" y="0" type="line"/>
      <point x="441" y="0" type="line"/>
      <point x="441" y="68" type="line"/>
      <point x="191" y="68" type="line"/>
      <point x="191" y="313" type="line"/>
      <point x="379" y="313" type="line"/>
      <point x="379" y="381" type="line"/>
      <point x="191" y="381" type="line"/>
      <point x="191" y="625" type="line"/>
      <point x="441" y="625" type="line"/>
      <point x="441" y="693" type="line"/>
      <point x="60" y="693" type="line"/>
    </contour>
  </outline>
</glyph>
<glyph name="Ecircumflex" format="1">
  <advance width="501"/>
  <unicode hex="00CA"/>
  <outline>
    <contour>
      <point x="310" y="750" type="line"/>
      <point x="379" y="750" type="line"/>
      <point x="379" y="818" type="line"/>
      <point x="316" y="818" type="line"/>
      <point x="316" y="881" type="line"/>
      <point x="185" y="881" type="line"/>
      <point x="185" y="818" type="line"/>
      <point x="123" y="818" type="line"/>
      <point x="123" y="750" type="line"/>
      <point x="191" y="750" type="line"/>
      <point x="191" y="813" type="line"/>
      <point x="310" y="813" type="line"/>
    </contour>
    <contour>
      <point x="60" y="0" type="line"/>
      <point x="441" y="0" type="line"/>
      <point x="441" y="68" type="line"/>
      <point x="191" y="68" type="line"/>
      <point x="191" y="313" type="line"/>
      <point x="379" y="313" type="line"/>
      <point x="379" y="381" type="line"/>
      <point x="191" y="381" type="line"/>
      <point x="191" y="625" type="line"/>
      <point x="441" y="625" type="line"/>
      <point x="441" y="693" type="line"/>
      <point x="60" y="693" type="line"/>
    </contour>
  </outline>
</glyph>
<glyph name="Igrave" format="1">
  <advance width="251"/>
  <unicode hex="00CC"/>
  <outline>
    <contour>
      <point x="123" y="750" type="line"/>
      <point x="191" y="750" type="line"/>
      <point x="191" y="818" type="line"/>
      <point x="128" y="818" type="line"/>
      <point x="128" y="881" type="line"/>
      <point x="60" y="881" type="line"/>
      <point x="60" y="813" type="line"/>
      <point x="123" y="813" type="line"/>
    </contour>
    <contour>
      <point x="60" y="0" type="line"/>
      <point x="191" y="0" type="line"/>
      <point x="191" y="693" type="line"/>
      <point x="60" y="693" type="line"/>
    </contour>
  </outline>
</glyph>
<glyph name="Idieresis" format="1">
  <advance width="251"/>
  <unicode hex="00CF"/>
  <outline>
    <contour>
      <point x="185" y="750" type="line"/>
      <point x="253" y="750" type="line"/>
      <point x="253" y="818" type="line"/>
      <point x="185" y="818" type="line"/>
    </contour>
    <contour>
      <point x="-2" y="750" type="line"/>
      <point x="66" y="750" type="line"/>
      <point x="66" y="818" type="line"/>
      <point x="-2" y="818" type="line"/>
    </contour>
    <contour>
      <point x="60" y="0" type="line"/>
      <point x="191" y="0" type="line"/>
      <point x="191" y="693" type="line"/>
      <point x="60" y="693" type="line"/>
    </contour>
  </outline>
</glyph>
<glyph name="Eth" format="1">
  <advance width="626"/>
  <unicode hex="00D0"/>
  <outline>
    <contour>
      <point x="503" y="125" type="line"/>
      <point x="566" y="125" type="line"/>
      <point x="566" y="568" type="line"/>
      <point x="503" y="568" type="line"/>
      <point x="503" y="631" type="line"/>
      <point x="441" y="631" type="line"/>
      <point x="441" y="693" type="line"/>
      <point x="60" y="693" type="line"/>
      <point x="60" y="381" type="line"/>
      <point x="-2" y="381" type="line"/>
      <point x="-2" y="313" type="line"/>
      <point x="60" y="313" type="line"/>
      <point x="60" y="0" type="line"/>
      <point x="441" y="0" type="line"/>
      <point x="441" y="63" type="line"/>
      <point x="503" y="63" type="line"/>
    </contour>
    <contour>
      <point x="435" y="625" type="line"/>
      <point x="435" y="68" type="line"/>
      <point x="191" y="68" type="line"/>
      <point x="191" y="313" type="line"/>
      <point x="253" y="313" type="line"/>
      <point x="253" y="381" type="line"/>
      <point x="191" y="381" type="line"/>
      <point x="191" y="625" type="line"/>
    </contour>
  </outline>
</glyph>
<glyph name="Otilde" format="1">
  <advance width="626"/>
  <unicode hex="00D5"/>
  <outline>
    <contour>
      <point x="379" y="813" type="line"/>
      <point x="441" y="813" type="line"/>
      <point x="441" y="881" type="line"/>
      <point x="373" y="881" type="line"/>
      <point x="373" y="818" type="line"/>
      <point x="316" y="818" type="line"/>
      <point x="316" y="881" type="line"/>
      <point x="248" y="881" type="line"/>
      <point x="248" y="818" type="line"/>
      <point x="185" y="818" type="line"/>
      <point x="185" y="750" type="line"/>
      <point x="254" y="750" type="line"/>
      <point x="254" y="813" type="line"/>
      <point x="310" y="813" type="line"/>
      <point x="310" y="750" type="line"/>
      <point x="379" y="750" type="line"/>
    </contour>
    <contour>
      <point x="504" y="63" type="line"/>
      <point x="566" y="63" type="line"/>
      <point x="566" y="631" type="line"/>
      <point x="503" y="631" type="line"/>
      <point x="503" y="693" type="line"/>
      <point x="123" y="693" type="line"/>
      <point x="123" y="631" type="line"/>
      <point x="60" y="631" type="line"/>
      <point x="60" y="63" type="line"/>
      <point x="123" y="63" type="line"/>
      <point x="123" y="0" type="line"/>
      <point x="504" y="0" type="line"/>
    </contour>
    <contour>
      <point x="435" y="625" type="line"/>
      <point x="435" y="68" type="line"/>
      <point x="191" y="68" type="line"/>
      <point x="191" y="625" type="line"/>
    </contour>
  </outline>
</glyph>
<glyph name="multiply" format="1">
  <advance width="563"/>
  <unicode hex="00D7"/>
  <outline>
    <contour>
      <point x="435" y="63" type="line"/>
      <point x="503" y="63" type="line"/>
      <point x="503" y="131" type="line"/>
      <point x="441" y="131" type="line"/>
      <point x="441" y="193" type="line"/>
      <point x="378" y="193" type="line"/>
      <point x="378" y="256" type="line"/>
      <point x="316" y="256" type="line"/>
      <point x="316" y="313" type="line"/>
      <point x="378" y="313" type="line"/>
      <point x="378" y="375" type="line"/>
      <point x="441" y="375" type="line"/>
      <point x="441" y="438" type="line"/>
      <point x="503" y="438" type="line"/>
      <point x="503" y="506" type="line"/>
      <point x="435" y="506" type="line"/>
      <point x="435" y="443" type="line"/>
      <point x="373" y="443" type="line"/>
      <point x="373" y="381" type="line"/>
      <point x="310" y="381" type="line"/>
      <point x="310" y="318" type="line"/>
      <point x="253" y="318" type="line"/>
      <point x="253" y="381" type="line"/>
      <point x="191" y="381" type="line"/>
      <point x="191" y="443" type="line"/>
      <point x="128" y="443" type="line"/>
      <point x="128" y="506" type="line"/>
      <point x="60" y="506" type="line"/>
      <point x="60" y="438" type="line"/>
      <point x="123" y="438" type="line"/>
      <point x="123" y="375" type="line"/>
      <point x="185" y="375" type="line"/>
      <point x="185" y="313" type="line"/>
      <point x="248" y="313" type="line"/>
      <point x="248" y="256" type="line"/>
      <point x="185" y="256" type="line"/>
      <point x="185" y="193" type="line"/>
      <point x="123" y="193" type="line"/>
      <point x="123" y="131" type="line"/>
      <point x="60" y="131" type="line"/>
      <point x="60" y="63" type="line"/>
      <point x="128" y="63" type="line"/>
      <point x="128" y="125" type="line"/>
      <point x="191" y="125" type="line"/>
      <point x="191" y="188" type="line"/>
      <point x="253" y="188" type="line"/>
      <point x="253" y="250" type="line"/>
      <point x="310" y="250" type="line"/>
      <point x="310" y="188" type="line"/>
      <point x="373" y="188" type="line"/>
      <point x="373" y="125" type="line"/>
      <point x="435" y="125" type="line"/>
    </contour>
  </outline>
</glyph>
<glyph name="Oslash" format="1">
  <advance width="688"/>
  <unicode hex="00D8"/>
  <outline>
    <contour>
      <point x="565" y="500" type="line"/>
      <point x="628" y="500" type="line"/>
      <point x="628" y="568" type="line"/>
      <point x="565" y="568" type="line"/>
      <point x="565" y="631" type="line"/>
      <point x="503" y="631" type="line"/>
      <point x="503" y="693" type="line"/>
      <point x="185" y="693" type="line"/>
      <point x="185" y="631" type="line"/>
      <point x="122" y="631" type="line"/>
      <point x="122" y="193" type="line"/>
      <point x="60" y="193" type="line"/>
      <point x="60" y="125" type="line"/>
      <point x="122" y="125" type="line"/>
      <point x="122" y="63" type="line"/>
      <point x="185" y="63" type="line"/>
      <point x="185" y="0" type="line"/>
      <point x="503" y="0" type="line"/>
      <point x="503" y="63" type="line"/>
      <point x="565" y="63" type="line"/>
    </contour>
    <contour>
      <point x="435" y="375" type="line"/>
      <point x="435" y="68" type="line"/>
      <point x="253" y="68" type="line"/>
      <point x="253" y="250" type="line"/>
      <point x="315" y="250" type="line"/>
      <point x="315" y="318" type="line"/>
      <point x="253" y="318" type="line"/>
      <point x="253" y="625" type="line"/>
      <point x="435" y="625" type="line"/>
      <point x="435" y="443" type="line"/>
      <point x="372" y="443" type="line"/>
      <point x="372" y="375" type="line"/>
    </contour>
    <contour>
      <point x="310" y="313" type="line"/>
      <point x="378" y="313" type="line"/>
      <point x="378" y="381" type="line"/>
      <point x="310" y="381" type="line"/>
    </contour>
  </outline>
</glyph>
<glyph name="Ugrave" format="1">
  <advance width="564"/>
  <unicode hex="00D9"/>
  <outline>
    <contour>
      <point x="248" y="750" type="line"/>
      <point x="316" y="750" type="line"/>
      <point x="316" y="818" type="line"/>
      <point x="253" y="818" type="line"/>
      <point x="253" y="881" type="line"/>
      <point x="185" y="881" type="line"/>
      <point x="185" y="813" type="line"/>
      <point x="248" y="813" type="line"/>
    </contour>
    <contour>
      <point x="435" y="0" type="line"/>
      <point x="504" y="0" type="line"/>
      <point x="504" y="693" type="line"/>
      <point x="373" y="693" type="line"/>
      <point x="373" y="131" type="line"/>
      <point x="310" y="131" type="line"/>
      <point x="310" y="68" type="line"/>
      <point x="191" y="68" type="line"/>
      <point x="191" y="693" type="line"/>
      <point x="60" y="693" type="line"/>
      <point x="60" y="63" type="line"/>
      <point x="123" y="63" type="line"/>
      <point x="123" y="0" type="line"/>
      <point x="316" y="0" type="line"/>
      <point x="316" y="63" type="line"/>
      <point x="435" y="63" type="line"/>
    </contour>
  </outline>
</glyph>
<glyph name="Udieresis" format="1">
  <advance width="564"/>
  <unicode hex="00DC"/>
  <outline>
    <contour>
      <point x="310" y="750" type="line"/>
      <point x="379" y="750" type="line"/>
      <point x="379" y="818" type="line"/>
      <point x="310" y="818" type="line"/>
    </contour>
    <contour>
      <point x="185" y="750" type="line"/>
      <point x="254" y="750" type="line"/>
      <point x="254" y="818" type="line"/>
      <point x="185" y="818" type="line"/>
    </contour>
    <contour>
      <point x="435" y="0" type="line"/>
      <point x="504" y="0" type="line"/>
      <point x="504" y="693" type="line"/>
      <point x="373" y="693" type="line"/>
      <point x="373" y="131" type="line"/>
      <point x="310" y="131" type="line"/>
      <point x="310" y="68" type="line"/>
      <point x="191" y="68" type="line"/>
      <point x="191" y="693" type="line"/>
      <point x="60" y="693" type="line"/>
      <point x="60" y="63" type="line"/>
      <point x="123" y="63" type="line"/>
      <point x="123" y="0" type="line"/>
      <point x="316" y="0" type="line"/>
      <point x="316" y="63" type="line"/>
      <point x="435" y="63" type="line"/>
    </contour>
  </outline>
</glyph>
<glyph name="Thorn" format="1">
  <advance width="501"/>
  <unicode hex="00DE"/>
  <outline>
    <contour>
      <point x="378" y="250" type="line"/>
      <point x="441" y="250" type="line"/>
      <point x="441" y="506" type="line"/>
      <point x="378" y="506" type="line"/>
      <point x="378" y="568" type="line"/>
      <point x="191" y="568" type="line"/>
      <point x="191" y="693" type="line"/>
      <point x="60" y="693" type="line"/>
      <point x="60" y="0" type="line"/>
      <point x="191" y="0" type="line"/>
      <point x="191" y="188" type="line"/>
      <point x="378" y="188" type="line"/>
    </contour>
    <contour>
      <point x="310" y="500" type="line"/>
      <point x="310" y="256" type="line"/>
      <point x="191" y="256" type="line"/>
      <point x="191" y="500" type="line"/>
    </contour>
  </outline>
</glyph>
<glyph name="germandbls" format="1">
  <advance width="688"/>
  <unicode hex="00DF"/>
  <outline>
    <contour>
      <point x="565" y="63" type="line"/>
      <point x="628" y="63" type="line"/>
      <point x="628" y="256" type="line"/>
      <point x="565" y="256" type="line"/>
      <point x="565" y="318" type="line"/>
      <point x="440" y="318" type="line"/>
      <point x="440" y="500" type="line"/>
      <point x="503" y="500" type="line"/>
      <point x="503" y="563" type="line"/>
      <point x="565" y="563" type="line"/>
      <point x="565" y="693" type="line"/>
      <point x="503" y="693" type="line"/>
      <point x="503" y="756" type="line"/>
      <point x="437" y="756" type="line"/>
      <point x="185" y="756" type="line"/>
      <point x="185" y="693" type="line"/>
      <point x="122" y="693" type="line"/>
      <point x="122" y="568" type="line"/>
      <point x="60" y="568" type="line"/>
      <point x="60" y="500" type="line"/>
      <point x="122" y="500" type="line"/>
      <point x="122" y="-119" type="line"/>
      <point x="60" y="-119" type="line"/>
      <point x="60" y="-187" type="line"/>
      <point x="190" y="-187" type="line"/>
      <point x="190" y="-125" type="line"/>
      <point x="253" y="-125" type="line"/>
      <point x="253" y="566" type="line"/>
      <point x="253" y="688" type="line"/>
      <point x="435" y="688" type="line"/>
      <point x="435" y="568" type="line"/>
      <point x="372" y="568" type="line"/>
      <point x="372" y="506" type="line"/>
      <point x="310" y="506" type="line"/>
      <point x="310" y="313" type="line"/>
      <point x="372" y="313" type="line"/>
      <point x="372" y="250" type="line"/>
      <point x="497" y="250" type="line"/>
      <point x="497" y="68" type="line"/>
      <point x="440" y="68" type="line"/>
      <point x="440" y="193" type="line"/>
      <point x="310" y="193" type="line"/>
      <point x="310" y="63" type="line"/>
      <point x="372" y="63" type="line"/>
      <point x="372" y="0" type="line"/>
      <point x="565" y="0" type="line"/>
    </contour>
  </outline>
</glyph>
<glyph name="agrave" format="1">
  <advance width="501"/>
  <unicode hex="00E0"/>
  <outline>
    <contour>
      <point x="248" y="625" type="line"/>
      <point x="316" y="625" type="line"/>
      <point x="316" y="693" type="line"/>
      <point x="253" y="693" type="line"/>
      <point x="253" y="756" type="line"/>
      <point x="185" y="756" type="line"/>
      <point x="185" y="688" type="line"/>
      <point x="248" y="688" type="line"/>
    </contour>
    <contour>
      <point x="373" y="0" type="line"/>
      <point x="441" y="0" type="line"/>
      <point x="441" y="506" type="line"/>
      <point x="378" y="506" type="line"/>
      <point x="378" y="568" type="line"/>
      <point x="123" y="568" type="line"/>
      <point x="123" y="506" type="line"/>
      <point x="60" y="506" type="line"/>
      <point x="60" y="375" type="line"/>
      <point x="191" y="375" type="line"/>
      <point x="191" y="500" type="line"/>
      <point x="310" y="500" type="line"/>
      <point x="310" y="318" type="line"/>
      <point x="123" y="318" type="line"/>
      <point x="123" y="256" type="line"/>
      <point x="60" y="256" type="line"/>
      <point x="60" y="63" type="line"/>
      <point x="123" y="63" type="line"/>
      <point x="123" y="0" type="line"/>
      <point x="316" y="0" type="line"/>
      <point x="316" y="63" type="line"/>
      <point x="373" y="63" type="line"/>
    </contour>
    <contour>
      <point x="310" y="250" type="line"/>
      <point x="310" y="68" type="line"/>
      <point x="191" y="68" type="line"/>
      <point x="191" y="250" type="line"/>
    </contour>
  </outline>
</glyph>
<glyph name="acircumflex" format="1">
  <advance width="501"/>
  <unicode hex="00E2"/>
  <outline>
    <contour>
      <point x="310" y="625" type="line"/>
      <point x="379" y="625" type="line"/>
      <point x="379" y="693" type="line"/>
      <point x="316" y="693" type="line"/>
      <point x="316" y="756" type="line"/>
      <point x="185" y="756" type="line"/>
      <point x="185" y="693" type="line"/>
      <point x="123" y="693" type="line"/>
      <point x="123" y="625" type="line"/>
      <point x="191" y="625" type="line"/>
      <point x="191" y="688" type="line"/>
      <point x="310" y="688" type="line"/>
    </contour>
    <contour>
      <point x="373" y="0" type="line"/>
      <point x="441" y="0" type="line"/>
      <point x="441" y="506" type="line"/>
      <point x="378" y="506" type="line"/>
      <point x="378" y="568" type="line"/>
      <point x="123" y="568" type="line"/>
      <point x="123" y="506" type="line"/>
      <point x="60" y="506" type="line"/>
      <point x="60" y="375" type="line"/>
      <point x="191" y="375" type="line"/>
      <point x="191" y="500" type="line"/>
      <point x="310" y="500" type="line"/>
      <point x="310" y="318" type="line"/>
      <point x="123" y="318" type="line"/>
      <point x="123" y="256" type="line"/>
      <point x="60" y="256" type="line"/>
      <point x="60" y="63" type="line"/>
      <point x="123" y="63" type="line"/>
      <point x="123" y="0" type="line"/>
      <point x="316" y="0" type="line"/>
      <point x="316" y="63" type="line"/>
      <point x="373" y="63" type="line"/>
    </contour>
    <contour>
      <point x="310" y="250" type="line"/>
      <point x="310" y="68" type="line"/>
      <point x="191" y="68" type="line"/>
      <point x="191" y="250" type="line"/>
    </contour>
  </outline>
</glyph>
<glyph name="ccedilla" format="1">
  <advance width="501"/>
  <unicode hex="00E7"/>
  <outline>
    <contour>
      <point x="379" y="63" type="line"/>
      <point x="441" y="63" type="line"/>
      <point x="441" y="193" type="line"/>
      <point x="310" y="193" type="line"/>
      <point x="310" y="68" type="line"/>
      <point x="191" y="68" type="line"/>
      <point x="191" y="500" type="line"/>
      <point x="310" y="500" type="line"/>
      <point x="310" y="375" type="line"/>
      <point x="441" y="375" type="line"/>
      <point x="441" y="506" type="line"/>
      <point x="378" y="506" type="line"/>
      <point x="378" y="568" type="line"/>
      <point x="123" y="568" type="line"/>
      <point x="123" y="506" type="line"/>
      <point x="60" y="506" type="line"/>
      <point x="60" y="63" type="line"/>
      <point x="123" y="63" type="line"/>
      <point x="123" y="0" type="line"/>
      <point x="185" y="0" type="line"/>
      <point x="185" y="-62" type="line"/>
      <point x="248" y="-62" type="line"/>
      <point x="248" y="-119" type="line"/>
      <point x="123" y="-119" type="line"/>
      <point x="123" y="-187" type="line"/>
      <point x="254" y="-187" type="line"/>
      <point x="254" y="-125" type="line"/>
      <point x="316" y="-125" type="line"/>
      <point x="316" y="-57" type="line"/>
      <point x="253" y="-57" type="line"/>
      <point x="253" y="0" type="line"/>
      <point x="379" y="0" type="line"/>
    </contour>
  </outline>
</glyph>
<glyph name="eacute" format="1">
  <advance width="501"/>
  <unicode hex="00E9"/>
  <outline>
    <contour>
      <point x="254" y="688" type="line"/>
      <point x="316" y="688" type="line"/>
      <point x="316" y="756" type="line"/>
      <point x="248" y="756" type="line"/>
      <point x="248" y="693" type="line"/>
      <point x="185" y="693" type="line"/>
      <point x="185" y="625" type="line"/>
      <point x="254" y="625" type="line"/>
    </contour>
    <contour>
      <point x="379" y="63" type="line"/>
      <point x="441" y="63" type="line"/>
      <point x="441" y="193" type="line"/>
      <point x="310" y="193" type="line"/>
      <point x="310" y="68" type="line"/>
      <point x="191" y="68" type="line"/>
      <point x="191" y="250" type="line"/>
      <point x="379" y="250" type="line"/>
      <point x="379" y="313" type="line"/>
      <point x="441" y="313" type="line"/>
      <point x="441" y="506" type="line"/>
      <point x="378" y="506" type="line"/>
      <point x="378" y="568" type="line"/>
      <point x="123" y="568" type="line"/>
      <point x="123" y="506" type="line"/>
      <point x="60" y="506" type="line"/>
      <point x="60" y="63" type="line"/>
      <point x="123" y="63" type="line"/>
      <point x="123" y="0" type="line"/>
      <point x="379" y="0" type="line"/>
    </contour>
    <contour>
      <point x="310" y="500" type="line"/>
      <point x="310" y="318" type="line"/>
      <point x="191" y="318" type="line"/>
      <point x="191" y="500" type="line"/>
    </contour>
  </outline>
</glyph>
<glyph name="edieresis" format="1">
  <advance width="501"/>
  <unicode hex="00EB"/>
  <outline>
    <contour>
      <point x="310" y="625" type="line"/>
      <point x="379" y="625" type="line"/>
      <point x="379" y="693" type="line"/>
      <point x="310" y="693" type="line"/>
    </contour>
    <contour>
      <point x="123" y="625" type="line"/>
      <point x="191" y="625" type="line"/>
      <point x="191" y="693" type="line"/>
      <point x="123" y="693" type="line"/>
    </contour>
    <contour>
      <point x="379" y="63" type="line"/>
      <point x="441" y="63" type="line"/>
      <point x="441" y="193" type="line"/>
      <point x="310" y="193" type="line"/>
      <point x="310" y="68" type="line"/>
      <point x="191" y="68" type="line"/>
      <point x="191" y="250" type="line"/>
      <point x="379" y="250" type="line"/>
      <point x="379" y="313" type="line"/>
      <point x="441" y="313" type="line"/>
      <point x="441" y="506" type="line"/>
      <point x="378" y="506" type="line"/>
      <point x="378" y="568" type="line"/>
      <point x="123" y="568" type="line"/>
      <point x="123" y="506" type="line"/>
      <point x="60" y="506" type="line"/>
      <point x="60" y="63" type="line"/>
      <point x="123" y="63" type="line"/>
      <point x="123" y="0" type="line"/>
      <point x="379" y="0" type="line"/>
    </contour>
    <contour>
      <point x="310" y="500" type="line"/>
      <point x="310" y="318" type="line"/>
      <point x="191" y="318" type="line"/>
      <point x="191" y="500" type="line"/>
    </contour>
  </outline>
</glyph>
<glyph name="igrave" format="1">
  <advance width="251"/>
  <unicode hex="00EC"/>
  <outline>
    <contour>
      <point x="123" y="625" type="line"/>
      <point x="191" y="625" type="line"/>
      <point x="191" y="693" type="line"/>
      <point x="128" y="693" type="line"/>
      <point x="128" y="756" type="line"/>
      <point x="60" y="756" type="line"/>
      <point x="60" y="688" type="line"/>
      <point x="123" y="688" type="line"/>
    </contour>
    <contour>
      <point x="60" y="0" type="line"/>
      <point x="191" y="0" type="line"/>
      <point x="191" y="568" type="line"/>
      <point x="60" y="568" type="line"/>
    </contour>
  </outline>
</glyph>
<glyph name="iacute" format="1">
  <advance width="251"/>
  <unicode hex="00ED"/>
  <outline>
    <contour>
      <point x="128" y="688" type="line"/>
      <point x="191" y="688" type="line"/>
      <point x="191" y="756" type="line"/>
      <point x="123" y="756" type="line"/>
      <point x="123" y="693" type="line"/>
      <point x="60" y="693" type="line"/>
      <point x="60" y="625" type="line"/>
      <point x="128" y="625" type="line"/>
    </contour>
    <contour>
      <point x="60" y="0" type="line"/>
      <point x="191" y="0" type="line"/>
      <point x="191" y="568" type="line"/>
      <point x="60" y="568" type="line"/>
    </contour>
  </outline>
</glyph>
<glyph name="icircumflex" format="1">
  <advance width="251"/>
  <unicode hex="00EE"/>
  <outline>
    <contour>
      <point x="185" y="625" type="line"/>
      <point x="253" y="625" type="line"/>
      <point x="253" y="693" type="line"/>
      <point x="191" y="693" type="line"/>
      <point x="191" y="756" type="line"/>
      <point x="60" y="756" type="line"/>
      <point x="60" y="693" type="line"/>
      <point x="-2" y="693" type="line"/>
      <point x="-2" y="625" type="line"/>
      <point x="66" y="625" type="line"/>
      <point x="66" y="688" type="line"/>
      <point x="185" y="688" type="line"/>
    </contour>
    <contour>
      <point x="60" y="0" type="line"/>
      <point x="191" y="0" type="line"/>
      <point x="191" y="568" type="line"/>
      <point x="60" y="568" type="line"/>
    </contour>
  </outline>
</glyph>
<glyph name="idieresis" format="1">
  <advance width="251"/>
  <unicode hex="00EF"/>
  <outline>
    <contour>
      <point x="185" y="625" type="line"/>
      <point x="253" y="625" type="line"/>
      <point x="253" y="693" type="line"/>
      <point x="185" y="693" type="line"/>
    </contour>
    <contour>
      <point x="-2" y="625" type="line"/>
      <point x="66" y="625" type="line"/>
      <point x="66" y="693" type="line"/>
      <point x="-2" y="693" type="line"/>
    </contour>
    <contour>
      <point x="60" y="0" type="line"/>
      <point x="191" y="0" type="line"/>
      <point x="191" y="568" type="line"/>
      <point x="60" y="568" type="line"/>
    </contour>
  </outline>
</glyph>
<glyph name="ntilde" format="1">
  <advance width="501"/>
  <unicode hex="00F1"/>
  <outline>
    <contour>
      <point x="316" y="688" type="line"/>
      <point x="379" y="688" type="line"/>
      <point x="379" y="756" type="line"/>
      <point x="310" y="756" type="line"/>
      <point x="310" y="693" type="line"/>
      <point x="253" y="693" type="line"/>
      <point x="253" y="756" type="line"/>
      <point x="185" y="756" type="line"/>
      <point x="185" y="693" type="line"/>
      <point x="123" y="693" type="line"/>
      <point x="123" y="625" type="line"/>
      <point x="191" y="625" type="line"/>
      <point x="191" y="688" type="line"/>
      <point x="248" y="688" type="line"/>
      <point x="248" y="625" type="line"/>
      <point x="316" y="625" type="line"/>
    </contour>
    <contour>
      <point x="310" y="0" type="line"/>
      <point x="441" y="0" type="line"/>
      <point x="441" y="506" type="line"/>
      <point x="378" y="506" type="line"/>
      <point x="378" y="568" type="line"/>
      <point x="248" y="568" type="line"/>
      <point x="248" y="506" type="line"/>
      <point x="128" y="506" type="line"/>
      <point x="128" y="568" type="line"/>
      <point x="60" y="568" type="line"/>
      <point x="60" y="0" type="line"/>
      <point x="191" y="0" type="line"/>
      <point x="191" y="438" type="line"/>
      <point x="254" y="438" type="line"/>
      <point x="254" y="500" type="line"/>
      <point x="310" y="500" type="line"/>
    </contour>
  </outline>
</glyph>
<glyph name="divide" format="1">
  <advance width="563"/>
  <unicode hex="00F7"/>
  <outline>
    <contour>
      <point x="248" y="375" type="line"/>
      <point x="316" y="375" type="line"/>
      <point x="316" y="443" type="line"/>
      <point x="248" y="443" type="line"/>
    </contour>
    <contour>
      <point x="60" y="250" type="line"/>
      <point x="503" y="250" type="line"/>
      <point x="503" y="318" type="line"/>
      <point x="60" y="318" type="line"/>
    </contour>
    <contour>
      <point x="248" y="125" type="line"/>
      <point x="316" y="125" type="line"/>
      <point x="316" y="193" type="line"/>
      <point x="248" y="193" type="line"/>
    </contour>
  </outline>
</glyph>
<glyph name="oslash" format="1">
  <advance width="501"/>
  <unicode hex="00F8"/>
  <outline>
    <contour>
      <point x="378" y="63" type="line"/>
      <point x="441" y="63" type="line"/>
      <point x="441" y="506" type="line"/>
      <point x="378" y="506" type="line"/>
      <point x="378" y="568" type="line"/>
      <point x="123" y="568" type="line"/>
      <point x="123" y="506" type="line"/>
      <point x="60" y="506" type="line"/>
      <point x="60" y="63" type="line"/>
      <point x="123" y="63" type="line"/>
      <point x="123" y="0" type="line"/>
      <point x="378" y="0" type="line"/>
    </contour>
    <contour>
      <point x="310" y="500" type="line"/>
      <point x="310" y="381" type="line"/>
      <point x="248" y="381" type="line"/>
      <point x="248" y="318" type="line"/>
      <point x="191" y="318" type="line"/>
      <point x="191" y="500" type="line"/>
    </contour>
    <contour>
      <point x="310" y="250" type="line"/>
      <point x="310" y="68" type="line"/>
      <point x="191" y="68" type="line"/>
      <point x="191" y="188" type="line"/>
      <point x="253" y="188" type="line"/>
      <point x="253" y="250" type="line"/>
    </contour>
  </outline>
</glyph>
<glyph name="ugrave" format="1">
  <advance width="501"/>
  <unicode hex="00F9"/>
  <outline>
    <contour>
      <point x="248" y="625" type="line"/>
      <point x="316" y="625" type="line"/>
      <point x="316" y="693" type="line"/>
      <point x="253" y="693" type="line"/>
      <point x="253" y="756" type="line"/>
      <point x="185" y="756" type="line"/>
      <point x="185" y="688" type="line"/>
      <point x="248" y="688" type="line"/>
    </contour>
    <contour>
      <point x="373" y="0" type="line"/>
      <point x="441" y="0" type="line"/>
      <point x="441" y="568" type="line"/>
      <point x="310" y="568" type="line"/>
      <point x="310" y="131" type="line"/>
      <point x="248" y="131" type="line"/>
      <point x="248" y="68" type="line"/>
      <point x="191" y="68" type="line"/>
      <point x="191" y="568" type="line"/>
      <point x="60" y="568" type="line"/>
      <point x="60" y="63" type="line"/>
      <point x="123" y="63" type="line"/>
      <point x="123" y="0" type="line"/>
      <point x="254" y="0" type="line"/>
      <point x="254" y="63" type="line"/>
      <point x="373" y="63" type="line"/>
    </contour>
  </outline>
</glyph>
<glyph name="yacute" format="1">
  <advance width="501"/>
  <unicode hex="00FD"/>
  <outline>
    <contour>
      <point x="253" y="688" type="line"/>
      <point x="316" y="688" type="line"/>
      <point x="316" y="756" type="line"/>
      <point x="248" y="756" type="line"/>
      <point x="248" y="693" type="line"/>
      <point x="185" y="693" type="line"/>
      <point x="185" y="625" type="line"/>
      <point x="253" y="625" type="line"/>
    </contour>
    <contour>
      <point x="316" y="-125" type="line"/>
      <point x="441" y="-125" type="line"/>
      <point x="441" y="568" type="line"/>
      <point x="310" y="568" type="line"/>
      <point x="310" y="131" type="line"/>
      <point x="248" y="131" type="line"/>
      <point x="248" y="68" type="line"/>
      <point x="191" y="68" type="line"/>
      <point x="191" y="568" type="line"/>
      <point x="60" y="568" type="line"/>
      <point x="60" y="63" type="line"/>
      <point x="123" y="63" type="line"/>
      <point x="123" y="0" type="line"/>
      <point x="253" y="0" type="line"/>
      <point x="253" y="63" type="line"/>
      <point x="310" y="63" type="line"/>
      <point x="310" y="-119" type="line"/>
      <point x="191" y="-119" type="line"/>
      <point x="191" y="-57" type="line"/>
      <point x="60" y="-57" type="line"/>
      <point x="60" y="-125" type="line"/>
      <point x="123" y="-125" type="line"/>
      <point x="123" y="-187" type="line"/>
      <point x="316" y="-187" type="line"/>
    </contour>
  </outline>
</glyph>
<glyph name="dotlessi" format="1">
  <advance width="251"/>
  <unicode hex="0131"/>
  <outline>
    <contour>
      <point x="60" y="0" type="line"/>
      <point x="191" y="0" type="line"/>
      <point x="191" y="568" type="line"/>
      <point x="60" y="568" type="line"/>
    </contour>
  </outline>
</glyph>
<glyph name="Lslash" format="1">
  <advance width="566"/>
  <unicode hex="0141"/>
  <outline>
    <contour>
      <point x="125" y="0" type="line"/>
      <point x="506" y="0" type="line"/>
      <point x="506" y="68" type="line"/>
      <point x="256" y="68" type="line"/>
      <point x="256" y="375" type="line"/>
      <point x="318" y="375" type="line"/>
      <point x="318" y="438" type="line"/>
      <point x="381" y="438" type="line"/>
      <point x="381" y="506" type="line"/>
      <point x="313" y="506" type="line"/>
      <point x="313" y="443" type="line"/>
      <point x="256" y="443" type="line"/>
      <point x="256" y="693" type="line"/>
      <point x="125" y="693" type="line"/>
      <point x="125" y="381" type="line"/>
      <point x="63" y="381" type="line"/>
      <point x="63" y="318" type="line"/>
      <point x="0" y="318" type="line"/>
      <point x="0" y="250" type="line"/>
      <point x="68" y="250" type="line"/>
      <point x="68" y="313" type="line"/>
      <point x="125" y="313" type="line"/>
    </contour>
  </outline>
</glyph>
<glyph name="lslash" format="1">
  <advance width="441"/>
  <unicode hex="0142"/>
  <outline>
    <contour>
      <point x="318" y="438" type="line"/>
      <point x="381" y="438" type="line"/>
      <point x="381" y="506" type="line"/>
      <point x="313" y="506" type="line"/>
      <point x="313" y="443" type="line"/>
      <point x="256" y="443" type="line"/>
      <point x="256" y="756" type="line"/>
      <point x="125" y="756" type="line"/>
      <point x="125" y="381" type="line"/>
      <point x="63" y="381" type="line"/>
      <point x="63" y="318" type="line"/>
      <point x="0" y="318" type="line"/>
      <point x="0" y="250" type="line"/>
      <point x="68" y="250" type="line"/>
      <point x="68" y="313" type="line"/>
      <point x="125" y="313" type="line"/>
      <point x="125" y="63" type="line"/>
      <point x="188" y="63" type="line"/>
      <point x="188" y="0" type="line"/>
      <point x="318" y="0" type="line"/>
      <point x="318" y="68" type="line"/>
      <point x="256" y="68" type="line"/>
      <point x="256" y="375" type="line"/>
      <point x="318" y="375" type="line"/>
    </contour>
  </outline>
</glyph>
<glyph name="OE" format="1">
  <advance width="814"/>
  <unicode hex="0152"/>
  <outline>
    <contour>
      <point x="123" y="0" type="line"/>
      <point x="754" y="0" type="line"/>
      <point x="754" y="68" type="line"/>
      <point x="503" y="68" type="line"/>
      <point x="503" y="313" type="line"/>
      <point x="691" y="313" type="line"/>
      <point x="691" y="381" type="line"/>
      <point x="503" y="381" type="line"/>
      <point x="503" y="625" type="line"/>
      <point x="754" y="625" type="line"/>
      <point x="754" y="693" type="line"/>
      <point x="123" y="693" type="line"/>
      <point x="123" y="631" type="line"/>
      <point x="60" y="631" type="line"/>
      <point x="60" y="63" type="line"/>
      <point x="123" y="63" type="line"/>
    </contour>
    <contour>
      <point x="373" y="625" type="line"/>
      <point x="373" y="68" type="line"/>
      <point x="191" y="68" type="line"/>
      <point x="191" y="625" type="line"/>
    </contour>
  </outline>
</glyph>
<glyph name="oe" format="1">
  <advance width="751"/>
  <unicode hex="0153"/>
  <outline>
    <contour>
      <point x="629" y="63" type="line"/>
      <point x="691" y="63" type="line"/>
      <point x="691" y="193" type="line"/>
      <point x="560" y="193" type="line"/>
      <point x="560" y="68" type="line"/>
      <point x="441" y="68" type="line"/>
      <point x="441" y="250" type="line"/>
      <point x="629" y="250" type="line"/>
      <point x="629" y="313" type="line"/>
      <point x="691" y="313" type="line"/>
      <point x="691" y="506" type="line"/>
      <point x="628" y="506" type="line"/>
      <point x="628" y="568" type="line"/>
      <point x="123" y="568" type="line"/>
      <point x="123" y="506" type="line"/>
      <point x="60" y="506" type="line"/>
      <point x="60" y="63" type="line"/>
      <point x="123" y="63" type="line"/>
      <point x="123" y="0" type="line"/>
      <point x="629" y="0" type="line"/>
    </contour>
    <contour>
      <point x="560" y="500" type="line"/>
      <point x="560" y="318" type="line"/>
      <point x="441" y="318" type="line"/>
      <point x="441" y="500" type="line"/>
    </contour>
    <contour>
      <point x="310" y="500" type="line"/>
      <point x="310" y="68" type="line"/>
      <point x="191" y="68" type="line"/>
      <point x="191" y="500" type="line"/>
    </contour>
  </outline>
</glyph>
<glyph name="Scaron" format="1">
  <advance width="563"/>
  <unicode hex="0160"/>
  <outline>
    <contour>
      <point x="316" y="813" type="line"/>
      <point x="378" y="813" type="line"/>
      <point x="378" y="881" type="line"/>
      <point x="310" y="881" type="line"/>
      <point x="310" y="818" type="line"/>
      <point x="253" y="818" type="line"/>
      <point x="253" y="881" type="line"/>
      <point x="185" y="881" type="line"/>
      <point x="185" y="813" type="line"/>
      <point x="248" y="813" type="line"/>
      <point x="248" y="750" type="line"/>
      <point x="316" y="750" type="line"/>
    </contour>
    <contour>
      <point x="441" y="63" type="line"/>
      <point x="503" y="63" type="line"/>
      <point x="503" y="318" type="line"/>
      <point x="441" y="318" type="line"/>
      <point x="441" y="381" type="line"/>
      <point x="191" y="381" type="line"/>
      <point x="191" y="625" type="line"/>
      <point x="373" y="625" type="line"/>
      <point x="373" y="500" type="line"/>
      <point x="503" y="500" type="line"/>
      <point x="503" y="631" type="line"/>
      <point x="441" y="631" type="line"/>
      <point x="441" y="693" type="line"/>
      <point x="123" y="693" type="line"/>
      <point x="123" y="631" type="line"/>
      <point x="60" y="631" type="line"/>
      <point x="60" y="375" type="line"/>
      <point x="123" y="375" type="line"/>
      <point x="123" y="313" type="line"/>
      <point x="373" y="313" type="line"/>
      <point x="373" y="68" type="line"/>
      <point x="191" y="68" type="line"/>
      <point x="191" y="193" type="line"/>
      <point x="60" y="193" type="line"/>
      <point x="60" y="63" type="line"/>
      <point x="123" y="63" type="line"/>
      <point x="123" y="0" type="line"/>
      <point x="441" y="0" type="line"/>
    </contour>
  </outline>
</glyph>
<glyph name="scaron" format="1">
  <advance width="501"/>
  <unicode hex="0161"/>
  <outline>
    <contour>
      <point x="316" y="688" type="line"/>
      <point x="378" y="688" type="line"/>
      <point x="378" y="756" type="line"/>
      <point x="310" y="756" type="line"/>
      <point x="310" y="693" type="line"/>
      <point x="191" y="693" type="line"/>
      <point x="191" y="756" type="line"/>
      <point x="123" y="756" type="line"/>
      <point x="123" y="688" type="line"/>
      <point x="185" y="688" type="line"/>
      <point x="185" y="625" type="line"/>
      <point x="316" y="625" type="line"/>
    </contour>
    <contour>
      <point x="378" y="63" type="line"/>
      <point x="441" y="63" type="line"/>
      <point x="441" y="256" type="line"/>
      <point x="378" y="256" type="line"/>
      <point x="378" y="318" type="line"/>
      <point x="191" y="318" type="line"/>
      <point x="191" y="500" type="line"/>
      <point x="310" y="500" type="line"/>
      <point x="310" y="375" type="line"/>
      <point x="441" y="375" type="line"/>
      <point x="441" y="506" type="line"/>
      <point x="378" y="506" type="line"/>
      <point x="378" y="568" type="line"/>
      <point x="123" y="568" type="line"/>
      <point x="123" y="506" type="line"/>
      <point x="60" y="506" type="line"/>
      <point x="60" y="313" type="line"/>
      <point x="123" y="313" type="line"/>
      <point x="123" y="250" type="line"/>
      <point x="310" y="250" type="line"/>
      <point x="310" y="68" type="line"/>
      <point x="191" y="68" type="line"/>
      <point x="191" y="193" type="line"/>
      <point x="60" y="193" type="line"/>
      <point x="60" y="63" type="line"/>
      <point x="123" y="63" type="line"/>
      <point x="123" y="0" type="line"/>
      <point x="378" y="0" type="line"/>
    </contour>
  </outline>
</glyph>
<glyph name="Zcaron" format="1">
  <advance width="501"/>
  <unicode hex="017D"/>
  <outline>
    <contour>
      <point x="316" y="813" type="line"/>
      <point x="378" y="813" type="line"/>
      <point x="378" y="881" type="line"/>
      <point x="310" y="881" type="line"/>
      <point x="310" y="818" type="line"/>
      <point x="191" y="818" type="line"/>
      <point x="191" y="881" type="line"/>
      <point x="123" y="881" type="line"/>
      <point x="123" y="813" type="line"/>
      <point x="185" y="813" type="line"/>
      <point x="185" y="750" type="line"/>
      <point x="316" y="750" type="line"/>
    </contour>
    <contour>
      <point x="60" y="0" type="line"/>
      <point x="441" y="0" type="line"/>
      <point x="441" y="68" type="line"/>
      <point x="191" y="68" type="line"/>
      <point x="191" y="188" type="line"/>
      <point x="253" y="188" type="line"/>
      <point x="253" y="313" type="line"/>
      <point x="316" y="313" type="line"/>
      <point x="316" y="375" type="line"/>
      <point x="378" y="375" type="line"/>
      <point x="378" y="500" type="line"/>
      <point x="441" y="500" type="line"/>
      <point x="441" y="693" type="line"/>
      <point x="60" y="693" type="line"/>
      <point x="60" y="625" type="line"/>
      <point x="310" y="625" type="line"/>
      <point x="310" y="506" type="line"/>
      <point x="248" y="506" type="line"/>
      <point x="248" y="381" type="line"/>
      <point x="185" y="381" type="line"/>
      <point x="185" y="318" type="line"/>
      <point x="123" y="318" type="line"/>
      <point x="123" y="193" type="line"/>
      <point x="60" y="193" type="line"/>
    </contour>
  </outline>
</glyph>
<glyph name="zcaron" format="1">
  <advance width="438"/>
  <unicode hex="017E"/>
  <outline>
    <contour>
      <point x="253" y="688" type="line"/>
      <point x="316" y="688" type="line"/>
      <point x="316" y="756" type="line"/>
      <point x="248" y="756" type="line"/>
      <point x="248" y="693" type="line"/>
      <point x="191" y="693" type="line"/>
      <point x="191" y="756" type="line"/>
      <point x="123" y="756" type="line"/>
      <point x="123" y="688" type="line"/>
      <point x="185" y="688" type="line"/>
      <point x="185" y="625" type="line"/>
      <point x="253" y="625" type="line"/>
    </contour>
    <contour>
      <point x="125" y="0" type="line"/>
      <point x="378" y="0" type="line"/>
      <point x="378" y="68" type="line"/>
      <point x="191" y="68" type="line"/>
      <point x="191" y="128" type="line"/>
      <point x="191" y="188" type="line"/>
      <point x="253" y="188" type="line"/>
      <point x="253" y="253" type="line"/>
      <point x="253" y="313" type="line"/>
      <point x="316" y="313" type="line"/>
      <point x="316" y="378" type="line"/>
      <point x="316" y="438" type="line"/>
      <point x="378" y="438" type="line"/>
      <point x="378" y="503" type="line"/>
      <point x="378" y="568" type="line"/>
      <point x="313" y="568" type="line"/>
      <point x="60" y="568" type="line"/>
      <point x="60" y="500" type="line"/>
      <point x="248" y="500" type="line"/>
      <point x="248" y="443" type="line"/>
      <point x="185" y="443" type="line"/>
      <point x="185" y="378" type="line"/>
      <point x="185" y="318" type="line"/>
      <point x="123" y="318" type="line"/>
      <point x="123" y="253" type="line"/>
      <point x="123" y="193" type="line"/>
      <point x="60" y="193" type="line"/>
      <point x="60" y="128" type="line"/>
      <point x="60" y="65" type="line"/>
      <point x="60" y="0" type="line"/>
    </contour>
  </outline>
</glyph>
<glyph name="florin" format="1">
  <advance width="563"/>
  <unicode hex="0192"/>
  <outline>
    <contour>
      <point x="435" y="438" type="line"/>
      <point x="503" y="438" type="line"/>
      <point x="503" y="506" type="line"/>
      <point x="440" y="506" type="line"/>
      <point x="440" y="568" type="line"/>
      <point x="247" y="568" type="line"/>
      <point x="247" y="506" type="line"/>
      <point x="185" y="506" type="line"/>
      <point x="185" y="318" type="line"/>
      <point x="122" y="318" type="line"/>
      <point x="122" y="250" type="line"/>
      <point x="185" y="250" type="line"/>
      <point x="185" y="-119" type="line"/>
      <point x="128" y="-119" type="line"/>
      <point x="128" y="-57" type="line"/>
      <point x="60" y="-57" type="line"/>
      <point x="60" y="-125" type="line"/>
      <point x="122" y="-125" type="line"/>
      <point x="122" y="-187" type="line"/>
      <point x="253" y="-187" type="line"/>
      <point x="253" y="-125" type="line"/>
      <point x="315" y="-125" type="line"/>
      <point x="315" y="250" type="line"/>
      <point x="440" y="250" type="line"/>
      <point x="440" y="318" type="line"/>
      <point x="315" y="318" type="line"/>
      <point x="315" y="500" type="line"/>
      <point x="435" y="500" type="line"/>
    </contour>
  </outline>
</glyph>
<glyph name="circumflex" format="1">
  <advance width="376"/>
  <unicode hex="02C6"/>
  <outline>
    <contour>
      <point x="248" y="625" type="line"/>
      <point x="316" y="625" type="line"/>
      <point x="316" y="693" type="line"/>
      <point x="253" y="693" type="line"/>
      <point x="253" y="756" type="line"/>
      <point x="123" y="756" type="line"/>
      <point x="123" y="693" type="line"/>
      <point x="60" y="693" type="line"/>
      <point x="60" y="625" type="line"/>
      <point x="128" y="625" type="line"/>
      <point x="128" y="688" type="line"/>
      <point x="248" y="688" type="line"/>
    </contour>
  </outline>
</glyph>
<glyph name="caron" format="1">
  <advance width="376"/>
  <unicode hex="02C7"/>
  <outline>
    <contour>
      <point x="253" y="688" type="line"/>
      <point x="316" y="688" type="line"/>
      <point x="316" y="756" type="line"/>
      <point x="248" y="756" type="line"/>
      <point x="248" y="693" type="line"/>
      <point x="128" y="693" type="line"/>
      <point x="128" y="756" type="line"/>
      <point x="60" y="756" type="line"/>
      <point x="60" y="688" type="line"/>
      <point x="123" y="688" type="line"/>
      <point x="123" y="625" type="line"/>
      <point x="253" y="625" type="line"/>
    </contour>
  </outline>
</glyph>
<glyph name="dotaccent" format="1">
  <advance width="251"/>
  <unicode hex="02D9"/>
  <outline>
    <contour>
      <point x="60" y="688" type="line"/>
      <point x="191" y="688" type="line"/>
      <point x="191" y="818" type="line"/>
      <point x="60" y="818" type="line"/>
    </contour>
  </outline>
</glyph>
<glyph name="ring" format="1">
  <advance width="313"/>
  <unicode hex="02DA"/>
  <outline>
    <contour>
      <point x="191" y="688" type="line"/>
      <point x="253" y="688" type="line"/>
      <point x="253" y="756" type="line"/>
      <point x="191" y="756" type="line"/>
      <point x="191" y="818" type="line"/>
      <point x="123" y="818" type="line"/>
      <point x="123" y="756" type="line"/>
      <point x="60" y="756" type="line"/>
      <point x="60" y="688" type="line"/>
      <point x="123" y="688" type="line"/>
      <point x="123" y="625" type="line"/>
      <point x="191" y="625" type="line"/>
    </contour>
    <contour>
      <point x="185" y="750" type="line"/>
      <point x="185" y="693" type="line"/>
      <point x="128" y="693" type="line"/>
      <point x="128" y="750" type="line"/>
    </contour>
  </outline>
</glyph>
<glyph name="ogonek" format="1">
  <advance width="313"/>
  <unicode hex="02DB"/>
  <outline>
    <contour>
      <point x="60" y="-187" type="line"/>
      <point x="253" y="-187" type="line"/>
      <point x="253" y="-119" type="line"/>
      <point x="128" y="-119" type="line"/>
      <point x="128" y="-62" type="line"/>
      <point x="191" y="-62" type="line"/>
      <point x="191" y="6" type="line"/>
      <point x="123" y="6" type="line"/>
      <point x="123" y="-57" type="line"/>
      <point x="60" y="-57" type="line"/>
    </contour>
  </outline>
</glyph>
<glyph name="tilde" format="1">
  <advance width="376"/>
  <unicode hex="02DC"/>
  <outline>
    <contour>
      <point x="253" y="688" type="line"/>
      <point x="316" y="688" type="line"/>
      <point x="316" y="756" type="line"/>
      <point x="248" y="756" type="line"/>
      <point x="248" y="693" type="line"/>
      <point x="191" y="693" type="line"/>
      <point x="191" y="756" type="line"/>
      <point x="123" y="756" type="line"/>
      <point x="123" y="693" type="line"/>
      <point x="60" y="693" type="line"/>
      <point x="60" y="625" type="line"/>
      <point x="128" y="625" type="line"/>
      <point x="128" y="688" type="line"/>
      <point x="185" y="688" type="line"/>
      <point x="185" y="625" type="line"/>
      <point x="253" y="625" type="line"/>
    </contour>
  </outline>
</glyph>
<glyph name="Omega" format="1">
  <advance width="626"/>
  <unicode hex="03A9"/>
  <unicode hex="2126"/>
  <outline>
    <contour>
      <point x="373" y="0" type="line"/>
      <point x="566" y="0" type="line"/>
      <point x="566" y="68" type="line"/>
      <point x="441" y="68" type="line"/>
      <point x="441" y="125" type="line"/>
      <point x="503" y="125" type="line"/>
      <point x="503" y="188" type="line"/>
      <point x="566" y="188" type="line"/>
      <point x="566" y="506" type="line"/>
      <point x="503" y="506" type="line"/>
      <point x="503" y="568" type="line"/>
      <point x="123" y="568" type="line"/>
      <point x="123" y="506" type="line"/>
      <point x="60" y="506" type="line"/>
      <point x="60" y="188" type="line"/>
      <point x="123" y="188" type="line"/>
      <point x="123" y="125" type="line"/>
      <point x="185" y="125" type="line"/>
      <point x="185" y="68" type="line"/>
      <point x="60" y="68" type="line"/>
      <point x="60" y="0" type="line"/>
      <point x="253" y="0" type="line"/>
      <point x="253" y="131" type="line"/>
      <point x="191" y="131" type="line"/>
      <point x="191" y="500" type="line"/>
      <point x="435" y="500" type="line"/>
      <point x="435" y="131" type="line"/>
      <point x="373" y="131" type="line"/>
    </contour>
  </outline>
</glyph>
<glyph name="pi" format="1">
  <advance width="626"/>
  <unicode hex="03C0"/>
  <outline>
    <contour>
      <point x="503" y="438" type="line"/>
      <point x="566" y="438" type="line"/>
      <point x="566" y="506" type="line"/>
      <point x="60" y="506" type="line"/>
      <point x="60" y="438" type="line"/>
      <point x="123" y="438" type="line"/>
      <point x="123" y="68" type="line"/>
      <point x="60" y="68" type="line"/>
      <point x="60" y="0" type="line"/>
      <point x="191" y="0" type="line"/>
      <point x="191" y="63" type="line"/>
      <point x="253" y="63" type="line"/>
      <point x="253" y="438" type="line"/>
      <point x="373" y="438" type="line"/>
      <point x="373" y="0" type="line"/>
      <point x="503" y="0" type="line"/>
    </contour>
  </outline>
</glyph>
<glyph name="endash" format="1">
  <advance width="563"/>
  <unicode hex="2013"/>
  <outline>
    <contour>
      <point x="60" y="250" type="line"/>
      <point x="503" y="250" type="line"/>
      <point x="503" y="318" type="line"/>
      <point x="60" y="318" type="line"/>
    </contour>
  </outline>
</glyph>
<glyph name="emdash" format="1">
  <advance width="751"/>
  <unicode hex="2014"/>
  <outline>
    <contour>
      <point x="60" y="250" type="line"/>
      <point x="691" y="250" type="line"/>
      <point x="691" y="318" type="line"/>
      <point x="60" y="318" type="line"/>
    </contour>
  </outline>
</glyph>
<glyph name="quoteleft" format="1">
  <advance width="251"/>
  <unicode hex="2018"/>
  <outline>
    <contour>
      <point x="60" y="375" type="line"/>
      <point x="191" y="375" type="line"/>
      <point x="191" y="506" type="line"/>
      <point x="128" y="506" type="line"/>
      <point x="128" y="625" type="line"/>
      <point x="191" y="625" type="line"/>
      <point x="191" y="693" type="line"/>
      <point x="123" y="693" type="line"/>
      <point x="123" y="631" type="line"/>
      <point x="60" y="631" type="line"/>
    </contour>
  </outline>
</glyph>
<glyph name="quoteright" format="1">
  <advance width="251"/>
  <unicode hex="2019"/>
  <outline>
    <contour>
      <point x="128" y="438" type="line"/>
      <point x="191" y="438" type="line"/>
      <point x="191" y="693" type="line"/>
      <point x="60" y="693" type="line"/>
      <point x="60" y="563" type="line"/>
      <point x="123" y="563" type="line"/>
      <point x="123" y="443" type="line"/>
      <point x="60" y="443" type="line"/>
      <point x="60" y="375" type="line"/>
      <point x="128" y="375" type="line"/>
    </contour>
  </outline>
</glyph>
<glyph name="quotedblleft" format="1">
  <advance width="438"/>
  <unicode hex="201C"/>
  <outline>
    <contour>
      <point x="248" y="375" type="line"/>
      <point x="378" y="375" type="line"/>
      <point x="378" y="506" type="line"/>
      <point x="316" y="506" type="line"/>
      <point x="316" y="625" type="line"/>
      <point x="378" y="625" type="line"/>
      <point x="378" y="693" type="line"/>
      <point x="310" y="693" type="line"/>
      <point x="310" y="631" type="line"/>
      <point x="248" y="631" type="line"/>
    </contour>
    <contour>
      <point x="60" y="375" type="line"/>
      <point x="191" y="375" type="line"/>
      <point x="191" y="506" type="line"/>
      <point x="128" y="506" type="line"/>
      <point x="128" y="625" type="line"/>
      <point x="191" y="625" type="line"/>
      <point x="191" y="693" type="line"/>
      <point x="123" y="693" type="line"/>
      <point x="123" y="631" type="line"/>
      <point x="60" y="631" type="line"/>
    </contour>
  </outline>
</glyph>
<glyph name="quotedblright" format="1">
  <advance width="438"/>
  <unicode hex="201D"/>
  <outline>
    <contour>
      <point x="316" y="438" type="line"/>
      <point x="378" y="438" type="line"/>
      <point x="378" y="693" type="line"/>
      <point x="248" y="693" type="line"/>
      <point x="248" y="563" type="line"/>
      <point x="310" y="563" type="line"/>
      <point x="310" y="443" type="line"/>
      <point x="248" y="443" type="line"/>
      <point x="248" y="375" type="line"/>
      <point x="316" y="375" type="line"/>
    </contour>
    <contour>
      <point x="128" y="438" type="line"/>
      <point x="191" y="438" type="line"/>
      <point x="191" y="693" type="line"/>
      <point x="60" y="693" type="line"/>
      <point x="60" y="563" type="line"/>
      <point x="123" y="563" type="line"/>
      <point x="123" y="443" type="line"/>
      <point x="60" y="443" type="line"/>
      <point x="60" y="375" type="line"/>
      <point x="128" y="375" type="line"/>
    </contour>
  </outline>
</glyph>
<glyph name="quotedblbase" format="1">
  <advance width="438"/>
  <unicode hex="201E"/>
  <outline>
    <contour>
      <point x="316" y="-125" type="line"/>
      <point x="378" y="-125" type="line"/>
      <point x="378" y="131" type="line"/>
      <point x="248" y="131" type="line"/>
      <point x="248" y="0" type="line"/>
      <point x="310" y="0" type="line"/>
      <point x="310" y="-119" type="line"/>
      <point x="248" y="-119" type="line"/>
      <point x="248" y="-187" type="line"/>
      <point x="316" y="-187" type="line"/>
    </contour>
    <contour>
      <point x="128" y="-125" type="line"/>
      <point x="191" y="-125" type="line"/>
      <point x="191" y="131" type="line"/>
      <point x="60" y="131" type="line"/>
      <point x="60" y="0" type="line"/>
      <point x="123" y="0" type="line"/>
      <point x="123" y="-119" type="line"/>
      <point x="60" y="-119" type="line"/>
      <point x="60" y="-187" type="line"/>
      <point x="128" y="-187" type="line"/>
    </contour>
  </outline>
</glyph>
<glyph name="dagger" format="1">
  <advance width="501"/>
  <unicode hex="2020"/>
  <outline>
    <contour>
      <point x="316" y="438" type="line"/>
      <point x="441" y="438" type="line"/>
      <point x="441" y="506" type="line"/>
      <point x="316" y="506" type="line"/>
      <point x="316" y="631" type="line"/>
      <point x="185" y="631" type="line"/>
      <point x="185" y="506" type="line"/>
      <point x="60" y="506" type="line"/>
      <point x="60" y="438" type="line"/>
      <point x="185" y="438" type="line"/>
      <point x="185" y="-125" type="line"/>
      <point x="316" y="-125" type="line"/>
    </contour>
  </outline>
</glyph>
<glyph name="daggerdbl" format="1">
  <advance width="501"/>
  <unicode hex="2021"/>
  <outline>
    <contour>
      <point x="316" y="0" type="line"/>
      <point x="441" y="0" type="line"/>
      <point x="441" y="68" type="line"/>
      <point x="316" y="68" type="line"/>
      <point x="316" y="438" type="line"/>
      <point x="441" y="438" type="line"/>
      <point x="441" y="506" type="line"/>
      <point x="316" y="506" type="line"/>
      <point x="316" y="631" type="line"/>
      <point x="185" y="631" type="line"/>
      <point x="185" y="506" type="line"/>
      <point x="60" y="506" type="line"/>
      <point x="60" y="438" type="line"/>
      <point x="185" y="438" type="line"/>
      <point x="185" y="68" type="line"/>
      <point x="60" y="68" type="line"/>
      <point x="60" y="0" type="line"/>
      <point x="185" y="0" type="line"/>
      <point x="185" y="-125" type="line"/>
      <point x="316" y="-125" type="line"/>
    </contour>
  </outline>
</glyph>
<glyph name="bullet" format="1">
  <advance width="501"/>
  <unicode hex="2022"/>
  <outline>
    <contour>
      <point x="378" y="188" type="line"/>
      <point x="441" y="188" type="line"/>
      <point x="441" y="318" type="line"/>
      <point x="378" y="318" type="line"/>
      <point x="378" y="381" type="line"/>
      <point x="316" y="381" type="line"/>
      <point x="316" y="443" type="line"/>
      <point x="185" y="443" type="line"/>
      <point x="185" y="381" type="line"/>
      <point x="123" y="381" type="line"/>
      <point x="123" y="318" type="line"/>
      <point x="60" y="318" type="line"/>
      <point x="60" y="188" type="line"/>
      <point x="123" y="188" type="line"/>
      <point x="123" y="125" type="line"/>
      <point x="185" y="125" type="line"/>
      <point x="185" y="63" type="line"/>
      <point x="316" y="63" type="line"/>
      <point x="316" y="125" type="line"/>
      <point x="378" y="125" type="line"/>
    </contour>
  </outline>
</glyph>
<glyph name="ellipsis" format="1">
  <advance width="751"/>
  <unicode hex="2026"/>
  <outline>
    <contour>
      <point x="560" y="0" type="line"/>
      <point x="691" y="0" type="line"/>
      <point x="691" y="131" type="line"/>
      <point x="560" y="131" type="line"/>
    </contour>
    <contour>
      <point x="310" y="0" type="line"/>
      <point x="441" y="0" type="line"/>
      <point x="441" y="131" type="line"/>
      <point x="310" y="131" type="line"/>
    </contour>
    <contour>
      <point x="60" y="0" type="line"/>
      <point x="191" y="0" type="line"/>
      <point x="191" y="131" type="line"/>
      <point x="60" y="131" type="line"/>
    </contour>
  </outline>
</glyph>
<glyph name="guilsinglleft" format="1">
  <advance width="438"/>
  <unicode hex="2039"/>
  <outline>
    <contour>
      <point x="310" y="0" type="line"/>
      <point x="378" y="0" type="line"/>
      <point x="378" y="68" type="line"/>
      <point x="316" y="68" type="line"/>
      <point x="316" y="131" type="line"/>
      <point x="253" y="131" type="line"/>
      <point x="253" y="193" type="line"/>
      <point x="191" y="193" type="line"/>
      <point x="191" y="256" type="line"/>
      <point x="128" y="256" type="line"/>
      <point x="128" y="313" type="line"/>
      <point x="191" y="313" type="line"/>
      <point x="191" y="375" type="line"/>
      <point x="253" y="375" type="line"/>
      <point x="253" y="438" type="line"/>
      <point x="316" y="438" type="line"/>
      <point x="316" y="500" type="line"/>
      <point x="378" y="500" type="line"/>
      <point x="378" y="568" type="line"/>
      <point x="310" y="568" type="line"/>
      <point x="310" y="506" type="line"/>
      <point x="248" y="506" type="line"/>
      <point x="248" y="443" type="line"/>
      <point x="185" y="443" type="line"/>
      <point x="185" y="381" type="line"/>
      <point x="123" y="381" type="line"/>
      <point x="123" y="318" type="line"/>
      <point x="60" y="318" type="line"/>
      <point x="60" y="250" type="line"/>
      <point x="123" y="250" type="line"/>
      <point x="123" y="188" type="line"/>
      <point x="185" y="188" type="line"/>
      <point x="185" y="125" type="line"/>
      <point x="248" y="125" type="line"/>
      <point x="248" y="63" type="line"/>
      <point x="310" y="63" type="line"/>
    </contour>
  </outline>
</glyph>
<glyph name="guilsinglright" format="1">
  <advance width="438"/>
  <unicode hex="203A"/>
  <outline>
    <contour>
      <point x="316" y="250" type="line"/>
      <point x="378" y="250" type="line"/>
      <point x="378" y="318" type="line"/>
      <point x="316" y="318" type="line"/>
      <point x="316" y="381" type="line"/>
      <point x="253" y="381" type="line"/>
      <point x="253" y="443" type="line"/>
      <point x="191" y="443" type="line"/>
      <point x="191" y="506" type="line"/>
      <point x="128" y="506" type="line"/>
      <point x="128" y="568" type="line"/>
      <point x="60" y="568" type="line"/>
      <point x="60" y="500" type="line"/>
      <point x="123" y="500" type="line"/>
      <point x="123" y="438" type="line"/>
      <point x="185" y="438" type="line"/>
      <point x="185" y="375" type="line"/>
      <point x="248" y="375" type="line"/>
      <point x="248" y="313" type="line"/>
      <point x="310" y="313" type="line"/>
      <point x="310" y="256" type="line"/>
      <point x="248" y="256" type="line"/>
      <point x="248" y="193" type="line"/>
      <point x="185" y="193" type="line"/>
      <point x="185" y="131" type="line"/>
      <point x="123" y="131" type="line"/>
      <point x="123" y="68" type="line"/>
      <point x="60" y="68" type="line"/>
      <point x="60" y="0" type="line"/>
      <point x="128" y="0" type="line"/>
      <point x="128" y="63" type="line"/>
      <point x="191" y="63" type="line"/>
      <point x="191" y="125" type="line"/>
      <point x="253" y="125" type="line"/>
      <point x="253" y="188" type="line"/>
      <point x="316" y="188" type="line"/>
    </contour>
  </outline>
</glyph>
<glyph name="fraction" format="1">
  <advance width="813"/>
  <unicode hex="2044"/>
  <outline>
    <contour>
      <point x="691" y="563" type="line"/>
      <point x="753" y="563" type="line"/>
      <point x="753" y="631" type="line"/>
      <point x="685" y="631" type="line"/>
      <point x="685" y="568" type="line"/>
      <point x="623" y="568" type="line"/>
      <point x="623" y="506" type="line"/>
      <point x="560" y="506" type="line"/>
      <point x="560" y="443" type="line"/>
      <point x="498" y="443" type="line"/>
      <point x="498" y="381" type="line"/>
      <point x="435" y="381" type="line"/>
      <point x="435" y="318" type="line"/>
      <point x="373" y="318" type="line"/>
      <point x="373" y="256" type="line"/>
      <point x="310" y="256" type="line"/>
      <point x="310" y="193" type="line"/>
      <point x="248" y="193" type="line"/>
      <point x="248" y="131" type="line"/>
      <point x="185" y="131" type="line"/>
      <point x="185" y="68" type="line"/>
      <point x="123" y="68" type="line"/>
      <point x="123" y="6" type="line"/>
      <point x="60" y="6" type="line"/>
      <point x="60" y="-62" type="line"/>
      <point x="128" y="-62" type="line"/>
      <point x="128" y="0" type="line"/>
      <point x="191" y="0" type="line"/>
      <point x="191" y="63" type="line"/>
      <point x="253" y="63" type="line"/>
      <point x="253" y="125" type="line"/>
      <point x="316" y="125" type="line"/>
      <point x="316" y="188" type="line"/>
      <point x="378" y="188" type="line"/>
      <point x="378" y="250" type="line"/>
      <point x="441" y="250" type="line"/>
      <point x="441" y="313" type="line"/>
      <point x="503" y="313" type="line"/>
      <point x="503" y="375" type="line"/>
      <point x="566" y="375" type="line"/>
      <point x="566" y="438" type="line"/>
      <point x="628" y="438" type="line"/>
      <point x="628" y="500" type="line"/>
      <point x="691" y="500" type="line"/>
    </contour>
  </outline>
</glyph>
<glyph name="trademark" format="1">
  <advance width="688"/>
  <unicode hex="2122"/>
  <outline>
    <contour>
      <point x="560" y="313" type="line"/>
      <point x="628" y="313" type="line"/>
      <point x="628" y="568" type="line"/>
      <point x="498" y="568" type="line"/>
      <point x="498" y="506" type="line"/>
      <point x="441" y="506" type="line"/>
      <point x="441" y="568" type="line"/>
      <point x="310" y="568" type="line"/>
      <point x="310" y="313" type="line"/>
      <point x="378" y="313" type="line"/>
      <point x="378" y="500" type="line"/>
      <point x="435" y="500" type="line"/>
      <point x="435" y="313" type="line"/>
      <point x="503" y="313" type="line"/>
      <point x="503" y="500" type="line"/>
      <point x="560" y="500" type="line"/>
    </contour>
    <contour>
      <point x="191" y="500" type="line"/>
      <point x="253" y="500" type="line"/>
      <point x="253" y="568" type="line"/>
      <point x="60" y="568" type="line"/>
      <point x="60" y="500" type="line"/>
      <point x="123" y="500" type="line"/>
      <point x="123" y="313" type="line"/>
      <point x="191" y="313" type="line"/>
    </contour>
  </outline>
</glyph>
<glyph name="partialdiff" format="1">
  <advance width="501"/>
  <unicode hex="2202"/>
  <outline>
    <contour>
      <point x="378" y="125" type="line"/>
      <point x="441" y="125" type="line"/>
      <point x="441" y="443" type="line"/>
      <point x="378" y="443" type="line"/>
      <point x="378" y="568" type="line"/>
      <point x="253" y="568" type="line"/>
      <point x="253" y="631" type="line"/>
      <point x="123" y="631" type="line"/>
      <point x="123" y="563" type="line"/>
      <point x="248" y="563" type="line"/>
      <point x="248" y="500" type="line"/>
      <point x="310" y="500" type="line"/>
      <point x="310" y="381" type="line"/>
      <point x="185" y="381" type="line"/>
      <point x="185" y="318" type="line"/>
      <point x="123" y="318" type="line"/>
      <point x="123" y="256" type="line"/>
      <point x="60" y="256" type="line"/>
      <point x="60" y="63" type="line"/>
      <point x="123" y="63" type="line"/>
      <point x="123" y="0" type="line"/>
      <point x="316" y="0" type="line"/>
      <point x="316" y="63" type="line"/>
      <point x="378" y="63" type="line"/>
    </contour>
    <contour>
      <point x="310" y="313" type="line"/>
      <point x="310" y="68" type="line"/>
      <point x="191" y="68" type="line"/>
      <point x="191" y="313" type="line"/>
    </contour>
  </outline>
</glyph>
<glyph name="product" format="1">
  <advance width="563"/>
  <unicode hex="220F"/>
  <outline>
    <contour>
      <point x="441" y="563" type="line"/>
      <point x="503" y="563" type="line"/>
      <point x="503" y="631" type="line"/>
      <point x="60" y="631" type="line"/>
      <point x="60" y="563" type="line"/>
      <point x="123" y="563" type="line"/>
      <point x="123" y="0" type="line"/>
      <point x="191" y="0" type="line"/>
      <point x="191" y="563" type="line"/>
      <point x="310" y="563" type="line"/>
      <point x="310" y="0" type="line"/>
      <point x="441" y="0" type="line"/>
    </contour>
  </outline>
</glyph>
<glyph name="summation" format="1">
  <advance width="501"/>
  <unicode hex="2211"/>
  <outline>
    <contour>
      <point x="60" y="-62" type="line"/>
      <point x="441" y="-62" type="line"/>
      <point x="441" y="68" type="line"/>
      <point x="373" y="68" type="line"/>
      <point x="373" y="6" type="line"/>
      <point x="191" y="6" type="line"/>
      <point x="191" y="125" type="line"/>
      <point x="253" y="125" type="line"/>
      <point x="253" y="188" type="line"/>
      <point x="316" y="188" type="line"/>
      <point x="316" y="250" type="line"/>
      <point x="378" y="250" type="line"/>
      <point x="378" y="318" type="line"/>
      <point x="316" y="318" type="line"/>
      <point x="316" y="381" type="line"/>
      <point x="253" y="381" type="line"/>
      <point x="253" y="443" type="line"/>
      <point x="191" y="443" type="line"/>
      <point x="191" y="563" type="line"/>
      <point x="373" y="563" type="line"/>
      <point x="373" y="500" type="line"/>
      <point x="441" y="500" type="line"/>
      <point x="441" y="631" type="line"/>
      <point x="60" y="631" type="line"/>
      <point x="60" y="438" type="line"/>
      <point x="123" y="438" type="line"/>
      <point x="123" y="375" type="line"/>
      <point x="185" y="375" type="line"/>
      <point x="185" y="313" type="line"/>
      <point x="248" y="313" type="line"/>
      <point x="248" y="256" type="line"/>
      <point x="185" y="256" type="line"/>
      <point x="185" y="193" type="line"/>
      <point x="123" y="193" type="line"/>
      <point x="123" y="131" type="line"/>
      <point x="60" y="131" type="line"/>
    </contour>
  </outline>
</glyph>
<glyph name="minus" format="1">
  <advance width="563"/>
  <unicode hex="2212"/>
  <outline>
    <contour>
      <point x="60" y="250" type="line"/>
      <point x="503" y="250" type="line"/>
      <point x="503" y="318" type="line"/>
      <point x="60" y="318" type="line"/>
    </contour>
  </outline>
</glyph>
<glyph name="radical" format="1">
  <advance width="563"/>
  <unicode hex="221A"/>
  <outline>
    <contour>
      <point x="441" y="438" type="line"/>
      <point x="503" y="438" type="line"/>
      <point x="503" y="568" type="line"/>
      <point x="435" y="568" type="line"/>
      <point x="435" y="443" type="line"/>
      <point x="373" y="443" type="line"/>
      <point x="373" y="318" type="line"/>
      <point x="310" y="318" type="line"/>
      <point x="310" y="193" type="line"/>
      <point x="248" y="193" type="line"/>
      <point x="248" y="68" type="line"/>
      <point x="191" y="68" type="line"/>
      <point x="191" y="193" type="line"/>
      <point x="128" y="193" type="line"/>
      <point x="128" y="318" type="line"/>
      <point x="60" y="318" type="line"/>
      <point x="60" y="188" type="line"/>
      <point x="123" y="188" type="line"/>
      <point x="123" y="63" type="line"/>
      <point x="185" y="63" type="line"/>
      <point x="185" y="0" type="line"/>
      <point x="253" y="0" type="line"/>
      <point x="253" y="63" type="line"/>
      <point x="316" y="63" type="line"/>
      <point x="316" y="188" type="line"/>
      <point x="378" y="188" type="line"/>
      <point x="378" y="313" type="line"/>
      <point x="441" y="313" type="line"/>
    </contour>
  </outline>
</glyph>
<glyph name="infinity" format="1">
  <advance width="813"/>
  <unicode hex="221E"/>
  <outline>
    <contour>
      <point x="691" y="188" type="line"/>
      <point x="753" y="188" type="line"/>
      <point x="753" y="381" type="line"/>
      <point x="691" y="381" type="line"/>
      <point x="691" y="443" type="line"/>
      <point x="498" y="443" type="line"/>
      <point x="498" y="381" type="line"/>
      <point x="435" y="381" type="line"/>
      <point x="435" y="318" type="line"/>
      <point x="378" y="318" type="line"/>
      <point x="378" y="381" type="line"/>
      <point x="316" y="381" type="line"/>
      <point x="316" y="443" type="line"/>
      <point x="123" y="443" type="line"/>
      <point x="123" y="381" type="line"/>
      <point x="60" y="381" type="line"/>
      <point x="60" y="188" type="line"/>
      <point x="123" y="188" type="line"/>
      <point x="123" y="125" type="line"/>
      <point x="316" y="125" type="line"/>
      <point x="316" y="188" type="line"/>
      <point x="378" y="188" type="line"/>
      <point x="378" y="250" type="line"/>
      <point x="435" y="250" type="line"/>
      <point x="435" y="188" type="line"/>
      <point x="498" y="188" type="line"/>
      <point x="498" y="125" type="line"/>
      <point x="691" y="125" type="line"/>
    </contour>
    <contour>
      <point x="623" y="375" type="line"/>
      <point x="623" y="193" type="line"/>
      <point x="503" y="193" type="line"/>
      <point x="503" y="256" type="line"/>
      <point x="441" y="256" type="line"/>
      <point x="441" y="313" type="line"/>
      <point x="503" y="313" type="line"/>
      <point x="503" y="375" type="line"/>
    </contour>
    <contour>
      <point x="373" y="313" type="line"/>
      <point x="373" y="256" type="line"/>
      <point x="310" y="256" type="line"/>
      <point x="310" y="193" type="line"/>
      <point x="191" y="193" type="line"/>
      <point x="191" y="375" type="line"/>
      <point x="310" y="375" type="line"/>
      <point x="310" y="313" type="line"/>
    </contour>
  </outline>
</glyph>
<glyph name="integral" format="1">
  <advance width="626"/>
  <unicode hex="222B"/>
  <outline>
    <contour>
      <point x="498" y="625" type="line"/>
      <point x="566" y="625" type="line"/>
      <point x="566" y="693" type="line"/>
      <point x="503" y="693" type="line"/>
      <point x="503" y="756" type="line"/>
      <point x="310" y="756" type="line"/>
      <point x="310" y="693" type="line"/>
      <point x="248" y="693" type="line"/>
      <point x="248" y="-119" type="line"/>
      <point x="128" y="-119" type="line"/>
      <point x="128" y="-57" type="line"/>
      <point x="60" y="-57" type="line"/>
      <point x="60" y="-125" type="line"/>
      <point x="123" y="-125" type="line"/>
      <point x="123" y="-187" type="line"/>
      <point x="316" y="-187" type="line"/>
      <point x="316" y="-125" type="line"/>
      <point x="378" y="-125" type="line"/>
      <point x="378" y="688" type="line"/>
      <point x="498" y="688" type="line"/>
    </contour>
  </outline>
</glyph>
<glyph name="approxequal" format="1">
  <advance width="563"/>
  <unicode hex="2248"/>
  <outline>
    <contour>
      <point x="441" y="375" type="line"/>
      <point x="503" y="375" type="line"/>
      <point x="503" y="443" type="line"/>
      <point x="435" y="443" type="line"/>
      <point x="435" y="381" type="line"/>
      <point x="316" y="381" type="line"/>
      <point x="316" y="443" type="line"/>
      <point x="253" y="443" type="line"/>
      <point x="253" y="506" type="line"/>
      <point x="123" y="506" type="line"/>
      <point x="123" y="443" type="line"/>
      <point x="60" y="443" type="line"/>
      <point x="60" y="375" type="line"/>
      <point x="128" y="375" type="line"/>
      <point x="128" y="438" type="line"/>
      <point x="248" y="438" type="line"/>
      <point x="248" y="375" type="line"/>
      <point x="310" y="375" type="line"/>
      <point x="310" y="313" type="line"/>
      <point x="441" y="313" type="line"/>
    </contour>
    <contour>
      <point x="441" y="125" type="line"/>
      <point x="503" y="125" type="line"/>
      <point x="503" y="193" type="line"/>
      <point x="435" y="193" type="line"/>
      <point x="435" y="131" type="line"/>
      <point x="316" y="131" type="line"/>
      <point x="316" y="193" type="line"/>
      <point x="253" y="193" type="line"/>
      <point x="253" y="256" type="line"/>
      <point x="123" y="256" type="line"/>
      <point x="123" y="193" type="line"/>
      <point x="60" y="193" type="line"/>
      <point x="60" y="125" type="line"/>
      <point x="128" y="125" type="line"/>
      <point x="128" y="188" type="line"/>
      <point x="248" y="188" type="line"/>
      <point x="248" y="125" type="line"/>
      <point x="310" y="125" type="line"/>
      <point x="310" y="63" type="line"/>
      <point x="441" y="63" type="line"/>
    </contour>
  </outline>
</glyph>
<glyph name="notequal" format="1">
  <advance width="563"/>
  <unicode hex="2260"/>
  <outline>
    <contour>
      <point x="191" y="125" type="line"/>
      <point x="503" y="125" type="line"/>
      <point x="503" y="193" type="line"/>
      <point x="253" y="193" type="line"/>
      <point x="253" y="250" type="line"/>
      <point x="316" y="250" type="line"/>
      <point x="316" y="313" type="line"/>
      <point x="378" y="313" type="line"/>
      <point x="378" y="375" type="line"/>
      <point x="503" y="375" type="line"/>
      <point x="503" y="443" type="line"/>
      <point x="441" y="443" type="line"/>
      <point x="441" y="500" type="line"/>
      <point x="503" y="500" type="line"/>
      <point x="503" y="568" type="line"/>
      <point x="435" y="568" type="line"/>
      <point x="435" y="506" type="line"/>
      <point x="373" y="506" type="line"/>
      <point x="373" y="443" type="line"/>
      <point x="60" y="443" type="line"/>
      <point x="60" y="375" type="line"/>
      <point x="310" y="375" type="line"/>
      <point x="310" y="318" type="line"/>
      <point x="248" y="318" type="line"/>
      <point x="248" y="256" type="line"/>
      <point x="185" y="256" type="line"/>
      <point x="185" y="193" type="line"/>
      <point x="60" y="193" type="line"/>
      <point x="60" y="125" type="line"/>
      <point x="123" y="125" type="line"/>
      <point x="123" y="68" type="line"/>
      <point x="60" y="68" type="line"/>
      <point x="60" y="0" type="line"/>
      <point x="128" y="0" type="line"/>
      <point x="128" y="63" type="line"/>
      <point x="191" y="63" type="line"/>
    </contour>
  </outline>
</glyph>
<glyph name="lessequal" format="1">
  <advance width="376"/>
  <unicode hex="2264"/>
  <outline>
    <contour>
      <point x="248" y="125" type="line"/>
      <point x="316" y="125" type="line"/>
      <point x="316" y="193" type="line"/>
      <point x="253" y="193" type="line"/>
      <point x="253" y="256" type="line"/>
      <point x="191" y="256" type="line"/>
      <point x="191" y="318" type="line"/>
      <point x="128" y="318" type="line"/>
      <point x="128" y="375" type="line"/>
      <point x="191" y="375" type="line"/>
      <point x="191" y="438" type="line"/>
      <point x="253" y="438" type="line"/>
      <point x="253" y="500" type="line"/>
      <point x="316" y="500" type="line"/>
      <point x="316" y="568" type="line"/>
      <point x="248" y="568" type="line"/>
      <point x="248" y="506" type="line"/>
      <point x="185" y="506" type="line"/>
      <point x="185" y="443" type="line"/>
      <point x="123" y="443" type="line"/>
      <point x="123" y="381" type="line"/>
      <point x="60" y="381" type="line"/>
      <point x="60" y="313" type="line"/>
      <point x="123" y="313" type="line"/>
      <point x="123" y="250" type="line"/>
      <point x="185" y="250" type="line"/>
      <point x="185" y="188" type="line"/>
      <point x="248" y="188" type="line"/>
    </contour>
    <contour>
      <point x="60" y="0" type="line"/>
      <point x="316" y="0" type="line"/>
      <point x="316" y="68" type="line"/>
      <point x="60" y="68" type="line"/>
    </contour>
  </outline>
</glyph>
<glyph name="greaterequal" format="1">
  <advance width="376"/>
  <unicode hex="2265"/>
  <outline>
    <contour>
      <point x="253" y="313" type="line"/>
      <point x="316" y="313" type="line"/>
      <point x="316" y="381" type="line"/>
      <point x="253" y="381" type="line"/>
      <point x="253" y="443" type="line"/>
      <point x="191" y="443" type="line"/>
      <point x="191" y="506" type="line"/>
      <point x="128" y="506" type="line"/>
      <point x="128" y="568" type="line"/>
      <point x="60" y="568" type="line"/>
      <point x="60" y="500" type="line"/>
      <point x="123" y="500" type="line"/>
      <point x="123" y="438" type="line"/>
      <point x="185" y="438" type="line"/>
      <point x="185" y="375" type="line"/>
      <point x="248" y="375" type="line"/>
      <point x="248" y="318" type="line"/>
      <point x="185" y="318" type="line"/>
      <point x="185" y="256" type="line"/>
      <point x="123" y="256" type="line"/>
      <point x="123" y="193" type="line"/>
      <point x="60" y="193" type="line"/>
      <point x="60" y="125" type="line"/>
      <point x="128" y="125" type="line"/>
      <point x="128" y="188" type="line"/>
      <point x="191" y="188" type="line"/>
      <point x="191" y="250" type="line"/>
      <point x="253" y="250" type="line"/>
    </contour>
    <contour>
      <point x="60" y="0" type="line"/>
      <point x="316" y="0" type="line"/>
      <point x="316" y="68" type="line"/>
      <point x="60" y="68" type="line"/>
    </contour>
  </outline>
</glyph>
<glyph name="lozenge" format="1">
  <advance width="688"/>
  <unicode hex="25CA"/>
  <outline>
    <contour>
      <point x="566" y="250" type="line"/>
      <point x="628" y="250" type="line"/>
      <point x="628" y="318" type="line"/>
      <point x="566" y="318" type="line"/>
      <point x="566" y="381" type="line"/>
      <point x="503" y="381" type="line"/>
      <point x="503" y="443" type="line"/>
      <point x="441" y="443" type="line"/>
      <point x="441" y="506" type="line"/>
      <point x="378" y="506" type="line"/>
      <point x="378" y="568" type="line"/>
      <point x="310" y="568" type="line"/>
      <point x="310" y="506" type="line"/>
      <point x="248" y="506" type="line"/>
      <point x="248" y="443" type="line"/>
      <point x="185" y="443" type="line"/>
      <point x="185" y="381" type="line"/>
      <point x="123" y="381" type="line"/>
      <point x="123" y="318" type="line"/>
      <point x="60" y="318" type="line"/>
      <point x="60" y="250" type="line"/>
      <point x="123" y="250" type="line"/>
      <point x="123" y="188" type="line"/>
      <point x="185" y="188" type="line"/>
      <point x="185" y="125" type="line"/>
      <point x="248" y="125" type="line"/>
      <point x="248" y="63" type="line"/>
      <point x="310" y="63" type="line"/>
      <point x="310" y="0" type="line"/>
      <point x="378" y="0" type="line"/>
      <point x="378" y="63" type="line"/>
      <point x="441" y="63" type="line"/>
      <point x="441" y="125" type="line"/>
      <point x="503" y="125" type="line"/>
      <point x="503" y="188" type="line"/>
      <point x="566" y="188" type="line"/>
    </contour>
    <contour>
      <point x="560" y="313" type="line"/>
      <point x="560" y="256" type="line"/>
      <point x="498" y="256" type="line"/>
      <point x="498" y="193" type="line"/>
      <point x="435" y="193" type="line"/>
      <point x="435" y="131" type="line"/>
      <point x="373" y="131" type="line"/>
      <point x="373" y="68" type="line"/>
      <point x="316" y="68" type="line"/>
      <point x="316" y="131" type="line"/>
      <point x="253" y="131" type="line"/>
      <point x="253" y="193" type="line"/>
      <point x="191" y="193" type="line"/>
      <point x="191" y="256" type="line"/>
      <point x="128" y="256" type="line"/>
      <point x="128" y="313" type="line"/>
      <point x="191" y="313" type="line"/>
      <point x="191" y="375" type="line"/>
      <point x="253" y="375" type="line"/>
      <point x="253" y="438" type="line"/>
      <point x="316" y="438" type="line"/>
      <point x="316" y="500" type="line"/>
      <point x="373" y="500" type="line"/>
      <point x="373" y="438" type="line"/>
      <point x="435" y="438" type="line"/>
      <point x="435" y="375" type="line"/>
      <point x="498" y="375" type="line"/>
      <point x="498" y="313" type="line"/>
    </contour>
  </outline>
</glyph>
<glyph name="one.osf" format="1">
  <advance width="376"/>
  <unicode hex="E001"/>
  <outline>
    <contour>
      <point x="316" y="0" type="line"/>
      <point x="316" y="568" type="line"/>
      <point x="185" y="568" type="line"/>
      <point x="185" y="506" type="line"/>
      <point x="123" y="506" type="line"/>
      <point x="123" y="443" type="line"/>
      <point x="60" y="443" type="line"/>
      <point x="60" y="375" type="line"/>
      <point x="128" y="375" type="line"/>
      <point x="128" y="438" type="line"/>
      <point x="185" y="438" type="line"/>
      <point x="185" y="0" type="line"/>
    </contour>
  </outline>
</glyph>
<glyph name="two.osf" format="1">
  <advance width="501"/>
  <unicode hex="E002"/>
  <outline>
    <contour>
      <point x="441" y="0" type="line"/>
      <point x="441" y="68" type="line"/>
      <point x="191" y="68" type="line"/>
      <point x="191" y="125" type="line"/>
      <point x="253" y="125" type="line"/>
      <point x="253" y="188" type="line"/>
      <point x="316" y="188" type="line"/>
      <point x="316" y="250" type="line"/>
      <point x="378" y="250" type="line"/>
      <point x="378" y="313" type="line"/>
      <point x="441" y="313" type="line"/>
      <point x="441" y="506" type="line"/>
      <point x="378" y="506" type="line"/>
      <point x="378" y="568" type="line"/>
      <point x="123" y="568" type="line"/>
      <point x="123" y="506" type="line"/>
      <point x="60" y="506" type="line"/>
      <point x="60" y="375" type="line"/>
      <point x="191" y="375" type="line"/>
      <point x="191" y="500" type="line"/>
      <point x="310" y="500" type="line"/>
      <point x="310" y="318" type="line"/>
      <point x="248" y="318" type="line"/>
      <point x="248" y="256" type="line"/>
      <point x="185" y="256" type="line"/>
      <point x="185" y="193" type="line"/>
      <point x="123" y="193" type="line"/>
      <point x="123" y="131" type="line"/>
      <point x="60" y="131" type="line"/>
      <point x="60" y="0" type="line"/>
    </contour>
  </outline>
</glyph>
